<svg width="300" height="150" viewBox="0 0 300 150" fill="none" xmlns="http://www.w3.org/2000/svg">
<path d="M134.479 53.7966H143.714V90.6908H152.949V44.5731H143.714C138.635 44.5731 134.479 48.7237 134.479 53.7966Z" fill="#868490"/>
<path d="M162.184 90.6909H171.418V72.2438C171.418 67.1709 167.263 63.0203 162.184 63.0203V90.6909Z" fill="#868490"/>
<path d="M180.652 63.0203V90.6909H189.887V72.2438H199.122V81.4673C199.122 86.5403 203.277 90.6909 208.357 90.6909V72.2438C208.357 67.1709 204.201 63.0203 199.122 63.0203H180.652Z" fill="#868490"/>
<path d="M263.765 63.0202H254.531V53.7966C254.531 48.7237 250.375 44.5731 245.296 44.5731V81.4672H226.827V72.2437H236.061V63.0202H226.827C221.747 63.0202 217.592 67.1708 217.592 72.2437V81.4672C217.592 86.5402 221.747 90.6908 226.827 90.6908H254.531V72.2437H263.765V81.4672C263.765 86.5402 267.921 90.6908 273 90.6908V72.2437C273 67.1708 268.845 63.0202 263.765 63.0202Z" fill="#868490"/>
<path d="M162.184 53.7966H171.418C171.418 48.7237 167.263 44.5731 162.184 44.5731V53.7966Z" fill="#868490"/>
<path d="M148.885 99.9146V105.956H148.031L144.707 101.759V105.933H143.714V99.9146H144.568L147.893 104.111V99.9146H148.885Z" fill="#868490"/>
<path d="M167.655 105.956H164.076V99.9146H167.562V100.906H165.138V102.405H167.308V103.396H165.138V104.964H167.655V105.956Z" fill="#868490"/>
<path d="M184.832 100.906H182.869V99.9146H187.856V100.906H185.894V105.956H184.832V100.906Z" fill="#868490"/>
<path d="M210.435 99.9146H211.45L209.719 105.956H208.726L207.272 101.598L205.84 105.956H204.848L203.047 99.9146H204.247L205.471 104.227L206.81 99.9146H207.872L209.257 104.227L210.435 99.9146Z" fill="#868490"/>
<path d="M226.665 103.027C226.665 102.151 226.965 101.413 227.542 100.814C228.143 100.214 228.904 99.9146 229.805 99.9146C230.705 99.9146 231.467 100.191 232.067 100.768C232.668 101.344 232.968 102.105 232.968 103.027C232.968 103.927 232.668 104.665 232.067 105.264C231.467 105.864 230.728 106.14 229.805 106.14C228.904 106.14 228.143 105.864 227.542 105.287C226.965 104.711 226.665 103.95 226.665 103.027ZM227.796 103.027C227.796 103.627 227.981 104.134 228.373 104.549C228.766 104.941 229.251 105.149 229.805 105.149C230.428 105.149 230.913 104.941 231.282 104.549C231.652 104.157 231.836 103.65 231.836 103.027C231.836 102.405 231.652 101.898 231.259 101.506C230.867 101.114 230.382 100.906 229.828 100.906C229.251 100.906 228.766 101.114 228.373 101.506C227.981 101.898 227.796 102.405 227.796 103.027Z" fill="#868490"/>
<path d="M249.22 103.719V105.979H248.158V99.9375C248.458 99.9375 248.782 99.9375 249.128 99.9375C249.474 99.9375 249.774 99.9375 249.982 99.9375C251.437 99.9375 252.175 100.56 252.175 101.805C252.175 102.266 252.06 102.635 251.829 102.935C251.598 103.212 251.321 103.419 251.021 103.512L252.914 105.979H251.621L249.959 103.719H249.22ZM249.959 100.906C249.936 100.906 249.89 100.906 249.82 100.906C249.751 100.906 249.659 100.906 249.543 100.906C249.428 100.906 249.313 100.906 249.22 100.906V102.705H249.913C250.259 102.705 250.536 102.612 250.744 102.451C250.952 102.289 251.067 102.059 251.067 101.759C251.067 101.206 250.698 100.906 249.959 100.906Z" fill="#868490"/>
<path d="M269.19 105.956H268.128V99.9146H269.19V102.774L271.568 99.9146H272.838L270.344 102.728L272.976 105.956H271.637L269.167 102.843V105.956H269.19Z" fill="#868490"/>
<path fill-rule="evenodd" clip-rule="evenodd" d="M102.134 44.0198C99.2947 42.1751 97.2862 41.3911 97.2862 41.3911C97.2862 41.3911 98.6021 41.4372 100.518 41.5755C101.257 41.6216 102.065 41.6908 102.919 41.7831C103.612 41.8522 104.305 41.9214 105.02 41.9906C103.774 40.9991 102.527 40.1228 101.28 39.3158C93.8001 34.4965 86.7817 32.9746 80.9176 32.9746C75.7462 32.9746 71.4982 34.1506 68.6585 35.2344C66.3729 36.1106 64.9877 36.9407 64.7799 37.056L67.735 32.3751L67.9659 30.0692C68.774 30.1384 69.4666 30.6226 69.8129 31.3374C69.9514 31.6372 70.0437 31.96 70.0437 32.3059C72.9065 31.4066 76.6235 30.6687 80.9176 30.6687C88.2361 30.6687 97.1476 32.8824 106.429 40.1689C107.237 40.8146 107.537 41.8984 107.144 42.8668C106.936 43.3741 106.567 43.7661 106.128 43.9967C107.791 45.2649 109.591 46.8329 111.369 48.7238C117.764 55.5492 123.674 66.5021 122.104 82.8278C122.012 83.7501 121.366 84.5341 120.465 84.8108C120.05 84.9261 119.634 84.9492 119.242 84.8339C118.734 91.8207 115.686 103.35 102.55 113.196C101.765 113.796 100.68 113.819 99.8719 113.265C99.5487 113.035 99.2716 112.735 99.11 112.412C98.9715 112.528 98.833 112.666 98.7175 112.781C94.9775 116.148 89.3212 119.837 81.6333 120.898C81.5179 120.921 81.4255 120.921 81.3101 120.921H81.2408C80.2943 120.921 79.4401 120.344 79.0938 119.445C79.0476 119.307 79.0014 119.145 78.9783 119.007C77.0852 119.376 74.8689 119.63 72.3062 119.63C68.0121 119.63 62.8406 118.892 56.7688 116.77C55.6145 116.355 54.968 115.11 55.3143 113.934C55.6606 112.758 56.8612 112.066 58.0617 112.343C59.7701 112.758 61.5016 112.966 63.2793 112.966C74.892 112.966 84.0113 104.296 84.0113 93.9421C84.0113 88.8231 81.8411 84.1421 78.1934 80.6833C78.1934 80.7064 78.1703 80.7064 78.1703 80.7294C77.3392 81.8132 76.3233 83.1045 75.6077 84.0499C74.4533 85.664 74.0608 86.5633 74.1532 87.3704C74.5457 89.9991 73.7376 92.5816 72.237 94.4725C72.2139 94.4955 72.1908 94.5186 72.1677 94.5417C71.5675 95.2334 70.4593 96.2019 69.4435 97.0781C69.3973 97.1242 69.3511 97.1473 69.305 97.1934C68.2891 98.0697 67.2964 98.9459 66.5807 99.6607C66.5576 99.6838 66.5345 99.7068 66.5345 99.7068C64.7569 101.367 62.402 101.621 61.0168 101.621C60.6243 101.621 60.278 101.598 60.0471 101.575H60.0241C59.7932 101.552 59.7008 101.552 59.6547 101.552H59.4238C59.3776 101.552 59.3545 101.552 59.3315 101.552C59.2853 101.575 59.216 101.621 59.0775 101.736C58.9159 101.874 58.685 102.059 58.408 102.312C57.8308 102.843 57.1613 103.073 56.6996 103.189C56.1686 103.327 55.6145 103.373 55.1066 103.373C53.7675 103.373 52.2207 103.073 50.9509 102.751C49.635 102.428 48.4576 102.036 47.765 101.805C47.7419 101.805 47.7188 101.782 47.6957 101.782C47.0262 101.528 46.5414 101.09 46.1951 100.721C45.8488 100.329 45.5255 99.9144 45.2716 99.4762C44.7406 98.6231 44.2789 97.6085 43.8864 96.6631C43.1245 94.8184 42.5012 92.6739 42.3857 91.6362C42.3165 90.9445 42.4781 90.2758 42.6166 89.8838C42.7551 89.3995 42.9629 88.9153 43.1707 88.4541C43.5862 87.5318 44.1172 86.5172 44.6021 85.6179L44.6252 85.5718C44.9484 84.9492 45.2485 84.3958 45.4794 83.9346C45.5948 83.704 45.6641 83.5195 45.7333 83.3812C45.7795 83.2889 45.7795 83.2428 45.8026 83.2198C45.918 82.6202 46.3336 79.6918 46.7261 76.5327C47.1185 73.4198 47.511 70.3299 47.5803 69.7073C47.6495 69.1769 47.6264 68.9233 47.5803 68.6697C47.511 68.3929 47.3725 67.9779 46.9107 67.24C46.9107 67.24 46.9107 67.2169 46.8877 67.2169C45.8718 65.5106 45.8257 63.8273 46.2412 61.752C41.0929 58.1779 27.9796 48.5162 27.1715 47.8475C27.1715 47.8475 27.1715 47.8475 27.1484 47.8245C26.6636 47.4325 26.1788 46.8329 26.0403 46.0259C25.971 45.6339 25.9941 45.2419 26.0864 44.9191C26.1326 44.7576 26.1788 44.6193 26.2481 44.504C26.2711 44.4348 26.3173 44.3887 26.3404 44.3426C26.3635 44.3195 26.3635 44.2965 26.3866 44.2734C26.3866 44.2504 26.4097 44.2504 26.4097 44.2273C26.4097 44.2273 26.4097 44.2273 26.4097 44.2042C26.4097 44.2042 26.4097 44.2042 28.3259 45.4725C28.3259 45.4725 28.1643 45.7031 28.626 46.072C28.6722 46.0951 28.7183 46.1642 28.8338 46.2334C28.8569 46.2334 28.8569 46.2565 28.8799 46.2795C29.1108 46.464 29.4802 46.7407 29.965 47.1096C30.6115 47.5939 31.4888 48.2395 32.4815 48.9774C37.6298 52.7821 46.3798 59.1694 48.85 60.7835C48.0882 63.5045 48.0882 64.7958 48.85 66.0871C49.912 67.8165 49.9813 68.7388 49.8428 70.0301C49.6812 71.3214 48.319 82.4358 48.0189 83.7962C47.9035 84.3497 47.3032 85.4565 46.6568 86.7017C45.6871 88.5233 44.6021 90.5986 44.6944 91.4518C44.856 92.8814 46.8184 99.0151 48.5499 99.7068C49.8428 100.168 53.0288 101.136 55.1297 101.136C55.8915 101.136 56.561 100.975 56.8612 100.675C58.154 99.5454 58.5234 99.3148 59.4469 99.3148H59.6778C59.8624 99.3148 60.0471 99.3379 60.2549 99.3379C60.5089 99.361 60.7628 99.384 61.0399 99.384C62.2404 99.384 63.8334 99.1534 64.9877 98.0927C65.7727 97.3087 66.8347 96.3864 67.8274 95.5332C68.9356 94.5647 69.9745 93.6654 70.4593 93.112C71.5906 91.6824 72.1908 89.6993 71.8907 87.7393C71.6598 85.9177 72.6525 84.3266 73.7838 82.7355C75.2152 80.8447 77.8702 77.432 77.8702 77.432C78.0549 77.5704 78.2396 77.7087 78.4242 77.8471C78.8398 78.1929 79.2554 78.5388 79.6478 78.9078C83.8266 82.7816 86.3661 88.1313 86.3661 93.9882C86.3661 104.203 78.6551 112.712 68.3122 114.833C66.7192 115.156 65.0339 115.341 63.3255 115.341C61.3631 115.341 59.47 115.11 57.5769 114.649C59.6085 115.364 61.5247 115.894 63.3255 116.309C65.1262 116.724 66.8116 116.978 68.4046 117.162C69.8129 117.301 71.1288 117.37 72.3524 117.37C75.6307 117.37 78.3088 116.909 80.3635 116.355C83.7111 115.456 85.4426 114.257 85.4426 114.257C85.4426 114.257 85.004 114.833 84.1959 115.733C83.5264 116.471 82.626 117.416 81.541 118.431C81.4717 118.477 81.4255 118.546 81.3563 118.592C81.3332 118.615 81.3101 118.638 81.287 118.661H81.3563C82.7876 118.454 84.1498 118.154 85.4426 117.785C92.0224 115.871 96.6628 111.905 99.4102 108.93C101.419 106.74 102.411 105.056 102.411 105.056C102.411 105.056 102.227 106.302 101.95 107.87C101.834 108.561 101.673 109.299 101.534 110.014C101.419 110.498 101.326 110.96 101.211 111.398C102.227 110.637 103.196 109.853 104.097 109.069C115.202 99.361 116.979 88.5464 117.072 82.8969C117.072 82.6433 117.072 82.3897 117.072 82.1591C117.072 82.1591 117.072 82.1591 117.072 82.136C117.048 80.4527 116.887 79.3459 116.841 79.0461V79C116.841 78.9769 116.841 78.9769 116.841 78.9539C116.841 78.9539 116.864 78.9769 116.864 79C116.864 79 116.887 79.0231 116.887 79.0461C117.025 79.2075 117.349 79.6226 117.741 80.1068C117.972 80.3835 118.226 80.7064 118.48 81.0061C118.78 81.3751 119.103 81.744 119.38 82.0899C119.565 82.2974 119.727 82.5049 119.865 82.6664C119.957 81.6518 120.027 80.6602 120.073 79.7148C120.073 79.5765 120.073 79.4612 120.096 79.3228C120.673 59.0541 109.014 48.4701 102.134 44.0198ZM50.443 39.8231C50.4892 40.0075 50.5585 40.192 50.6046 40.3765C50.9509 41.4602 51.3434 42.6824 51.759 43.6969C52.1515 42.544 52.5901 41.5064 53.098 40.5609C56.3533 34.5195 61.6863 32.8593 64.9415 32.4442C66.6269 32.2367 67.735 32.3289 67.735 32.3289C67.9659 30.0231 67.9659 30.0231 67.9428 30.0231H67.9197H67.8967H67.8736C67.8274 30.0231 67.7812 30.0231 67.735 30.0231C67.6196 30.0231 67.458 30 67.2502 30C66.8578 30 66.3037 30 65.6342 30.0461C64.2951 30.1384 62.4713 30.4381 60.4858 31.1529C57.6692 32.1906 54.5756 34.1275 52.1745 37.5633C52.1284 37.4249 52.1053 37.3096 52.0822 37.1944C52.036 37.0099 51.9898 36.8485 51.9668 36.7332C51.9437 36.6871 51.9437 36.6409 51.9437 36.6179V36.5948C51.7359 35.8108 51.1587 35.1882 50.3969 34.9576C49.635 34.7271 48.8039 34.8885 48.1805 35.4188L49.7043 37.1482C48.1805 35.4188 48.1805 35.4188 48.1805 35.4188L48.1574 35.4419C48.1343 35.4649 48.1113 35.488 48.0651 35.5111C47.9958 35.5802 47.9035 35.6494 47.8111 35.7647C47.6034 35.9722 47.3263 36.272 47.0262 36.6409C46.4028 37.4019 45.6179 38.5087 44.9253 39.9384C43.9556 41.9906 43.1938 44.6654 43.4246 47.8706C40.8851 46.9482 38.2532 46.0259 35.9907 45.2188C34.2592 44.6193 32.7354 44.0659 31.6273 43.6969C31.0732 43.5125 30.6115 43.3511 30.2652 43.2358C30.1035 43.1896 29.965 43.1435 29.8496 43.0974C29.7803 43.0744 29.5956 43.0052 29.434 42.9821C29.3879 42.9821 29.3417 42.9591 29.3186 42.9591C28.6953 42.8668 28.0719 42.936 27.4947 43.1896C27.2177 43.3049 26.9868 43.4664 26.8021 43.6508C26.7098 43.7431 26.6405 43.8122 26.5713 43.9045C26.5482 43.9506 26.502 43.9736 26.4789 44.0198C26.4558 44.0428 26.4558 44.0659 26.4327 44.0659L26.4097 44.0889V44.112C26.4097 44.112 26.4097 44.112 28.3259 45.4033C28.3259 45.4033 28.4875 45.1727 29.0185 45.2419C29.0416 45.2419 29.1108 45.2649 29.2032 45.3111C29.4571 45.4033 29.9419 45.5647 30.5884 45.7722C31.3733 46.0489 32.3891 46.3948 33.5666 46.8099C36.4524 47.8245 40.3079 49.208 43.8402 50.4762C44.7637 50.7991 45.641 51.1219 46.4952 51.4447C46.1951 50.5224 45.9873 49.6231 45.8718 48.7699C45.2716 44.5271 46.6799 41.2988 47.9497 39.3388C48.8731 37.9092 49.7504 37.1482 49.7504 37.1482C49.7504 37.1482 50.0044 38.3704 50.443 39.8231Z" fill="#868490"/>
<path d="M68.266 91.1519C68.0351 91.4517 67.204 92.1895 66.4421 92.8813C66.2112 93.0888 65.9804 93.2964 65.7726 93.4808C65.4494 93.7806 65.1261 94.0573 64.8029 94.334C64.2027 94.8644 63.6024 95.3947 63.1176 95.902C62.8175 96.2018 62.2172 96.3632 61.2937 96.3632H59.0312C59.493 95.7637 60.301 94.8413 61.1783 93.8959C61.6631 93.4578 62.148 93.0197 62.5866 92.6507C63.3716 92.0051 64.1334 91.567 64.826 91.198C66.0727 90.5062 66.9962 89.9989 66.9962 88.7077C67.0424 86.1251 65.3108 85.6408 64.018 85.6178C64.4105 85.5255 64.826 85.4564 65.2416 85.4564C63.8102 85.0874 61.9863 85.4564 61.1552 86.2865C60.555 86.8399 60.4164 88.3387 60.2779 89.8375C60.2087 90.5754 60.1394 91.3364 60.024 91.9589C59.6777 93.7114 58.6157 94.7029 56.9765 96.1787C56.7918 96.3401 56.584 96.5246 56.3993 96.7091C56.3532 96.7552 56.307 96.8013 56.2608 96.8474L51.251 95.7406C51.251 95.7406 54.5755 94.0112 55.1065 92.0281C55.5913 90.3448 54.3446 85.1105 54.0445 83.7731C53.9983 83.6117 53.9752 83.5194 53.9752 83.4733L53.9983 83.4964C54.2292 83.7039 55.5913 84.9721 56.2377 86.9552C57.4382 83.6347 59.0312 80.4526 59.493 80.1528C59.8854 79.8992 64.4797 77.4549 65.7495 76.7632C65.1954 78.2851 64.6413 79.7839 64.2719 80.8907C62.9098 81.2597 61.5477 82.0206 60.555 83.5425C61.086 83.1735 62.7482 82.943 63.9718 82.7815C65.0338 82.7124 68.289 84.4418 69.1202 87.6931V87.8545C69.2587 89.1227 68.8662 90.2526 68.266 91.1519Z" fill="#868490"/>
<path d="M65.7041 80.7986C67.2509 80.6602 68.5438 80.96 68.8901 81.0983C71.8452 75.495 74.2 72.4743 74.8003 72.4743C74.8696 72.4743 75.0081 72.4743 75.1928 72.4743C76.8781 72.5205 82.8807 72.728 85.3971 66.7096C88.0752 60.1609 84.3121 54.5576 84.035 54.1656V54.1426C87.221 64.5882 80.1795 70.399 75.4006 70.4913C72.7456 70.4913 69.1902 72.2207 69.1902 72.2207L65.7041 80.7986Z" fill="#868490"/>
<path d="M84.0107 54.1656C84.0338 54.1656 84.0338 54.1656 84.0107 54.1656C84.357 54.3271 90.0133 57.0711 91.6525 65.5798C95.4156 69.9609 97.7705 75.4489 98.4169 81.2598C98.4169 81.6287 98.9479 82.1591 99.4789 82.6202C100.172 83.312 100.841 83.9807 100.841 84.6725C100.841 86.4941 100.679 88.3158 100.379 90.0452C100.241 90.5755 99.6405 90.9445 98.971 91.3365L98.9017 91.3826C98.8786 91.4057 98.8556 91.4057 98.8325 91.4287C98.7863 91.4518 98.7632 91.4748 98.717 91.4979C98.6247 91.5671 98.5093 91.6362 98.3938 91.7054C98.0014 91.9591 97.5858 92.2127 97.5165 92.3972C95.9697 97.8621 92.7376 102.728 88.4203 106.44C95.5541 102.428 100.91 95.6946 103.127 87.6932C103.865 84.5341 103.981 81.2367 103.404 77.8701C100.679 62.4207 84.9342 54.5346 84.0107 54.1656Z" fill="#868490"/>
<path d="M65.8193 54.9265C67.2276 54.9956 70.2058 54.8573 73.0455 52.8051C73.3225 53.4738 73.6227 54.1425 73.8997 54.8112C70.4136 55.7335 67.2738 55.2493 65.8193 54.9265Z" fill="#868490"/>
<path d="M76.2541 53.9581C78.1473 53.0818 80.0404 51.7444 81.7719 49.6691C80.0866 49.1849 78.3551 48.839 76.5774 48.6545C76.0464 49.4847 75.5154 50.2456 74.9844 50.8451C75.3307 51.6061 75.7693 52.736 76.2541 53.9581Z" fill="#868490"/>
<path d="M91.377 77.6165C92.1389 73.7656 92.2081 70.4221 91.9773 67.7012C94.9324 71.6442 96.7562 76.3944 97.2872 81.3289C97.3565 81.9285 97.9799 82.528 98.5801 83.1506C99.1111 83.6118 99.7114 84.2113 99.7114 84.5802C99.7114 86.3096 99.5498 88.0621 99.2496 89.7915C99.1804 89.9991 98.557 90.368 98.0491 90.6447L97.9568 90.6908C97.1949 91.0598 96.5254 91.4518 96.3638 92.0513C94.7015 97.8852 91.1462 103.027 86.3672 106.648C93.4087 99.3379 96.8255 87.232 91.377 77.6165Z" fill="#868490"/>
<path fill-rule="evenodd" clip-rule="evenodd" d="M57.8081 48.862C57.8081 48.862 56.4459 39.1081 63.2566 35.0267C63.2335 35.0267 63.1873 35.0498 63.118 35.0729C61.7328 35.6032 51.5977 39.4079 57.8081 48.862ZM72.5144 39.9383C77.732 37.9783 85.0043 36.9176 96.2938 39.039C91.2839 36.5486 86.0663 35.2573 80.8487 35.1881C78.8863 35.1881 77.0625 35.3496 75.4002 35.6493C69.49 36.71 64.6418 40.9529 62.9795 46.6253C62.9795 46.6253 64.18 44.7345 67.0659 42.7745L67.1813 42.6131C68.2433 41.1604 69.8363 38.9929 71.3831 37.1712C71.8218 38.1166 72.3528 39.3387 72.5144 39.9383ZM98.7179 52.5053C109.407 59.5383 114.255 67.3321 117.649 76.4865C117.487 66.8018 114.232 58.4776 107.953 51.8136L107.791 51.6521C102.25 45.8183 94.1467 43.0973 86.1356 44.2272C83.1112 44.5961 80.0868 45.2187 77.732 45.9566C77.3626 46.0258 76.9701 46.118 76.6007 46.2564H76.7623C77.3626 46.2103 88.4212 45.6799 98.7179 52.5053ZM108.576 100.629C107.445 102.151 106.152 103.742 104.628 105.241C114.394 86.471 105.09 69.2921 104.697 68.6234C105.39 69.3152 106.06 70.0531 106.66 70.7449C114.163 79.046 115.086 91.5439 108.576 100.629ZM48.7811 42.4286C48.5041 43.5354 45.9414 53.2663 54.5528 53.543C49.4045 50.43 48.8042 42.4286 48.8042 42.3364V42.3594V42.3825L48.7811 42.4286ZM63.7876 62.7204L59.8397 69.4536C59.8397 69.4536 63.4874 67.7933 64.9188 65.6719C66.0731 63.8503 63.7876 62.7204 63.7876 62.7204ZM61.1557 93.919C61.6405 93.4809 62.1253 93.0427 62.5639 92.6738C63.3489 92.0282 64.1108 91.59 64.8034 91.2211C66.0501 90.5293 66.9735 90.022 66.9735 88.7538C67.0197 86.1712 65.2882 85.687 63.9953 85.6639C64.0184 85.6639 64.0415 85.6639 64.0646 85.6409C63.372 85.8023 62.8179 86.0329 62.8179 86.0329C62.8179 86.0329 65.0112 85.6639 65.8423 87.2319C66.6734 88.823 66.0039 89.7223 64.6418 90.6446C63.9492 91.0827 62.4716 92.5124 61.1557 93.919ZM68.3357 70.5834C67.9894 70.8832 66.8119 73.8809 65.7268 76.8093C64.434 77.5011 59.8628 79.9223 59.4703 80.199C59.0086 80.4987 57.4156 83.6809 56.2151 87.0013C55.5686 85.0183 54.2065 83.75 53.9757 83.5425C53.9526 83.5194 53.9526 83.5194 53.9526 83.5194C53.9526 83.5656 53.9757 83.6578 54.0218 83.8192C54.345 85.1566 55.5686 90.3679 55.0838 92.0743C54.5528 94.0343 51.2283 95.7867 51.2283 95.7867L56.2382 96.8936C55.2454 97.7698 54.5297 98.0465 53.9526 98.0465C52.6597 97.8159 51.1591 97.447 50.0971 97.055C49.3352 96.0634 48.204 92.8121 47.9038 91.4517C48.0654 90.8983 48.5733 89.9298 49.0351 89.0997C49.2198 88.7769 49.3814 88.454 49.4968 88.2004L49.6122 87.9698C50.4434 86.3787 50.9282 85.4333 51.0667 84.5801C51.3668 83.2889 52.3596 75.3566 52.729 72.0131C53.7217 73.3044 55.0838 75.4258 54.7837 76.7863C56.9769 73.6733 55.384 70.6526 54.6221 69.4536C53.9295 68.2545 53.0291 65.8103 53.791 63.2507C54.5528 60.6681 57.2771 53.566 57.2771 53.566C57.2771 53.566 58.1775 55.1571 59.4703 54.8573C60.7632 54.5576 71.1292 38.9698 71.1292 38.9698C71.1292 38.9698 73.9227 45.1034 70.9675 49.5538C67.9432 54.0272 64.9881 54.8573 64.9881 54.8573C64.9881 54.8573 65.2882 54.9034 65.7961 54.9265C67.2737 55.2493 70.3904 55.7336 73.8534 54.8112C75.1001 57.8089 76.1159 60.4606 76.1852 60.8987C76.139 60.991 76.0236 61.2677 75.862 61.6827C75.0077 63.6889 72.8838 68.7618 72.6298 69.1538C72.4682 69.3152 71.4293 69.615 70.6674 69.7533C69.3976 70.1223 68.6358 70.3529 68.3357 70.5834ZM70.3904 43.4893C70.3904 43.4893 71.083 46.51 69.3284 48.5623C67.1351 51.0526 65.242 50.9834 65.3113 50.9834L70.3904 43.4893ZM52.8906 86.471L52.2903 89.4917C52.2903 89.4917 53.4908 89.3303 53.4908 90.6907C53.4908 91.7514 52.2903 93.1811 51.2976 93.2733C50.3049 93.3425 49.9355 92.1434 50.1663 91.4517C50.3972 90.8521 52.8906 86.471 52.8906 86.471ZM64.4802 61.1985C67.1351 61.7289 67.897 64.8418 66.4425 66.502C65.0112 68.0931 61.3634 70.3529 59.2395 70.8832C58.7777 72.6126 54.9222 71.8747 56.3536 66.3406C56.3536 66.3406 57.0462 68.9924 57.7157 68.7618C58.4083 68.5312 66.1193 56.4253 66.1193 56.4253C66.1193 56.4253 65.1497 59.6074 64.4802 61.1985ZM61.779 89.3764C61.7328 90.1143 61.6636 91.3133 61.1326 92.0743C61.1787 92.0281 61.3403 91.8437 61.5712 91.6362C61.9637 91.2211 62.5409 90.6216 62.8872 90.2757C63.118 90.0682 63.3951 89.9067 63.649 89.7453C64.2031 89.3994 64.711 89.0766 64.711 88.3849C64.711 87.3241 63.2796 87.0936 62.6563 87.255C62.056 87.4164 61.8944 88.3849 61.8252 88.9152C61.8021 89.0074 61.8021 89.1689 61.779 89.3764ZM96.9864 92.3049C95.3241 98.2771 91.5379 103.581 86.5973 107.362C87.2207 107.063 87.8209 106.763 88.4212 106.417C92.7384 102.727 95.9706 97.839 97.5174 92.374C97.5866 92.1896 98.0022 91.9359 98.3947 91.6823C98.5101 91.6131 98.6255 91.5439 98.7179 91.4747C98.741 91.4517 98.7641 91.4517 98.7872 91.4286L98.8333 91.4056C98.8564 91.3825 98.8795 91.3825 98.9026 91.3594L98.9719 91.3133C99.6414 90.9213 100.242 90.5754 100.38 90.022C100.68 88.2926 100.842 86.471 100.842 84.6493C100.842 83.9576 100.149 83.2889 99.4798 82.5971C98.9488 82.1359 98.4178 81.6056 98.4178 81.2366C97.7713 75.4258 95.4165 69.9609 91.6533 65.5566C91.6764 65.7411 91.7226 65.9025 91.7457 66.087C95.1625 70.399 97.3558 75.6103 97.956 81.1444C97.956 81.4211 98.3023 81.79 98.6256 82.159C98.741 82.2743 98.8564 82.3896 98.9488 82.5049C99.6414 83.1966 100.311 83.8653 100.311 84.5571C100.311 86.3787 100.149 88.2004 99.8491 89.9298C99.6875 90.5293 98.9488 90.9905 98.1869 91.3594C98.0945 91.4286 97.9791 91.4978 97.8637 91.567C97.4481 91.8437 97.0326 92.1204 96.9864 92.3049ZM84.0116 54.1656C84.9351 54.5576 100.68 62.4206 103.405 77.847C103.982 81.2136 103.866 84.511 103.127 87.67C103.843 85.0413 104.236 82.2743 104.236 79.438C104.236 65.303 94.7239 53.3585 81.7722 49.646C80.0407 51.7213 78.1245 53.0818 76.2544 53.935C77.5473 57.1401 79.0941 61.0601 79.0941 61.3369C79.0941 61.798 77.6627 65.4874 77.5011 65.6489C77.3395 65.718 75.608 65.8794 74.9154 65.8794C74.1535 67.7011 73.3917 69.4305 73.2531 69.6611C73.0223 69.9609 72.3528 70.1914 70.8983 70.5604C70.7367 70.6065 70.5751 70.6526 70.3904 70.6987C69.6978 70.9063 68.959 71.1138 68.8436 71.2291C68.4742 71.6903 66.4194 77.063 65.0573 80.8446C65.2651 80.8216 65.4729 80.7754 65.6576 80.7754L69.1437 72.2206C69.1437 72.2206 72.6991 70.4912 75.354 70.4912C80.1561 70.422 87.1976 64.6112 84.0116 54.1656ZM52.4288 58.3161C52.9598 57.3246 52.4981 56.6559 52.0595 56.2639L51.8978 56.1025C50.9975 55.6413 45.3181 53.5199 39.708 51.5599C44.6255 54.8112 50.0971 57.9933 50.9975 58.4545C51.667 58.7773 52.1287 58.8465 52.4288 58.3161Z" fill="#868490"/>
</svg>
