<svg width="180" height="100" viewBox="0 0 180 100" fill="none" xmlns="http://www.w3.org/2000/svg">
<path d="M40.1542 53.4029C45.5301 54.4031 49.2057 56.3534 49.2057 58.6038C49.2057 61.8543 41.5544 64.5047 32.1028 64.5047C22.6513 64.5047 15 61.8793 15 58.6038C15 56.3534 18.6506 54.4031 24.0515 53.4029C26.4019 54.003 29.1524 54.3531 32.1028 54.3531C35.0533 54.3531 37.8038 54.028 40.1542 53.4029ZM38.1038 43.8763C42.6796 44.6264 45.8301 46.2267 45.8301 48.102C45.8301 50.6774 39.6791 52.7778 32.1028 52.7778C24.5266 52.7778 18.3756 50.6774 18.3756 48.077C18.3756 46.2267 21.5261 44.6264 26.1019 43.8513C27.8521 44.3014 29.9025 44.5514 32.1028 44.5514C34.2782 44.5764 36.3286 44.3014 38.1038 43.8763ZM32.1529 36C37.8288 36 42.4296 37.6003 42.4296 39.5506C42.4296 41.5009 37.8288 43.1012 32.1529 43.1012C26.4769 43.1012 21.8761 41.5009 21.8761 39.5506C21.8761 37.6003 26.4769 36 32.1529 36ZM71.0093 59.5039C72.4346 59.5039 73.6348 59.2789 74.5599 58.8538C75.5101 58.4037 76.2102 57.8036 76.6853 57.0285C77.1604 56.2534 77.4104 55.3532 77.3854 54.4281C77.3854 53.4779 77.1854 52.6778 76.8103 52.0027C76.4352 51.3526 75.9352 50.8275 75.3101 50.4524C74.735 50.1023 74.0848 49.8773 73.4097 49.8523V49.6773C73.9848 49.5523 74.5599 49.3022 75.06 48.9522C75.5601 48.6271 75.9352 48.177 76.2352 47.6519C76.5353 47.1269 76.6603 46.4767 76.6603 45.7016C76.6603 44.7765 76.4352 43.9513 75.9852 43.2262C75.5351 42.5011 74.86 41.926 73.9598 41.5009C73.0597 41.0758 71.9345 40.8758 70.5843 40.8758H63.4331V59.5289H71.0093V59.5039ZM70.1842 48.7771H66.8336V43.6263H70.2592C71.2594 43.6263 72.0095 43.8763 72.5096 44.3264C73.0097 44.8015 73.2847 45.3766 73.2847 46.1017C73.2847 46.6518 73.1347 47.1269 72.8846 47.5269C72.6096 47.927 72.2345 48.227 71.7845 48.4521C71.2594 48.6771 70.7343 48.7771 70.1842 48.7771ZM70.4842 56.6784H66.8586V51.2025H70.5843C71.2844 51.2025 71.8845 51.3276 72.3846 51.6026C72.8846 51.8526 73.2847 52.2027 73.5598 52.6528C73.8348 53.1029 73.9848 53.6029 73.9848 54.153C73.9848 54.9032 73.7098 55.5032 73.1597 55.9783C72.5846 56.4534 71.7094 56.6784 70.4842 56.6784ZM83.5114 59.779C84.2365 59.779 84.8616 59.6789 85.4117 59.4789C85.9618 59.2789 86.4119 59.0038 86.762 58.6788C87.137 58.3537 87.4121 57.9787 87.6121 57.5786H87.7121V59.5039H90.8876V50.1524C90.8876 49.2272 90.7126 48.4521 90.3876 47.827C90.0625 47.2269 89.6124 46.7268 89.0623 46.3517C88.4873 45.9767 87.8871 45.7266 87.237 45.5766C86.5869 45.4016 85.9118 45.3516 85.2367 45.3516C84.2615 45.3516 83.3614 45.5016 82.5613 45.7766C81.7861 46.0517 81.086 46.5017 80.5109 47.0768C79.9358 47.6769 79.5358 48.4271 79.3107 49.2272L82.3862 49.6773C82.5363 49.2022 82.8613 48.7771 83.3364 48.4271C83.8115 48.077 84.4366 47.902 85.2617 47.902C86.0368 47.902 86.6119 48.077 87.012 48.4771C87.4121 48.8521 87.6371 49.3772 87.6371 50.0773V50.1274C87.6371 50.4274 87.5121 50.6774 87.287 50.8275C87.062 50.9775 86.6869 51.0775 86.1619 51.1525C85.6368 51.2275 84.9867 51.3025 84.1615 51.3776C83.5114 51.4526 82.8363 51.5526 82.1862 51.7276C81.5861 51.8776 81.011 52.1027 80.4609 52.4277C79.9608 52.7278 79.5608 53.1529 79.2607 53.6779C78.9607 54.203 78.8106 54.8531 78.8106 55.6283C78.8106 56.5534 79.0107 57.3286 79.4357 57.9537C79.8358 58.5788 80.4109 59.0538 81.111 59.3789C81.8111 59.6289 82.6113 59.779 83.5114 59.779ZM84.3616 57.3536C83.6614 57.3536 83.1114 57.2035 82.6613 56.8785C82.2112 56.5784 81.9862 56.1033 81.9862 55.5033C81.9862 55.0782 82.0862 54.7281 82.3362 54.4531C82.5613 54.178 82.8613 53.978 83.2364 53.828C83.6614 53.6529 84.1115 53.5529 84.5616 53.5029L85.3367 53.4029C85.6368 53.3779 85.9368 53.3029 86.2369 53.2529C86.5369 53.2029 86.812 53.1279 87.062 53.0528C87.312 52.9778 87.4871 52.9028 87.5871 52.8028V54.4531C87.5871 54.9782 87.4621 55.4532 87.187 55.8783C86.912 56.3284 86.5369 56.6784 86.0618 56.9285C85.5868 57.2285 85.0117 57.3536 84.3616 57.3536ZM96.7886 59.5039V40.8508H93.4881V59.5039H96.7886ZM103.49 59.779C104.215 59.779 104.865 59.6789 105.39 59.4789C105.94 59.2789 106.39 59.0038 106.74 58.6788C107.115 58.3537 107.39 57.9787 107.59 57.5786H107.69V59.5039H110.891V50.1524C110.891 49.2272 110.716 48.4521 110.391 47.827C110.066 47.2269 109.616 46.7268 109.066 46.3517C108.491 45.9767 107.89 45.7266 107.24 45.5766C106.59 45.4016 105.915 45.3516 105.24 45.3516C104.265 45.3516 103.365 45.5016 102.565 45.7766C101.789 46.0517 101.089 46.5017 100.514 47.0768C99.9392 47.6769 99.5141 48.4271 99.314 49.2272L102.39 49.6773C102.565 49.2022 102.865 48.7771 103.34 48.4271C103.815 48.077 104.44 47.902 105.265 47.902C106.04 47.902 106.615 48.077 107.015 48.4771C107.415 48.8521 107.615 49.3772 107.615 50.0773V50.1274C107.615 50.4274 107.49 50.6774 107.265 50.8275C107.04 50.9775 106.665 51.0775 106.14 51.1525C105.64 51.2275 104.965 51.3025 104.14 51.3776C103.465 51.4526 102.815 51.5526 102.165 51.7276C101.564 51.8776 100.989 52.1027 100.464 52.4277C99.9642 52.7278 99.5391 53.1529 99.264 53.6779C98.964 54.203 98.839 54.8531 98.839 55.6283C98.839 56.5534 99.039 57.3286 99.4641 57.9537C99.8641 58.5788 100.439 59.0538 101.139 59.3789C101.814 59.6289 102.615 59.779 103.49 59.779ZM104.365 57.3536C103.69 57.3536 103.115 57.2035 102.665 56.8785C102.215 56.5784 102.014 56.1033 102.014 55.5033C102.014 55.0782 102.115 54.7281 102.34 54.4531C102.565 54.178 102.865 53.978 103.265 53.828C103.69 53.6529 104.14 53.5529 104.59 53.5029L105.365 53.4029C105.665 53.3779 105.965 53.3029 106.265 53.2529C106.565 53.2029 106.84 53.1279 107.09 53.0528C107.34 52.9778 107.515 52.9028 107.615 52.8028V54.4531C107.615 54.9782 107.49 55.4532 107.215 55.8783C106.94 56.3284 106.565 56.6784 106.09 56.9285C105.59 57.2285 105.015 57.3536 104.365 57.3536ZM116.792 59.5039V51.3026C116.792 50.6274 116.917 50.0523 117.192 49.5773C117.442 49.1022 117.792 48.7271 118.242 48.4771C118.717 48.227 119.242 48.102 119.767 48.102C120.618 48.102 121.293 48.3771 121.768 48.9022C122.243 49.4272 122.493 50.1524 122.493 51.1025V59.5039H125.793V50.6024C125.793 49.4772 125.593 48.5271 125.218 47.752C124.818 46.9768 124.268 46.3767 123.543 45.9517C122.818 45.5266 121.968 45.3266 121.018 45.3266C119.967 45.3266 119.092 45.5516 118.392 46.0267C117.692 46.4767 117.167 47.1269 116.842 47.902H116.667V45.5266H113.516V59.5289H116.792V59.5039ZM134.545 59.779C135.72 59.779 136.745 59.5539 137.595 59.1289C138.446 58.7288 139.146 58.1037 139.671 57.3286C140.171 56.5534 140.471 55.6783 140.546 54.7031H137.395C137.32 55.1532 137.12 55.6033 136.845 55.9783C136.595 56.3284 136.27 56.6034 135.87 56.7785C135.47 56.9535 135.045 57.0535 134.57 57.0535C133.87 57.0535 133.295 56.8785 132.77 56.5034C132.27 56.1284 131.869 55.6033 131.594 54.9282C131.319 54.253 131.169 53.4279 131.169 52.4777C131.169 51.5276 131.319 50.7275 131.594 50.0523C131.869 49.3772 132.27 48.8521 132.795 48.5021C133.295 48.127 133.895 47.952 134.57 47.952C135.37 47.952 135.995 48.177 136.47 48.6271C136.945 49.0772 137.245 49.6523 137.37 50.3274H140.521C140.446 49.3272 140.146 48.4271 139.621 47.6769C139.096 46.9268 138.371 46.3017 137.52 45.9267C136.645 45.5016 135.645 45.3016 134.495 45.3016C133.12 45.3016 131.944 45.6016 130.944 46.2267C129.944 46.8268 129.144 47.727 128.619 48.7771C128.069 49.8523 127.794 51.1275 127.794 52.5528C127.794 53.978 128.069 55.2282 128.594 56.3034C129.144 57.3786 129.894 58.2287 130.894 58.8538C131.944 59.4789 133.145 59.779 134.545 59.779ZM148.747 59.779C149.822 59.779 150.798 59.6039 151.648 59.2789C152.498 58.9538 153.173 58.4787 153.723 57.8786C154.273 57.2785 154.648 56.5534 154.823 55.7533L151.748 55.4032C151.598 55.8033 151.373 56.1284 151.098 56.4034C150.798 56.6784 150.473 56.8785 150.073 57.0035C149.647 57.1535 149.222 57.2285 148.772 57.2035C148.047 57.2035 147.422 57.0535 146.897 56.7535C146.347 56.4534 145.922 55.9783 145.647 55.4282C145.347 54.8531 145.197 54.153 145.197 53.3279V53.4029H154.948V52.4027C154.948 51.1775 154.773 50.1274 154.423 49.2272C154.073 48.3271 153.623 47.6019 153.023 47.0268C152.448 46.4517 151.748 46.0267 150.973 45.7516C150.198 45.4766 149.372 45.3266 148.522 45.3266C147.197 45.3266 146.022 45.6266 145.047 46.2517C144.046 46.8768 143.246 47.752 142.746 48.8021C142.196 49.8773 141.921 51.1525 141.921 52.6028C141.921 54.078 142.196 55.3282 142.746 56.4034C143.296 57.4786 144.072 58.3287 145.097 58.9038C146.122 59.4789 147.347 59.779 148.747 59.779ZM145.222 51.0775C145.247 50.5774 145.397 50.1024 145.647 49.6523C145.922 49.1272 146.322 48.7021 146.847 48.3771C147.372 48.052 147.997 47.877 148.622 47.902C149.247 47.902 149.797 48.052 150.273 48.3271C150.748 48.6271 151.123 49.0022 151.398 49.5022C151.673 50.0023 151.798 50.5524 151.798 51.2025H145.222V51.0775ZM160.349 59.5039V51.2775C160.349 50.6774 160.474 50.1524 160.749 49.7023C161.024 49.2522 161.399 48.8771 161.874 48.6271C162.375 48.3521 162.925 48.227 163.475 48.227C163.75 48.227 164.05 48.252 164.35 48.277C164.65 48.3271 164.875 48.3521 165 48.4021V45.3766C164.825 45.3516 164.625 45.3266 164.425 45.3016C164.225 45.2765 164.025 45.2765 163.8 45.2765C163 45.2765 162.275 45.5016 161.649 45.9267C161.024 46.3767 160.599 46.9768 160.324 47.802H160.174V45.4766H156.974V59.4789H160.349V59.5039Z" fill="white"/>
</svg>
