<svg width="300" height="150" viewBox="0 0 300 150" fill="none" xmlns="http://www.w3.org/2000/svg">
<path d="M63.6006 80.595C72.9188 82.3286 79.2899 85.7091 79.2899 89.6098C79.2899 95.2441 66.0277 99.8382 49.6449 99.8382C33.2622 99.8382 20 95.2874 20 89.6098C20 85.7091 26.3277 82.3286 35.6893 80.595C39.7633 81.6351 44.5308 82.2419 49.6449 82.2419C54.7591 82.2419 59.5266 81.6785 63.6006 80.595ZM60.0467 64.0822C67.978 65.3824 73.4389 68.1562 73.4389 71.4068C73.4389 75.8708 62.7771 79.5114 49.6449 79.5114C36.5128 79.5114 25.851 75.8708 25.851 71.3634C25.851 68.1562 31.3119 65.3824 39.2432 64.0389C42.277 64.819 45.831 65.2524 49.6449 65.2524C53.4156 65.2957 56.9695 64.819 60.0467 64.0822ZM49.7316 50.4299C59.5699 50.4299 67.5446 53.2037 67.5446 56.5843C67.5446 59.9649 59.5699 62.7386 49.7316 62.7386C39.8933 62.7386 31.9187 59.9649 31.9187 56.5843C31.9187 53.2037 39.8933 50.4299 49.7316 50.4299ZM117.083 91.1701C119.553 91.1701 121.634 90.78 123.237 90.0432C124.884 89.2631 126.098 88.2229 126.921 86.8793C127.745 85.5358 128.178 83.9755 128.135 82.3719C128.135 80.725 127.788 79.3381 127.138 78.1679C126.488 77.041 125.621 76.1309 124.537 75.4808C123.541 74.874 122.414 74.4839 121.244 74.4406V74.1372C122.24 73.9205 123.237 73.4871 124.104 72.8803C124.971 72.3169 125.621 71.5368 126.141 70.6266C126.661 69.7165 126.878 68.5896 126.878 67.2461C126.878 65.6425 126.488 64.2122 125.708 62.9553C124.927 61.6985 123.757 60.7016 122.197 59.9649C120.637 59.2281 118.686 58.8813 116.346 58.8813H103.951V91.2134H117.083V91.1701ZM115.653 72.577H109.845V63.6488H115.783C117.516 63.6488 118.816 64.0822 119.683 64.8623C120.55 65.6858 121.027 66.6826 121.027 67.9395C121.027 68.893 120.767 69.7165 120.333 70.4099C119.857 71.1034 119.207 71.6235 118.426 72.0135C117.516 72.4036 116.606 72.577 115.653 72.577ZM116.173 86.2726H109.888V76.781H116.346C117.56 76.781 118.6 76.9977 119.467 77.4744C120.333 77.9078 121.027 78.5146 121.504 79.2947C121.98 80.0749 122.24 80.9417 122.24 81.8952C122.24 83.1954 121.764 84.2356 120.81 85.059C119.813 85.8825 118.296 86.2726 116.173 86.2726ZM138.753 91.6468C140.01 91.6468 141.094 91.4734 142.047 91.1267C143 90.78 143.781 90.3032 144.387 89.7398C145.038 89.1764 145.514 88.5263 145.861 87.8328H146.034V91.1701H151.539V74.9607C151.539 73.3571 151.235 72.0135 150.672 70.93C150.108 69.8898 149.328 69.023 148.375 68.3729C147.378 67.7228 146.338 67.2894 145.211 67.0294C144.084 66.726 142.914 66.6393 141.744 66.6393C140.053 66.6393 138.493 66.8993 137.106 67.3761C135.763 67.8528 134.549 68.633 133.552 69.6298C132.555 70.67 131.862 71.9702 131.472 73.3571L136.803 74.1372C137.063 73.3137 137.626 72.577 138.45 71.9702C139.273 71.3634 140.357 71.06 141.787 71.06C143.131 71.06 144.127 71.3634 144.821 72.0569C145.514 72.707 145.904 73.6171 145.904 74.8307V74.9173C145.904 75.4374 145.688 75.8708 145.298 76.1309C144.907 76.3909 144.257 76.5643 143.347 76.6943C142.437 76.8243 141.31 76.9544 139.88 77.0844C138.753 77.2144 137.583 77.3878 136.456 77.6911C135.416 77.9512 134.419 78.3413 133.466 78.9047C132.599 79.4248 131.905 80.1616 131.385 81.0717C130.865 81.9819 130.605 83.1087 130.605 84.4523C130.605 86.0559 130.952 87.3994 131.689 88.4829C132.382 89.5664 133.379 90.3899 134.592 90.9534C135.806 91.3868 137.193 91.6468 138.753 91.6468ZM140.227 87.4428C139.013 87.4428 138.06 87.1827 137.28 86.6193C136.499 86.0992 136.109 85.2757 136.109 84.2356C136.109 83.4988 136.283 82.892 136.716 82.4153C137.106 81.9385 137.626 81.5918 138.276 81.3317C139.013 81.0284 139.793 80.855 140.573 80.7683L141.917 80.595C142.437 80.5516 142.957 80.4216 143.477 80.3349C143.997 80.2482 144.474 80.1182 144.907 79.9882C145.341 79.8582 145.644 79.7282 145.818 79.5548V82.4153C145.818 83.3254 145.601 84.1489 145.124 84.8857C144.647 85.6658 143.997 86.2726 143.174 86.706C142.35 87.2261 141.354 87.4428 140.227 87.4428ZM161.767 91.1701V58.838H156.046V91.1701H161.767ZM173.382 91.6468C174.639 91.6468 175.766 91.4734 176.676 91.1267C177.63 90.78 178.41 90.3032 179.016 89.7398C179.667 89.1764 180.143 88.5263 180.49 87.8328H180.663V91.1701H186.211V74.9607C186.211 73.3571 185.908 72.0135 185.344 70.93C184.781 69.8898 184.001 69.023 183.047 68.3729C182.05 67.7228 181.01 67.2894 179.883 67.0294C178.756 66.726 177.586 66.6393 176.416 66.6393C174.726 66.6393 173.166 66.8993 171.779 67.3761C170.435 67.8528 169.222 68.633 168.225 69.6298C167.228 70.67 166.491 71.9702 166.144 73.3571L171.475 74.1372C171.779 73.3137 172.299 72.577 173.122 71.9702C173.946 71.3634 175.029 71.06 176.459 71.06C177.803 71.06 178.8 71.3634 179.493 72.0569C180.187 72.707 180.533 73.6171 180.533 74.8307V74.9173C180.533 75.4374 180.317 75.8708 179.927 76.1309C179.537 76.3909 178.886 76.5643 177.976 76.6943C177.11 76.8243 175.939 76.9544 174.509 77.0844C173.339 77.2144 172.212 77.3878 171.085 77.6911C170.045 77.9512 169.048 78.3413 168.138 78.9047C167.271 79.4248 166.534 80.1616 166.058 81.0717C165.538 81.9819 165.321 83.1087 165.321 84.4523C165.321 86.0559 165.668 87.3994 166.404 88.4829C167.098 89.5664 168.095 90.3899 169.308 90.9534C170.478 91.3868 171.865 91.6468 173.382 91.6468ZM174.899 87.4428C173.729 87.4428 172.732 87.1827 171.952 86.6193C171.172 86.0992 170.825 85.2757 170.825 84.2356C170.825 83.4988 170.998 82.892 171.389 82.4153C171.779 81.9385 172.299 81.5918 172.992 81.3317C173.729 81.0284 174.509 80.855 175.289 80.7683L176.633 80.595C177.153 80.5516 177.673 80.4216 178.193 80.3349C178.713 80.2482 179.19 80.1182 179.623 79.9882C180.057 79.8582 180.36 79.7282 180.533 79.5548V82.4153C180.533 83.3254 180.317 84.1489 179.84 84.8857C179.363 85.6658 178.713 86.2726 177.89 86.706C177.023 87.2261 176.026 87.4428 174.899 87.4428ZM196.439 91.1701V76.9544C196.439 75.7842 196.656 74.7873 197.133 73.9638C197.566 73.1404 198.173 72.4903 198.953 72.0569C199.777 71.6235 200.687 71.4068 201.597 71.4068C203.071 71.4068 204.241 71.8835 205.064 72.7937C205.888 73.7038 206.321 74.9607 206.321 76.6076V91.1701H212.042V75.7408C212.042 73.7905 211.695 72.1435 211.045 70.8C210.352 69.4564 209.398 68.4163 208.141 67.6795C206.884 66.9427 205.411 66.596 203.764 66.596C201.944 66.596 200.427 66.986 199.213 67.8095C198 68.5896 197.09 69.7165 196.526 71.06H196.223V66.9427H190.762V91.2134H196.439V91.1701ZM227.211 91.6468C229.248 91.6468 231.025 91.2567 232.499 90.5199C233.972 89.8265 235.186 88.743 236.096 87.3994C236.963 86.0559 237.483 84.5389 237.613 82.8487H232.152C232.022 83.6288 231.675 84.4089 231.199 85.059C230.765 85.6658 230.202 86.1426 229.508 86.4459C228.815 86.7493 228.078 86.9227 227.255 86.9227C226.041 86.9227 225.044 86.6193 224.134 85.9692C223.267 85.3191 222.574 84.4089 222.097 83.2387C221.62 82.0685 221.36 80.6383 221.36 78.9914C221.36 77.3444 221.62 75.9575 222.097 74.7873C222.574 73.6171 223.267 72.707 224.177 72.1002C225.044 71.4501 226.084 71.1467 227.255 71.1467C228.641 71.1467 229.725 71.5368 230.548 72.3169C231.372 73.097 231.892 74.0939 232.109 75.2641H237.57C237.44 73.5304 236.919 71.9702 236.009 70.67C235.099 69.3698 233.842 68.2862 232.369 67.6361C230.852 66.8993 229.118 66.5526 227.125 66.5526C224.741 66.5526 222.704 67.0727 220.97 68.1562C219.237 69.1964 217.85 70.7567 216.939 72.577C215.986 74.4406 215.509 76.651 215.509 79.1214C215.509 81.5918 215.986 83.7588 216.896 85.6225C217.85 87.4861 219.15 88.9597 220.883 90.0432C222.704 91.1267 224.784 91.6468 227.211 91.6468ZM251.829 91.6468C253.692 91.6468 255.383 91.3434 256.856 90.78C258.33 90.2166 259.5 89.3931 260.453 88.3529C261.407 87.3127 262.057 86.0559 262.36 84.669L257.03 84.0622C256.769 84.7557 256.379 85.3191 255.903 85.7958C255.383 86.2726 254.819 86.6193 254.126 86.836C253.389 87.096 252.652 87.2261 251.872 87.1827C250.615 87.1827 249.532 86.9227 248.621 86.4026C247.668 85.8825 246.931 85.059 246.454 84.1055C245.934 83.1087 245.674 81.8952 245.674 80.4649V80.595H262.577V78.8613C262.577 76.7377 262.274 74.9173 261.667 73.3571C261.06 71.7968 260.28 70.54 259.24 69.5431C258.243 68.5463 257.029 67.8095 255.686 67.3327C254.342 66.856 252.912 66.596 251.439 66.596C249.142 66.596 247.104 67.116 245.414 68.1996C243.681 69.2831 242.294 70.8 241.427 72.6203C240.473 74.4839 239.997 76.6943 239.997 79.2081C239.997 81.7652 240.473 83.9322 241.427 85.7958C242.38 87.6595 243.724 89.133 245.501 90.1299C247.278 91.1267 249.402 91.6468 251.829 91.6468ZM245.718 76.5643C245.761 75.6975 246.021 74.874 246.454 74.0939C246.931 73.1837 247.625 72.4469 248.535 71.8835C249.445 71.3201 250.528 71.0167 251.612 71.06C252.695 71.06 253.649 71.3201 254.472 71.7968C255.296 72.3169 255.946 72.967 256.423 73.8338C256.899 74.7006 257.116 75.6541 257.116 76.781H245.718V76.5643ZM271.939 91.1701V76.911C271.939 75.8708 272.155 74.9607 272.632 74.1806C273.109 73.4004 273.759 72.7503 274.582 72.3169C275.449 71.8402 276.403 71.6235 277.356 71.6235C277.833 71.6235 278.353 71.6668 278.873 71.7101C279.393 71.7968 279.783 71.8402 280 71.9268V66.6826C279.697 66.6393 279.35 66.596 279.003 66.5526C278.656 66.5093 278.31 66.5093 277.92 66.5093C276.533 66.5093 275.276 66.8993 274.192 67.6361C273.109 68.4163 272.372 69.4564 271.895 70.8867H271.635V66.856H266.088V91.1267H271.939V91.1701Z" fill="#868490"/>
</svg>
