<svg width="300" height="150" viewBox="0 0 300 150" fill="none" xmlns="http://www.w3.org/2000/svg">
<path fill-rule="evenodd" clip-rule="evenodd" d="M32.5602 63.7223L45.1138 78.7916L48.2491 75.0243L59.6131 88.6561H57.1966L48.2615 77.9242V88.6561H19.957C21.0723 90.1308 22.3488 91.4816 23.7491 92.6837H55.821C61.1746 88.1356 64.5701 81.3569 64.5701 73.7851C64.5701 60.0913 53.4788 49 39.7851 49C26.0913 49 15 60.0913 15 73.7851C15 76.9575 15.5948 79.9813 16.6854 82.7696C17.2307 84.1824 17.9122 85.5208 18.693 86.7972H38.4467L43.9118 80.2416L32.5602 66.6222V82.7696L16.6854 82.7696L32.5602 63.7223ZM48.2491 58.914C51.6695 58.914 54.4454 61.6899 54.4454 65.1103C54.4454 68.5306 51.6695 71.3065 48.2491 71.3065C44.8288 71.3065 42.0529 68.5306 42.0529 65.1103C42.0529 61.6899 44.8288 58.914 48.2491 58.914ZM35.6583 57.5261C35.6583 55.8159 34.2704 54.4279 32.5602 54.4279C30.85 54.4279 29.4621 55.8159 29.4621 57.5261C29.4621 59.2362 30.85 60.6242 32.5602 60.6242C34.2704 60.6242 35.6583 59.2362 35.6583 57.5261Z" fill="#868490"/>
<path d="M26.24 94.5425C30.1313 97.083 34.7909 98.5701 39.7851 98.5701C44.7792 98.5701 49.4388 97.083 53.3301 94.5425H26.24Z" fill="#868490"/>
<path d="M77.5215 62.2048V85.4892H86.4932C93.4801 85.4892 97.5948 81.1486 97.5948 73.7583C97.5948 66.3679 93.4801 62.2048 86.4932 62.2048H77.5215ZM82.3946 66.2227H85.9123C90.2045 66.2227 92.6249 68.9013 92.6249 73.7744C92.6249 78.8089 90.269 81.4552 85.9123 81.4552H82.3946V66.2227Z" fill="#868490"/>
<path d="M108.103 70.9345C110.281 70.9345 111.798 72.4512 111.878 74.7748H104.214C104.375 72.4997 105.957 70.9345 108.103 70.9345ZM111.943 80.0675C111.491 81.4391 110.087 82.2781 108.312 82.2781C105.827 82.2781 104.165 80.5516 104.165 77.9859V77.6955H116.429V76.2432C116.429 70.8376 113.169 67.4168 108.054 67.4168C102.842 67.4168 99.5182 71.0313 99.5182 76.6789C99.5182 82.3265 102.826 85.7958 108.232 85.7958C112.556 85.7958 115.767 83.5045 116.284 80.0675H111.943Z" fill="#868490"/>
<path d="M134.811 74.2746C134.585 70.3213 131.535 67.4168 126.759 67.4168C121.483 67.4168 118.094 70.9667 118.094 76.5982C118.094 82.3104 121.483 85.7958 126.791 85.7958C131.455 85.7958 134.553 83.1656 134.827 79.0348H130.438C130.132 80.9872 128.825 82.0684 126.84 82.0684C124.403 82.0684 122.87 80.0675 122.87 76.5982C122.87 73.1935 124.403 71.1281 126.824 71.1281C128.873 71.1281 130.164 72.4351 130.422 74.2746H134.811Z" fill="#868490"/>
<path d="M144.899 70.9345C147.078 70.9345 148.595 72.4512 148.675 74.7748H141.011C141.172 72.4997 142.753 70.9345 144.899 70.9345ZM148.74 80.0675C148.288 81.4391 146.884 82.2781 145.109 82.2781C142.624 82.2781 140.962 80.5516 140.962 77.9859V77.6955H153.226V76.2432C153.226 70.8376 149.966 67.4168 144.851 67.4168C139.639 67.4168 136.315 71.0313 136.315 76.6789C136.315 82.3265 139.623 85.7958 145.028 85.7958C149.353 85.7958 152.564 83.5045 153.08 80.0675H148.74Z" fill="#868490"/>
<path d="M155.552 85.4892H160.264V75.3557C160.264 72.9999 161.62 71.3863 163.879 71.3863C166.105 71.3863 167.203 72.7256 167.203 75.0814V85.4892H171.914V74.0971C171.914 69.9501 169.688 67.4652 165.75 67.4652C163.023 67.4652 161.216 68.6593 160.2 70.9022H160.103V67.7234H155.552V85.4892Z" fill="#868490"/>
<path d="M176.097 63.77V67.7234H173.693V71.2894H176.097V80.6968C176.097 84.1661 177.711 85.5538 181.825 85.5538C182.777 85.5538 183.616 85.4569 184.1 85.3601V81.8747C183.81 81.9231 183.342 81.9554 182.923 81.9554C181.486 81.9554 180.809 81.2938 180.809 79.9223V71.2894H184.1V67.7234H180.809V63.77H176.097Z" fill="#868490"/>
<path d="M186.605 85.4892H191.317V75.5494C191.317 73.0644 192.72 71.5799 195.108 71.5799C195.802 71.5799 196.448 71.6928 196.851 71.8542V67.6911C196.512 67.5781 196.028 67.5136 195.48 67.5136C193.382 67.5136 191.849 68.7077 191.252 70.9022H191.155V67.7234H186.605V85.4892Z" fill="#868490"/>
<path d="M205.035 82.262C203.325 82.262 202.212 81.4391 202.212 80.132C202.212 78.825 203.26 78.0505 205.229 77.9214L208.956 77.6632V78.9702C208.956 80.9066 207.214 82.262 205.035 82.262ZM203.502 85.699C205.778 85.699 207.972 84.6017 208.94 82.7461H209.037V85.4892H213.588V73.3065C213.588 69.7565 210.602 67.4168 206.036 67.4168C201.598 67.4168 198.533 69.7565 198.403 73.1451H202.712C202.938 71.8542 204.132 70.9506 205.842 70.9506C207.779 70.9506 208.956 71.8865 208.956 73.5969V74.7748L204.519 75.0492C199.985 75.3235 197.516 77.1469 197.516 80.3741C197.516 83.5529 200.082 85.699 203.502 85.699Z" fill="#868490"/>
<path d="M216.689 85.4892H221.401V61.0914H216.689V85.4892Z" fill="#868490"/>
<path d="M231.311 82.262C229.601 82.262 228.488 81.4391 228.488 80.132C228.488 78.825 229.536 78.0505 231.505 77.9214L235.233 77.6632V78.9702C235.233 80.9066 233.49 82.262 231.311 82.262ZM229.779 85.699C232.054 85.699 234.248 84.6017 235.216 82.7461H235.313V85.4892H239.864V73.3065C239.864 69.7565 236.878 67.4168 232.312 67.4168C227.874 67.4168 224.809 69.7565 224.68 73.1451H228.988C229.214 71.8542 230.408 70.9506 232.118 70.9506C234.055 70.9506 235.233 71.8865 235.233 73.5969V74.7748L230.795 75.0492C226.261 75.3235 223.792 77.1469 223.792 80.3741C223.792 83.5529 226.358 85.699 229.779 85.699Z" fill="#868490"/>
<path d="M242.836 85.4892H247.548V75.3557C247.548 72.9999 248.903 71.3863 251.162 71.3863C253.389 71.3863 254.486 72.7256 254.486 75.0814V85.4892H259.198V74.0971C259.198 69.9501 256.971 67.4652 253.034 67.4652C250.307 67.4652 248.5 68.6593 247.483 70.9022H247.386V67.7234H242.836V85.4892Z" fill="#868490"/>
<path d="M268.738 85.699C271.352 85.699 273.401 84.4081 274.272 82.4556H274.353V85.4892H279V61.0914H274.288V70.757H274.192C273.304 68.7884 271.319 67.5136 268.754 67.5136C264.332 67.5136 261.46 71.0151 261.46 76.5821C261.46 82.1813 264.316 85.699 268.738 85.699ZM270.303 71.3217C272.739 71.3217 274.321 73.4033 274.321 76.6144C274.321 79.8254 272.739 81.8909 270.303 81.8909C267.85 81.8909 266.285 79.8577 266.285 76.5982C266.285 73.371 267.85 71.3217 270.303 71.3217Z" fill="#868490"/>
</svg>
