<svg width="180" height="100" viewBox="0 0 180 100" fill="none" xmlns="http://www.w3.org/2000/svg">
<path fill-rule="evenodd" clip-rule="evenodd" d="M24.9774 44.3649L32.1101 52.927L33.8915 50.7865L40.3483 58.5318H38.9753L33.8986 52.4341V58.5318H17.8165C18.4502 59.3697 19.1754 60.1372 19.9711 60.8202H38.1937C41.2355 58.2361 43.1648 54.3846 43.1648 50.0824C43.1648 42.3019 36.8629 36 29.0824 36C21.3019 36 15 42.3019 15 50.0824C15 51.8849 15.338 53.603 15.9576 55.1872C16.2674 55.9899 16.6547 56.7504 17.0983 57.4756H28.3219L31.4271 53.7508L24.9774 46.0126V55.1872H15.9576L24.9774 44.3649ZM33.8915 41.633C35.8349 41.633 37.4121 43.2102 37.4121 45.1535C37.4121 47.0969 35.8349 48.6741 33.8915 48.6741C31.9481 48.6741 30.3709 47.0969 30.3709 45.1535C30.3709 43.2102 31.9481 41.633 33.8915 41.633ZM26.7377 40.8443C26.7377 39.8727 25.9491 39.084 24.9774 39.084C24.0057 39.084 23.2171 39.8727 23.2171 40.8443C23.2171 41.816 24.0057 42.6046 24.9774 42.6046C25.9491 42.6046 26.7377 41.816 26.7377 40.8443Z" fill="white"/>
<path d="M21.3864 61.8764C23.5973 63.3198 26.2448 64.1648 29.0824 64.1648C31.92 64.1648 34.5675 63.3198 36.7784 61.8764H21.3864Z" fill="white"/>
<path d="M50.5234 43.5027V56.7324H55.621C59.5908 56.7324 61.9287 54.2662 61.9287 50.0671C61.9287 45.8681 59.5908 43.5027 55.621 43.5027H50.5234ZM53.2922 45.7855H55.2909C57.7297 45.7855 59.1049 47.3075 59.1049 50.0763C59.1049 52.9368 57.7663 54.4403 55.2909 54.4403H53.2922V45.7855Z" fill="white"/>
<path d="M67.899 48.4627C69.1368 48.4627 69.9986 49.3245 70.0444 50.6447H65.6895C65.7812 49.352 66.6797 48.4627 67.899 48.4627ZM70.0811 53.6519C69.8244 54.4312 69.0267 54.9079 68.0182 54.9079C66.6063 54.9079 65.662 53.9269 65.662 52.4692V52.3042H72.6298V51.479C72.6298 48.4077 70.7779 46.464 67.8715 46.464C64.9102 46.464 63.0216 48.5177 63.0216 51.7266C63.0216 54.9354 64.901 56.9066 67.9724 56.9066C70.4295 56.9066 72.2539 55.6047 72.5473 53.6519H70.0811Z" fill="white"/>
<path d="M83.0743 50.3605C82.9459 48.1143 81.2131 46.464 78.4993 46.464C75.5013 46.464 73.576 48.481 73.576 51.6807C73.576 54.9263 75.5013 56.9066 78.5177 56.9066C81.1673 56.9066 82.9276 55.4122 83.0835 53.0651H80.5897C80.4155 54.1745 79.6729 54.7887 78.5452 54.7887C77.1608 54.7887 76.2898 53.6519 76.2898 51.6807C76.2898 49.7462 77.1608 48.5727 78.536 48.5727C79.7004 48.5727 80.4338 49.3153 80.5805 50.3605H83.0743Z" fill="white"/>
<path d="M88.8063 48.4627C90.044 48.4627 90.9058 49.3245 90.9516 50.6447H86.5967C86.6884 49.352 87.5869 48.4627 88.8063 48.4627ZM90.9883 53.6519C90.7316 54.4312 89.9339 54.9079 88.9254 54.9079C87.5135 54.9079 86.5692 53.9269 86.5692 52.4692V52.3042H93.5371V51.479C93.5371 48.4077 91.6851 46.464 88.7787 46.464C85.8174 46.464 83.9288 48.5177 83.9288 51.7266C83.9288 54.9354 85.8082 56.9066 88.8796 56.9066C91.3367 56.9066 93.1612 55.6047 93.4545 53.6519H90.9883Z" fill="white"/>
<path d="M94.8591 56.7324H97.5362V50.9748C97.5362 49.6362 98.3064 48.7194 99.5899 48.7194C100.855 48.7194 101.479 49.4803 101.479 50.8189V56.7324H104.156V50.2596C104.156 47.9034 102.89 46.4915 100.653 46.4915C99.104 46.4915 98.0772 47.17 97.4996 48.4443H97.4445V46.6382H94.8591V56.7324Z" fill="white"/>
<path d="M106.532 44.392V46.6382H105.166V48.6644H106.532V54.0094C106.532 55.9806 107.449 56.7691 109.787 56.7691C110.328 56.7691 110.804 56.7141 111.08 56.6591V54.6787C110.914 54.7062 110.649 54.7246 110.41 54.7246C109.594 54.7246 109.209 54.3487 109.209 53.5694V48.6644H111.08V46.6382H109.209V44.392H106.532Z" fill="white"/>
<path d="M112.502 56.7324H115.18V51.0848C115.18 49.6729 115.977 48.8294 117.334 48.8294C117.728 48.8294 118.095 48.8936 118.324 48.9853V46.6199C118.132 46.5557 117.857 46.519 117.545 46.519C116.353 46.519 115.482 47.1975 115.143 48.4443H115.088V46.6382H112.502V56.7324Z" fill="white"/>
<path d="M122.974 54.8988C122.003 54.8988 121.37 54.4312 121.37 53.6886C121.37 52.9459 121.966 52.5059 123.084 52.4325L125.202 52.2858V53.0284C125.202 54.1286 124.212 54.8988 122.974 54.8988ZM122.103 56.8516C123.396 56.8516 124.643 56.2281 125.193 55.1738H125.248V56.7324H127.834V49.8104C127.834 47.7934 126.137 46.464 123.543 46.464C121.022 46.464 119.28 47.7934 119.206 49.7187H121.654C121.782 48.9853 122.461 48.4718 123.433 48.4718C124.533 48.4718 125.202 49.0036 125.202 49.9754V50.6447L122.681 50.8006C120.105 50.9564 118.702 51.9924 118.702 53.8261C118.702 55.6322 120.16 56.8516 122.103 56.8516Z" fill="white"/>
<path d="M129.596 56.7324H132.273V42.8701H129.596V56.7324Z" fill="white"/>
<path d="M137.904 54.8988C136.932 54.8988 136.299 54.4312 136.299 53.6886C136.299 52.9459 136.895 52.5059 138.014 52.4325L140.132 52.2858V53.0284C140.132 54.1286 139.142 54.8988 137.904 54.8988ZM137.033 56.8516C138.326 56.8516 139.573 56.2281 140.123 55.1738H140.178V56.7324H142.763V49.8104C142.763 47.7934 141.067 46.464 138.472 46.464C135.951 46.464 134.209 47.7934 134.136 49.7187H136.584C136.712 48.9853 137.39 48.4718 138.362 48.4718C139.462 48.4718 140.132 49.0036 140.132 49.9754V50.6447L137.611 50.8006C135.034 50.9564 133.632 51.9924 133.632 53.8261C133.632 55.6322 135.089 56.8516 137.033 56.8516Z" fill="white"/>
<path d="M144.452 56.7324H147.129V50.9748C147.129 49.6362 147.899 48.7194 149.183 48.7194C150.448 48.7194 151.071 49.4803 151.071 50.8189V56.7324H153.748V50.2596C153.748 47.9034 152.483 46.4915 150.246 46.4915C148.697 46.4915 147.67 47.17 147.092 48.4443H147.037V46.6382H144.452V56.7324Z" fill="white"/>
<path d="M159.169 56.8516C160.654 56.8516 161.818 56.1181 162.313 55.0088H162.359V56.7324H165V42.8701H162.323V48.3618H162.268C161.763 47.2433 160.636 46.519 159.178 46.519C156.666 46.519 155.034 48.5085 155.034 51.6715C155.034 54.8529 156.657 56.8516 159.169 56.8516ZM160.058 48.6827C161.442 48.6827 162.341 49.8654 162.341 51.6899C162.341 53.5144 161.442 54.6879 160.058 54.6879C158.664 54.6879 157.775 53.5327 157.775 51.6807C157.775 49.8471 158.664 48.6827 160.058 48.6827Z" fill="white"/>
</svg>
