<svg width="300" height="150" viewBox="0 0 300 150" fill="none" xmlns="http://www.w3.org/2000/svg">
<path fill-rule="evenodd" clip-rule="evenodd" d="M24.844 80.6456C22.1242 85.3833 19.4483 90.1649 16.7285 94.9026H65.5971C62.2632 89.0682 58.9731 83.2777 55.683 77.531L55.6392 77.4871C50.8137 69.0207 45.9883 60.5542 41.119 52C35.6794 61.6509 30.2398 71.1702 24.844 80.6456ZM48.3133 76.6537C50.6821 80.8211 53.0948 84.9885 55.4637 89.1998H26.8181C31.5997 80.8211 36.3374 72.5739 41.1628 64.0636C43.5317 68.3188 45.9444 72.4862 48.3133 76.6537Z" fill="#868490"/>
<path d="M232.733 64.6339C233.127 63.4056 233.522 62.1773 233.917 60.9051C233.566 60.9051 233.259 60.9051 232.952 60.9051C232.25 60.9051 231.636 60.949 230.978 60.8613C230.232 60.7736 229.969 61.0806 229.793 61.7825C228.302 66.6079 226.723 71.4334 225.1 76.215C224.617 77.531 224.091 78.847 223.476 80.2508C223.213 80.9088 222.906 81.5668 222.643 82.2687L222.16 81.2598C219.484 75.0744 217.247 68.7136 215.712 62.1773C215.712 62.0896 215.668 62.0457 215.668 61.958C215.536 61.3 215.405 60.6858 214.396 60.8613C214.133 60.9052 213.869 60.9051 213.606 60.9051C212.904 60.9051 212.202 60.8613 211.852 62.1335C210.535 66.3886 209.132 70.6438 207.684 74.8551C207.202 76.3466 206.675 77.7942 206.193 79.2857C205.973 79.9437 205.666 80.6017 205.315 81.3475C205.184 81.6107 205.052 81.8739 204.92 82.181C204.745 81.7862 204.569 81.4352 204.394 81.1282C204.131 80.6017 203.868 80.1192 203.692 79.5928C201.63 73.7145 199.612 67.7924 197.551 61.8702V61.8264C197.419 61.5193 197.068 60.9929 196.805 60.949C196.059 60.8613 195.313 60.8613 194.568 60.9051C194.261 60.9051 193.953 60.9051 193.603 60.9051C193.646 61.0806 193.646 61.2561 193.69 61.3877C193.734 61.5632 193.734 61.7386 193.778 61.8702C195.884 69.4594 198.516 76.7853 201.937 83.8918C202.727 85.5149 203.56 86.2168 205.315 85.9975C206.193 85.8659 206.675 85.6904 207.026 84.813C208.079 82.1371 209.132 79.5051 210.185 76.873C210.93 74.9867 211.676 73.1004 212.422 71.2579C212.729 70.4244 212.992 69.6348 213.255 68.8891C213.343 68.582 213.475 68.2749 213.562 68.0117C215.8 73.4952 218.081 79.1102 220.318 84.7253C220.669 85.6465 221.195 86.1291 222.204 85.9536C222.511 85.9097 222.862 85.9097 223.169 85.9536C224.003 86.1291 224.442 85.7343 224.749 84.9885C225.407 83.4532 226.065 81.9178 226.767 80.3824C227.863 77.9258 228.96 75.4692 229.925 72.9688C230.978 70.249 231.855 67.4853 232.733 64.6339Z" fill="#868490"/>
<path fill-rule="evenodd" clip-rule="evenodd" d="M266.468 84.8568V94.8587H262.827C262.827 94.6832 262.827 94.4639 262.827 94.2445C262.827 94.0252 262.827 93.8059 262.827 93.5865V63.0107C262.827 62.923 262.827 62.7914 262.783 62.7037C262.739 62.265 262.695 61.8263 263.397 61.6508C268.31 60.4664 273.224 59.7645 278.137 61.1683C283.62 62.7037 287.086 67.3098 286.998 73.0564C286.998 74.8989 286.779 76.7852 286.252 78.5399C284.805 83.2337 280.418 86.4361 275.505 86.5238C273.969 86.5238 272.39 86.5238 270.855 86.2606C269.89 86.0851 268.924 85.7342 267.916 85.3833C267.477 85.2078 266.994 84.9885 266.468 84.8568ZM266.468 75.2937C266.468 77.0045 266.468 78.7154 266.468 80.4262C266.468 81.2158 266.687 81.6106 267.389 81.9616C270.109 83.3653 273.004 83.8918 275.943 83.4969C279.453 82.9705 281.909 81.0404 282.743 77.4432C283.138 75.7762 283.225 74.1093 283.225 72.3984C283.181 68.1871 280.637 64.9848 276.645 63.8881C273.794 63.0985 270.942 63.4055 268.047 63.7565C266.731 63.932 266.468 64.4145 266.556 65.6428C266.556 66.564 266.556 67.5291 266.512 68.4503C266.512 69.8541 266.468 71.2579 266.512 72.7055C266.468 73.5829 266.468 74.4163 266.468 75.2937Z" fill="#868490"/>
<path fill-rule="evenodd" clip-rule="evenodd" d="M80.0737 94.9028V84.6816L80.2931 84.7694C80.6879 84.9448 80.9072 85.0326 81.0827 85.1642C85.6011 87.0944 90.1194 87.2698 94.5501 84.9887C98.4104 82.9708 100.165 79.5052 100.604 75.2501C101.306 68.9331 98.3666 63.0548 91.7864 61.1685C86.8294 59.7209 81.96 60.4228 77.0469 61.6072C76.345 61.7827 76.345 62.2214 76.3888 62.66C76.3888 62.7478 76.3888 62.8355 76.3888 62.9232V93.6306C76.3888 94.0254 76.4327 94.4203 76.4766 94.8151H80.0737V94.9028ZM80.0737 74.8991C80.0737 74.1973 80.0737 73.4954 80.0737 72.7935C80.0737 71.96 80.0737 71.0826 80.0737 70.2492C80.0737 68.5383 80.0737 66.7836 80.0737 65.0728C80.0737 64.2393 80.3369 63.9322 81.1704 63.8006C83.978 63.3181 86.8294 63.011 89.6808 63.669C95.252 65.0289 97.226 69.4157 96.8312 74.7675C96.7435 75.601 96.6118 76.4345 96.3925 77.2241C95.5152 80.9967 92.5322 83.3656 88.7595 83.5411C86.1713 83.6727 83.7586 83.234 81.3898 82.1812C80.4685 81.7864 80.0299 81.2599 80.0737 80.1194C80.1176 78.4085 80.0737 76.6538 80.0737 74.8991Z" fill="#868490"/>
<path d="M151.095 64.1954C150.963 64.0199 150.919 63.9322 150.919 63.8445C150.437 61.3879 150.393 61.2124 152.85 60.9053C155.394 60.5983 158.026 60.2912 160.526 60.5983C165.791 61.2124 168.291 64.1954 168.423 69.635C168.51 72.618 168.467 75.601 168.467 78.584C168.467 80.5581 168.467 82.576 168.467 84.55C168.467 85.2958 168.203 85.5151 167.501 85.6467C163.202 86.3925 158.947 86.9189 154.604 86.3047C149.384 85.6029 146.401 81.4793 147.673 76.6977C148.156 75.0307 149.165 73.7586 150.656 72.9251C153.859 71.0826 157.368 70.8633 161.053 71.0388V73.8463C160.746 73.8463 160.395 73.8463 160.088 73.8463C159.254 73.8463 158.465 73.8024 157.631 73.8902C156.491 74.0218 155.262 74.1972 154.21 74.5921C152.104 75.3378 151.139 76.7416 151.183 78.8911C151.227 81.0845 152.235 82.7076 154.473 83.0585C156.491 83.4095 158.596 83.4095 160.702 83.4533C161.36 83.4533 161.974 83.4533 162.632 83.4972C163.027 83.5411 163.466 83.4533 163.86 83.3656C164.08 83.3217 164.343 83.2779 164.562 83.234C164.562 83.1463 164.606 83.1024 164.606 83.0147C164.65 82.9269 164.65 82.8392 164.65 82.7515C164.65 81.8302 164.65 80.909 164.65 79.9439C164.65 76.2152 164.65 72.4425 164.562 68.6699C164.475 65.5553 162.413 63.5374 159.342 63.3619C156.798 63.1865 154.297 63.1865 151.841 64.0638C151.709 64.0638 151.577 64.1077 151.446 64.1077C151.402 64.1515 151.27 64.1515 151.095 64.1954Z" fill="#868490"/>
<path d="M240.498 60.9928C240.015 61.0805 239.489 61.2122 239.006 61.2999C239.05 61.6947 239.138 62.0018 239.182 62.3527C239.314 62.9669 239.401 63.4933 239.401 63.8881L240.103 63.8003C241.989 63.5371 243.832 63.3178 245.631 63.1862C250.675 62.7475 253.088 65.0286 253.088 70.1173V83.4531C252.298 83.4531 251.553 83.4531 250.807 83.4531C248.964 83.4531 247.21 83.4969 245.455 83.4092C244.314 83.3215 243.042 82.9705 241.946 82.5319C240.454 81.9616 239.796 80.6455 239.621 79.0224C239.445 77.3116 239.972 75.7762 241.507 75.0305C242.867 74.4163 244.314 73.9777 245.806 73.7144C246.639 73.5828 247.473 73.6267 248.394 73.6267C248.789 73.6267 249.184 73.6706 249.622 73.6706V71.0385C247.868 70.4682 243.218 70.9069 240.893 71.8281C237.515 73.1442 235.804 75.513 235.892 78.7154C236.023 82.2686 237.778 84.5936 241.288 85.6465C245.981 87.0502 250.631 86.3483 255.281 85.6026C255.764 85.5149 256.247 85.471 256.685 85.3833C256.817 85.2078 256.861 85.12 256.861 85.0323C256.861 83.3215 256.861 81.6106 256.905 79.8998C256.948 76.0394 256.948 72.1352 256.817 68.2749C256.641 64.7216 254.755 62.1334 251.289 60.9489C248.657 60.0716 245.981 60.2471 243.306 60.4664C242.384 60.598 241.463 60.8173 240.498 60.9928Z" fill="#868490"/>
<path d="M125.52 85.4272C120.87 86.3045 116.351 86.9625 111.789 86.2606C109.464 85.9097 107.402 85.0762 105.867 83.0583C103.63 80.0314 104.2 75.3376 107.271 73.1881C110.605 70.9069 114.377 70.8192 118.238 70.9508V73.6267C117.623 73.6706 117.053 73.7145 116.439 73.7584C115.211 73.8461 114.026 73.9338 112.798 74.1093C111.877 74.2848 110.912 74.6796 110.078 75.1621C107.358 77.0046 107.666 81.172 110.561 82.6196C111.482 83.1022 112.579 83.3654 113.632 83.497C114.772 83.6286 115.957 83.5847 117.097 83.5408C117.273 83.5408 117.492 83.5408 117.667 83.5408C118.589 83.497 119.51 83.4531 120.431 83.3654C120.87 83.3215 121.352 83.2776 121.835 83.2338V70.2928C121.835 65.2042 119.422 62.9669 114.421 63.3178C112.666 63.4494 110.912 63.6688 109.069 63.8881C108.762 63.932 108.455 63.9759 108.148 64.0197C108.06 63.6249 107.973 63.0985 107.841 62.5282C107.753 62.1773 107.709 61.7825 107.622 61.3438C108.06 61.2561 108.499 61.1683 108.938 61.0367C110.034 60.7735 111.131 60.5542 112.228 60.5103C114.465 60.4226 116.746 60.3787 118.94 60.7735C122.756 61.4754 125.213 64.0636 125.388 68.1433C125.564 72.1791 125.52 76.2149 125.52 80.2946C125.52 82.0055 125.52 83.7163 125.52 85.4272Z" fill="#868490"/>
<path d="M35.1532 52.1754H13C14.8424 55.4655 16.6849 58.6678 18.5273 61.914C20.3698 65.1603 22.2122 68.3626 24.0547 71.6527C26.7745 66.915 29.4065 62.265 32.0386 57.615C33.0914 55.7726 34.1442 53.974 35.1532 52.1754Z" fill="#868490"/>
<path d="M173.994 60.8174C174.345 60.8174 174.652 60.8174 174.96 60.8174C175.705 60.8174 176.407 60.7735 177.065 60.8612C177.328 60.9051 177.723 61.4315 177.723 61.7386C177.811 63.3617 177.811 64.9409 177.723 66.564C177.592 68.4065 178.513 69.5909 180.048 70.2928C181.145 70.7753 182.285 71.214 183.426 71.6527C184.479 72.0475 185.575 72.4862 186.628 72.9248C187.857 73.4513 189.129 73.9777 190.225 74.7673C194.086 77.6187 193.516 83.1899 189.173 85.1639C187.813 85.7781 186.321 86.1729 184.83 86.3484C181.057 86.7432 177.241 86.787 173.6 85.0762C173.775 84.5059 173.951 83.9356 174.126 83.4531C174.214 83.146 174.301 82.8389 174.389 82.5757C175.179 82.7073 175.925 82.8389 176.67 82.9705C178.206 83.2338 179.741 83.5408 181.276 83.5847C182.987 83.6724 184.742 83.3654 186.453 82.9705C187.725 82.7073 188.734 81.83 188.866 80.3385C189.041 78.6715 188.558 77.3116 187.023 76.6536C185.619 76.0395 184.216 75.4692 182.812 74.8989C181.978 74.548 181.145 74.2409 180.311 73.8899C180.048 73.7583 179.785 73.6706 179.566 73.5829C179.478 73.539 179.39 73.539 179.302 73.4951C174.96 71.6965 173.951 70.1612 173.907 65.4235V60.8174H173.994Z" fill="#868490"/>
<path d="M144.032 63.6249C144.646 63.6687 145.26 63.7126 145.918 63.7126C145.962 63.4055 146.05 63.0985 146.138 62.7914C146.269 62.3089 146.401 61.8263 146.489 61.256C146.269 61.2122 146.094 61.1244 145.918 61.0806C145.743 61.0367 145.567 60.9928 145.436 60.9489C141.049 60.0277 136.662 60.4664 132.363 61.7386C131.442 61.9579 131.223 62.4405 131.223 63.4055C131.267 70.556 131.267 77.6625 131.267 84.813C131.267 85.2516 131.31 85.6465 131.354 86.0413H135.039V84.462C135.039 82.3125 135.039 80.2069 135.039 78.0573C135.039 73.8022 135.039 69.547 135.039 65.2918C135.039 64.3706 135.215 63.8881 136.18 63.8003C136.662 63.7565 137.145 63.6687 137.627 63.6249C138.241 63.5371 138.856 63.4055 139.47 63.4055C140.961 63.4055 142.453 63.4933 144.032 63.6249Z" fill="#868490"/>
</svg>
