<svg width="180" height="100" viewBox="0 0 180 100" fill="none" xmlns="http://www.w3.org/2000/svg">
<path fill-rule="evenodd" clip-rule="evenodd" d="M21.4858 53.6819C19.9968 56.2756 18.5319 58.8932 17.043 61.4869H43.7959C41.9708 58.2929 40.1696 55.1229 38.3685 51.9769L38.3445 51.9528C35.7028 47.3179 33.0611 42.683 30.3954 38C27.4175 43.2833 24.4397 48.4947 21.4858 53.6819ZM34.3339 51.4966C35.6308 53.778 36.9516 56.0594 38.2484 58.3649H22.5665C25.1841 53.778 27.7778 49.2631 30.4195 44.6042C31.7163 46.9337 33.0371 49.2151 34.3339 51.4966Z" fill="white"/>
<path d="M135.293 44.9164C135.509 44.244 135.725 43.5715 135.941 42.8751C135.749 42.8751 135.581 42.8751 135.413 42.8751C135.029 42.8751 134.692 42.8991 134.332 42.8511C133.924 42.8031 133.78 42.9712 133.684 43.3554C132.867 45.9971 132.003 48.6388 131.114 51.2564C130.85 51.9769 130.562 52.6973 130.225 53.4658C130.081 53.826 129.913 54.1863 129.769 54.5705L129.505 54.0182C128.04 50.632 126.815 47.1498 125.975 43.5715C125.975 43.5235 125.951 43.4995 125.951 43.4515C125.879 43.0912 125.807 42.755 125.254 42.8511C125.11 42.8751 124.966 42.8751 124.822 42.8751C124.438 42.8751 124.054 42.8511 123.861 43.5475C123.141 45.877 122.372 48.2065 121.58 50.5119C121.316 51.3285 121.028 52.121 120.763 52.9375C120.643 53.2977 120.475 53.6579 120.283 54.0662C120.211 54.2103 120.139 54.3544 120.067 54.5225C119.971 54.3063 119.875 54.1142 119.779 53.9461C119.635 53.6579 119.491 53.3938 119.395 53.1056C118.266 49.8875 117.161 46.6455 116.032 43.4034V43.3794C115.96 43.2113 115.768 42.9231 115.624 42.8991C115.216 42.8511 114.808 42.8511 114.399 42.8751C114.231 42.8751 114.063 42.8751 113.871 42.8751C113.895 42.9712 113.895 43.0672 113.919 43.1393C113.943 43.2353 113.943 43.3314 113.967 43.4034C115.12 47.5581 116.561 51.5686 118.434 55.4591C118.866 56.3476 119.323 56.7319 120.283 56.6118C120.763 56.5398 121.028 56.4437 121.22 55.9634C121.796 54.4985 122.372 53.0576 122.949 51.6166C123.357 50.584 123.765 49.5513 124.174 48.5427C124.342 48.0864 124.486 47.6541 124.63 47.2459C124.678 47.0778 124.75 46.9097 124.798 46.7656C126.023 49.7675 127.272 52.8414 128.496 55.9154C128.688 56.4197 128.977 56.6839 129.529 56.5878C129.697 56.5638 129.889 56.5638 130.057 56.5878C130.514 56.6839 130.754 56.4677 130.922 56.0595C131.282 55.2189 131.642 54.3784 132.027 53.5379C132.627 52.193 133.227 50.8482 133.756 49.4793C134.332 47.9903 134.812 46.4774 135.293 44.9164Z" fill="white"/>
<path fill-rule="evenodd" clip-rule="evenodd" d="M153.759 55.9874V61.4629H151.766C151.766 61.3668 151.766 61.2467 151.766 61.1267C151.766 61.0066 151.766 60.8865 151.766 60.7664V44.0278C151.766 43.9798 151.766 43.9078 151.742 43.8597C151.718 43.6196 151.694 43.3794 152.078 43.2834C154.768 42.6349 157.458 42.2507 160.147 43.0192C163.149 43.8597 165.047 46.3813 164.999 49.5273C164.999 50.536 164.878 51.5686 164.59 52.5292C163.798 55.0988 161.396 56.852 158.707 56.9C157.866 56.9 157.001 56.9 156.161 56.7559C155.633 56.6598 155.104 56.4677 154.552 56.2756C154.312 56.1795 154.048 56.0595 153.759 55.9874ZM153.759 50.7521C153.759 51.6887 153.759 52.6253 153.759 53.5619C153.759 53.9941 153.879 54.2103 154.264 54.4024C155.753 55.1709 157.338 55.4591 158.947 55.2429C160.868 54.9548 162.213 53.8981 162.669 51.9288C162.885 51.0163 162.933 50.1037 162.933 49.1671C162.909 46.8616 161.516 45.1085 159.331 44.5081C157.77 44.0759 156.209 44.244 154.624 44.4361C153.903 44.5321 153.759 44.7963 153.807 45.4687C153.807 45.9731 153.807 46.5014 153.783 47.0057C153.783 47.7742 153.759 48.5427 153.783 49.3352C153.759 49.8155 153.759 50.2718 153.759 50.7521Z" fill="white"/>
<path fill-rule="evenodd" clip-rule="evenodd" d="M51.7173 61.4869V55.8913L51.8374 55.9394C52.0535 56.0354 52.1736 56.0834 52.2697 56.1555C54.7433 57.2122 57.2168 57.3082 59.6424 56.0594C61.7557 54.9547 62.7163 53.0575 62.9565 50.7281C63.3407 47.2699 61.7317 44.0518 58.1294 43.0192C55.4157 42.2267 52.75 42.6109 50.0603 43.2593C49.676 43.3554 49.676 43.5955 49.7001 43.8357C49.7001 43.8837 49.7001 43.9317 49.7001 43.9798V60.7904C49.7001 61.0066 49.7241 61.2227 49.7481 61.4388H51.7173V61.4869ZM51.7173 50.5359C51.7173 50.1517 51.7173 49.7674 51.7173 49.3832C51.7173 48.9269 51.7173 48.4466 51.7173 47.9903C51.7173 47.0537 51.7173 46.0931 51.7173 45.1565C51.7173 44.7002 51.8614 44.5321 52.3177 44.4601C53.8547 44.1959 55.4157 44.0278 56.9767 44.388C60.0266 45.1325 61.1073 47.534 60.8911 50.4639C60.8431 50.9202 60.7711 51.3765 60.651 51.8087C60.1707 53.874 58.5377 55.1709 56.4723 55.2669C55.0554 55.339 53.7346 55.0988 52.4378 54.5225C51.9335 54.3063 51.6933 54.0181 51.7173 53.3937C51.7413 52.4571 51.7173 51.4965 51.7173 50.5359Z" fill="white"/>
<path d="M90.5997 44.6762C90.5276 44.5801 90.5036 44.5321 90.5036 44.4841C90.2394 43.1392 90.2154 43.0432 91.5603 42.8751C92.9532 42.707 94.3941 42.5389 95.7629 42.707C98.6448 43.0432 100.014 44.6762 100.086 47.6541C100.134 49.2871 100.11 50.9202 100.11 52.5532C100.11 53.6339 100.11 54.7386 100.11 55.8193C100.11 56.2275 99.9656 56.3476 99.5814 56.4197C97.2279 56.8279 94.8984 57.1161 92.5209 56.7799C89.6631 56.3956 88.03 54.1382 88.7265 51.5205C88.9906 50.608 89.543 49.9115 90.3595 49.4552C92.1126 48.4466 94.0338 48.3265 96.0511 48.4226V49.9596C95.883 49.9596 95.6909 49.9596 95.5228 49.9596C95.0665 49.9596 94.6342 49.9355 94.1779 49.9836C93.5535 50.0556 92.8811 50.1517 92.3047 50.3678C91.152 50.7761 90.6237 51.5446 90.6477 52.7213C90.6717 53.9221 91.2241 54.8106 92.4488 55.0028C93.5535 55.1949 94.7063 55.1949 95.859 55.2189C96.2192 55.2189 96.5554 55.2189 96.9157 55.2429C97.1318 55.2669 97.3719 55.2189 97.5881 55.1709C97.7082 55.1468 97.8523 55.1228 97.9723 55.0988C97.9723 55.0508 97.9963 55.0268 97.9963 54.9787C98.0204 54.9307 98.0204 54.8827 98.0204 54.8347C98.0204 54.3303 98.0204 53.826 98.0204 53.2977C98.0204 51.2564 98.0204 49.1911 97.9723 47.1258C97.9243 45.4207 96.7956 44.316 95.1145 44.2199C93.7216 44.1239 92.3528 44.1239 91.0079 44.6042C90.9359 44.6042 90.8638 44.6282 90.7918 44.6282C90.7678 44.6522 90.6957 44.6522 90.5997 44.6762Z" fill="white"/>
<path d="M139.543 42.9231C139.279 42.9711 138.991 43.0432 138.726 43.0912C138.75 43.3073 138.798 43.4755 138.822 43.6676C138.894 44.0038 138.943 44.292 138.943 44.5081L139.327 44.4601C140.359 44.316 141.368 44.1959 142.353 44.1239C145.114 43.8837 146.435 45.1325 146.435 47.9183V55.2189C146.003 55.2189 145.595 55.2189 145.186 55.2189C144.178 55.2189 143.217 55.2429 142.257 55.1949C141.632 55.1469 140.936 54.9547 140.335 54.7146C139.519 54.4024 139.159 53.6819 139.063 52.7934C138.967 51.8568 139.255 51.0162 140.095 50.608C140.84 50.2718 141.632 50.0316 142.449 49.8875C142.905 49.8155 143.361 49.8395 143.866 49.8395C144.082 49.8395 144.298 49.8635 144.538 49.8635V48.4226C143.577 48.1104 141.032 48.3505 139.759 48.8549C137.91 49.5753 136.973 50.8721 137.021 52.6252C137.093 54.5705 138.054 55.8433 139.975 56.4197C142.545 57.1881 145.09 56.8039 147.636 56.3956C147.9 56.3476 148.164 56.3236 148.405 56.2756C148.477 56.1795 148.501 56.1315 148.501 56.0834C148.501 55.1468 148.501 54.2103 148.525 53.2737C148.549 51.1603 148.549 49.023 148.477 46.9096C148.38 44.9644 147.348 43.5475 145.451 42.8991C144.01 42.4188 142.545 42.5148 141.08 42.6349C140.576 42.707 140.071 42.827 139.543 42.9231Z" fill="white"/>
<path d="M76.5995 56.2996C74.0539 56.7799 71.5803 57.1402 69.0827 56.7559C67.8099 56.5638 66.6812 56.1075 65.8406 55.0028C64.6159 53.3457 64.9281 50.7761 66.6091 49.5994C68.4343 48.3506 70.4996 48.3026 72.6129 48.3746V49.8395C72.2767 49.8635 71.9645 49.8876 71.6283 49.9116C70.9559 49.9596 70.3075 50.0076 69.6351 50.1037C69.1307 50.1998 68.6024 50.4159 68.1461 50.6801C66.6572 51.6887 66.8253 53.9701 68.4103 54.7626C68.9146 55.0268 69.515 55.1709 70.0913 55.2429C70.7157 55.315 71.3642 55.291 71.9885 55.267C72.0846 55.267 72.2047 55.267 72.3007 55.267C72.8051 55.2429 73.3094 55.2189 73.8137 55.1709C74.0539 55.1469 74.318 55.1229 74.5822 55.0989V48.0144C74.5822 45.2286 73.2614 44.0038 70.5236 44.1959C69.563 44.268 68.6024 44.3881 67.5938 44.5081C67.4257 44.5322 67.2575 44.5562 67.0894 44.5802C67.0414 44.3641 66.9934 44.0759 66.9213 43.7637C66.8733 43.5716 66.8493 43.3554 66.8013 43.1153C67.0414 43.0672 67.2816 43.0192 67.5217 42.9472C68.1221 42.8031 68.7225 42.683 69.3229 42.659C70.5476 42.6109 71.7964 42.5869 72.9972 42.8031C75.0865 43.1873 76.4314 44.6042 76.5274 46.8376C76.6235 49.047 76.5995 51.2564 76.5995 53.4898C76.5995 54.4264 76.5995 55.363 76.5995 56.2996Z" fill="white"/>
<path d="M27.1277 38.0961H15C16.0086 39.8972 17.0173 41.6503 18.0259 43.4275C19.0346 45.2046 20.0432 46.9577 21.0518 48.7588C22.5408 46.1652 23.9817 43.6196 25.4226 41.074C25.999 40.0653 26.5753 39.0807 27.1277 38.0961Z" fill="white"/>
<path d="M103.134 42.827C103.326 42.827 103.494 42.827 103.662 42.827C104.071 42.827 104.455 42.803 104.815 42.8511C104.959 42.8751 105.175 43.1633 105.175 43.3314C105.223 44.2199 105.223 45.0845 105.175 45.973C105.103 46.9817 105.608 47.6301 106.448 48.0143C107.049 48.2785 107.673 48.5187 108.297 48.7588C108.874 48.9749 109.474 49.2151 110.05 49.4553C110.723 49.7434 111.419 50.0316 112.02 50.4639C114.133 52.0249 113.821 55.0748 111.443 56.1555C110.699 56.4917 109.882 56.7078 109.066 56.8039C107.001 57.02 104.911 57.0441 102.918 56.1075C103.014 55.7953 103.11 55.4831 103.206 55.2189C103.254 55.0508 103.302 54.8827 103.35 54.7386C103.783 54.8106 104.191 54.8827 104.599 54.9547C105.44 55.0988 106.28 55.2669 107.121 55.2909C108.057 55.339 109.018 55.1709 109.954 54.9547C110.651 54.8106 111.203 54.3303 111.275 53.5138C111.371 52.6012 111.107 51.8568 110.267 51.4965C109.498 51.1603 108.73 50.8481 107.961 50.5359C107.505 50.3438 107.049 50.1757 106.592 49.9836C106.448 49.9115 106.304 49.8635 106.184 49.8155C106.136 49.7915 106.088 49.7915 106.04 49.7674C103.662 48.7828 103.11 47.9423 103.086 45.3486V42.827H103.134Z" fill="white"/>
<path d="M86.7351 44.3641C87.0713 44.3881 87.4075 44.4121 87.7678 44.4121C87.7918 44.244 87.8398 44.0759 87.8878 43.9078C87.9599 43.6436 88.0319 43.3794 88.08 43.0672C87.9599 43.0432 87.8638 42.9952 87.7678 42.9712C87.6717 42.9472 87.5756 42.9231 87.5036 42.8991C85.1021 42.3948 82.7005 42.635 80.3471 43.3314C79.8427 43.4515 79.7227 43.7156 79.7227 44.244C79.7467 48.1585 79.7467 52.0489 79.7467 55.9634C79.7467 56.2036 79.7707 56.4197 79.7947 56.6358H81.812V55.7713C81.812 54.5945 81.812 53.4418 81.812 52.2651C81.812 49.9356 81.812 47.6061 81.812 45.2766C81.812 44.7723 81.908 44.5081 82.4364 44.4601C82.7005 44.4361 82.9647 44.3881 83.2289 44.3641C83.5651 44.316 83.9013 44.244 84.2375 44.244C85.054 44.244 85.8706 44.292 86.7351 44.3641Z" fill="white"/>
</svg>
