<svg width="300" height="150" viewBox="0 0 300 150" fill="none" xmlns="http://www.w3.org/2000/svg">
<path d="M166.919 62.0606C166.919 61.8545 166.85 61.74 166.643 61.74C165.236 61.74 163.83 61.74 162.424 61.74C162.217 61.74 162.125 61.8316 162.125 62.0377C162.125 62.4957 162.125 62.9308 162.125 63.5262C160.857 62.3583 160.119 61.8774 159.013 61.6026C156.247 60.9156 153.803 61.5568 151.728 63.4346C149.124 65.8392 148.34 68.8621 149.078 72.2513C149.954 76.2131 153.55 79.236 157.906 78.778C159.335 78.6177 160.626 78.091 161.664 77.0833C161.779 76.9688 161.848 76.7856 162.102 76.8314C162.078 77.7933 162.171 78.7322 161.986 79.694C161.641 81.3199 160.442 82.4421 158.736 82.6253C156.961 82.8314 155.278 82.3276 154.495 80.6787C154.264 80.1978 154.011 80.0604 153.526 80.0833C152.627 80.1291 151.728 80.0833 150.829 80.1062C150.415 80.1062 150.023 80.0375 149.608 80.152C149.562 80.4726 149.608 80.7474 149.677 81.0222C150.299 83.5184 151.936 85.1214 154.31 85.9916C156.615 86.839 158.967 86.8619 161.295 86.1519C164.084 85.3275 165.836 83.4955 166.55 80.7016C166.781 79.8085 166.873 78.9154 166.873 77.9765C166.873 72.8009 166.873 67.6254 166.873 62.4499C166.919 62.3354 166.919 62.198 166.919 62.0606ZM158.114 74.5414C155.348 74.5185 153.665 72.4345 153.665 70.0987C153.688 67.5796 155.555 65.7018 158.045 65.6789C160.58 65.656 162.47 67.5567 162.47 70.1216C162.493 72.6177 160.603 74.5643 158.114 74.5414Z" fill="#868490"/>
<path d="M223.44 63.5034C220.466 60.6408 215.856 60.6179 213.251 63.3889C213.205 63.4347 213.159 63.4347 213.067 63.366C213.067 63.0225 213.044 62.6103 213.067 62.221C213.09 61.8317 212.929 61.7401 212.56 61.7401C211.407 61.763 210.232 61.7401 209.079 61.7401C208.157 61.7401 208.272 61.6485 208.272 62.5416C208.272 70.1903 208.272 77.862 208.272 85.5108C208.272 85.6024 208.272 85.694 208.272 85.8085C208.295 86.2894 208.295 86.3123 208.802 86.3123C210.047 86.3123 211.269 86.3123 212.514 86.3123C213.044 86.3123 213.067 86.3123 213.067 85.7398C213.067 83.1978 213.067 80.633 213.067 78.091V77.1979C213.851 78.0452 214.634 78.5948 215.556 78.9612C218.369 80.0605 221.688 79.2589 223.855 76.9002C225.215 75.4346 225.999 73.6941 226.252 71.7476C226.598 68.5644 225.791 65.7476 223.44 63.5034ZM221.204 72.0911C220.628 73.9231 219.06 75.0682 217.124 75.0682C214.911 75.0682 213.182 73.6483 212.79 71.4499C212.629 70.5568 212.652 69.6865 212.929 68.8163C213.528 66.824 215.234 65.5873 217.262 65.6789C219.337 65.7705 220.95 67.1904 221.365 69.2285C221.527 70.2132 221.504 71.1522 221.204 72.0911Z" fill="#868490"/>
<path d="M170.33 39.8014C172.151 37.7174 174.364 37.2365 176.784 37.6716C179.55 38.1754 181.095 39.9846 181.763 42.6181C181.971 43.4426 182.063 44.267 182.063 45.1143C182.063 48.2746 182.063 51.4119 182.063 54.5722C182.063 54.6409 182.063 54.7096 182.063 54.7783C182.109 55.1218 181.971 55.2821 181.625 55.2363C181.556 55.2363 181.487 55.2363 181.418 55.2363C180.265 55.2363 179.089 55.2363 177.937 55.2363C177.291 55.2363 177.291 55.2821 177.291 54.618C177.291 53.8852 177.291 53.1753 177.291 52.4425C177.291 50.2898 177.291 48.1601 177.291 46.0074C177.291 45.4807 177.245 44.954 177.13 44.4273C176.692 42.2288 174.71 41.2441 172.635 42.1601C171.805 42.5265 171.229 43.1678 170.86 43.9922C170.445 44.9082 170.33 45.8929 170.33 46.8776C170.33 49.328 170.33 51.7784 170.33 54.2516C170.33 54.3661 170.33 54.5035 170.33 54.618C170.33 55.2134 170.33 55.2134 169.754 55.2134C168.532 55.2134 167.333 55.2134 166.112 55.2134C166.089 55.2134 166.065 55.2134 166.042 55.2134C165.558 55.1905 165.558 55.1905 165.535 54.6638C165.535 54.5722 165.535 54.4806 165.535 54.3661C165.535 46.2593 165.535 38.1525 165.535 30.0229C165.535 29.9084 165.558 29.771 165.535 29.6564C165.489 29.2671 165.674 29.1755 166.042 29.1755C167.287 29.1984 168.509 29.1755 169.754 29.1755C170.33 29.1755 170.353 29.1755 170.353 29.771C170.353 32.7938 170.353 35.8396 170.353 38.8625C170.33 39.1602 170.33 39.3892 170.33 39.8014Z" fill="#868490"/>
<path d="M235.359 63.4575C237.502 61.2362 240.061 60.8469 242.804 61.7858C245.155 62.5873 246.308 64.4652 246.815 66.801C246.976 67.5338 247 68.2896 247 69.0224C247 72.1368 247 75.2284 247 78.3429C247 78.4574 247 78.5948 247 78.7093C247 78.9383 246.93 79.0757 246.677 79.0757C245.294 79.0757 243.911 79.0757 242.528 79.0757C242.32 79.0757 242.205 78.9841 242.205 78.778C242.205 78.6177 242.205 78.4345 242.205 78.2742C242.205 75.4803 242.205 72.6864 242.205 69.8926C242.205 69.3201 242.182 68.7476 242.044 68.175C241.767 67.0529 241.214 66.1369 240.038 65.8163C238.793 65.4728 237.618 65.7476 236.673 66.6407C235.751 67.488 235.428 68.6331 235.336 69.8239C235.29 70.3506 235.313 70.8773 235.313 71.404C235.313 73.7399 235.313 76.0757 235.313 78.4116C235.313 79.0528 235.313 79.0528 234.69 79.0528C233.468 79.0528 232.27 79.0528 231.048 79.0528C230.518 79.0528 230.518 79.0528 230.495 78.4803C230.495 78.3887 230.495 78.2971 230.495 78.1826C230.495 70.0758 230.495 61.969 230.495 53.8393C230.495 52.9004 230.403 53.0378 231.302 53.0378C232.385 53.0378 233.492 53.0378 234.575 53.0378C235.359 53.0378 235.29 52.992 235.29 53.7248C235.29 56.7019 235.29 59.7019 235.29 62.6789C235.313 62.9308 235.266 63.1827 235.359 63.4575Z" fill="#868490"/>
<path d="M202.556 61.7171C201.219 61.7171 199.882 61.74 198.545 61.7171C198.199 61.7171 198.13 61.8545 198.153 62.1522C198.176 62.5644 198.153 62.9537 198.153 63.5033C197.969 63.3659 197.922 63.3201 197.853 63.2743C196.516 61.8774 194.834 61.2819 192.943 61.3506C190.5 61.4193 188.495 62.4728 186.996 64.3735C185.037 66.8468 184.507 69.6635 185.198 72.6864C185.774 75.2513 187.181 77.2665 189.532 78.5489C192.206 80.0146 195.871 79.694 197.899 77.4497C197.946 77.4039 198.015 77.3581 198.13 77.4726C198.13 77.8161 198.153 78.2283 198.13 78.6405C198.107 78.984 198.268 79.0985 198.614 79.0756C199.767 79.0527 200.942 79.0756 202.095 79.0756C202.971 79.0756 202.925 79.2131 202.925 78.2741C202.925 73.0299 202.925 67.7857 202.925 62.5415C202.925 62.4041 202.925 62.2438 202.925 62.1064C202.971 61.8087 202.832 61.7171 202.556 61.7171ZM198.314 71.9994C197.715 73.9688 196.101 75.1139 194.004 75.0681C192.021 75.0223 190.431 73.7398 189.947 71.7704C189.693 70.7399 189.716 69.7322 190.039 68.7017C190.661 66.7781 192.321 65.5872 194.326 65.6788C196.332 65.7475 197.899 67.03 198.384 68.9994C198.499 69.4345 198.568 69.8925 198.545 70.3505C198.568 70.9231 198.476 71.4727 198.314 71.9994Z" fill="#868490"/>
<path d="M204.03 44.4731C203.269 41.267 201.379 39.0227 198.175 37.9693C196.792 37.5113 195.386 37.3968 193.934 37.6029C190.545 38.0609 188.079 39.7784 186.719 42.9158C185.981 44.6334 185.82 46.4425 186.165 48.2974C186.696 51.1829 188.171 53.4272 190.891 54.6638C194.302 56.221 197.668 55.9691 200.849 53.9539C202.209 53.0837 203.2 51.8699 203.823 50.4043C203.915 50.1753 204.076 49.9463 204.03 49.6028C202.486 49.6028 200.941 49.6028 199.397 49.6028C199.166 49.6028 199.051 49.7402 198.959 49.9005C198.682 50.3356 198.29 50.6562 197.852 50.9081C196.884 51.4348 195.847 51.5951 194.763 51.4806C192.528 51.2516 191.052 49.9005 190.799 47.7936C191.098 47.6791 191.375 47.7249 191.629 47.7249C194.879 47.7249 198.129 47.7249 201.379 47.7249C202.209 47.7249 203.039 47.7249 203.846 47.7249C204.353 47.7249 204.353 47.702 204.376 47.2211C204.353 46.2822 204.238 45.3662 204.03 44.4731ZM190.983 44.5189C191.214 42.6639 193.035 41.3357 195.178 41.3815C197.115 41.4273 198.82 42.8471 198.959 44.5189H190.983Z" fill="#868490"/>
<path d="M161.434 50.9769C161.434 52.2135 161.434 53.4959 161.434 54.7554C161.434 55.099 161.203 55.1448 160.973 55.1906C160.166 55.3967 159.336 55.4425 158.529 55.4425C157.353 55.4425 156.201 55.3051 155.141 54.8012C153.273 53.9539 152.213 52.5112 151.844 50.5188C151.752 49.9921 151.729 49.4654 151.729 48.9387C151.729 46.8548 151.729 44.7479 151.729 42.664C151.729 42.0915 151.729 42.0686 151.13 42.0686C150.3 42.0686 149.493 42.0457 148.663 42.0686C148.317 42.0686 148.202 41.977 148.202 41.6105C148.225 40.5113 148.225 39.3892 148.202 38.29C148.202 37.9694 148.317 37.8778 148.617 37.8778C149.493 37.9007 150.369 37.8549 151.222 37.9007C151.614 37.9007 151.729 37.7862 151.729 37.4197C151.706 36.1602 151.729 34.9236 151.729 33.6641C151.729 33.1145 151.729 33.0916 152.282 33.0916C153.55 33.0916 154.795 33.0916 156.063 33.0916C156.408 33.0916 156.524 33.1832 156.524 33.5496C156.501 34.7633 156.524 35.9541 156.524 37.1678C156.524 37.9923 156.454 37.9236 157.33 37.9236C158.552 37.9236 159.751 37.9236 160.973 37.9236C161.318 37.9236 161.503 37.9923 161.48 38.4045C161.457 39.4808 161.457 40.58 161.48 41.6563C161.48 42.0686 161.318 42.1373 160.973 42.1144C159.682 42.0915 158.414 42.1144 157.123 42.1144C156.57 42.1144 156.547 42.1144 156.547 42.664C156.547 44.496 156.547 46.3281 156.547 48.1372C156.547 48.5265 156.593 48.9158 156.662 49.2822C156.846 50.2669 157.423 50.8624 158.391 51.0914C159.29 51.2975 160.166 51.2288 161.042 51.0227C161.134 50.954 161.249 50.9082 161.434 50.9769Z" fill="#868490"/>
<path d="M176.992 64.1218C177.269 63.9615 177.315 63.7325 177.43 63.5722C178.582 61.9462 180.45 61.2134 182.547 61.6256C182.778 61.6714 182.939 61.763 182.939 62.0607C182.939 63.5264 182.939 64.992 182.939 66.4805C182.547 66.5034 182.248 66.366 181.925 66.2973C179.435 65.7706 177.568 67.0302 177.107 69.5263C177.015 69.9843 176.992 70.4194 176.992 70.8774C176.992 73.3049 176.992 75.7323 176.992 78.1598C176.992 78.2972 176.969 78.4575 176.992 78.5949C177.038 78.9842 176.831 79.0758 176.485 79.0758C175.217 79.0529 173.972 79.0758 172.704 79.0758C172.197 79.0758 172.197 79.0529 172.197 78.5491C172.197 73.1217 172.197 67.6714 172.197 62.2439C172.197 61.8775 172.289 61.7401 172.681 61.7401C173.972 61.763 175.24 61.763 176.531 61.7401C176.923 61.7401 177.015 61.9004 177.015 62.2439C176.992 62.8165 176.992 63.4348 176.992 64.1218Z" fill="#868490"/>
<path d="M88.9599 92.4496C84.0961 92.4496 79.3936 91.5107 74.9678 89.6329C70.6803 87.8237 66.8307 85.2588 63.5344 81.9841C60.2381 78.7093 57.6333 74.8849 55.8353 70.6254C53.9682 66.2056 53 61.5339 53 56.7248C53 51.9157 53.9451 47.2211 55.8353 42.8242C57.6563 38.5647 60.2381 34.7403 63.5344 31.4655C66.8307 28.1908 70.6803 25.603 74.9678 23.8168C79.4167 21.9618 84.1192 21 88.9599 21C93.8007 21 98.5262 21.9389 102.952 23.8168C107.24 25.6259 111.089 28.1908 114.385 31.4655C117.682 34.7403 120.287 38.5647 122.085 42.8242C123.952 47.244 124.92 51.9157 124.92 56.7248C124.92 61.5339 123.975 66.2285 122.085 70.6254C120.263 74.8849 117.682 78.7093 114.385 81.9841C111.089 85.2588 107.24 87.8466 102.952 89.6329C98.5262 91.4878 93.8237 92.4496 88.9599 92.4496ZM88.9599 32.5419C75.5441 32.5419 64.6409 43.3738 64.6409 56.7019C64.6409 70.03 75.5671 80.8849 88.983 80.8849C102.399 80.8849 113.325 70.03 113.325 56.7019C113.302 43.3738 102.376 32.5419 88.9599 32.5419Z" fill="#868490"/>
<path d="M130.96 32.3813C134.091 32.3813 136.63 29.8591 136.63 26.7478C136.63 23.6365 134.091 21.1143 130.96 21.1143C127.828 21.1143 125.289 23.6365 125.289 26.7478C125.289 29.8591 127.828 32.3813 130.96 32.3813Z" fill="#868490"/>
<path d="M94.9299 128.083C93.4316 128.083 91.9563 127.51 90.8268 126.388C88.5447 124.121 88.5447 120.48 90.8268 118.213L115.031 94.167C117.313 91.8999 120.978 91.8999 123.26 94.167C125.542 96.4342 125.542 100.075 123.26 102.343L99.0561 126.388C97.9035 127.533 96.4052 128.083 94.9299 128.083Z" fill="#868490"/>
</svg>
