<svg width="180" height="100" viewBox="0 0 180 100" fill="none" xmlns="http://www.w3.org/2000/svg">
<path d="M63.7203 45.7711H59.4023V43.2262H71.1606V45.7711H66.8427V56.7201H63.7203V45.7711ZM74.1188 47.7179C74.4784 47.2166 74.9605 46.8374 75.5644 46.5803C76.1811 46.3236 76.8878 46.1949 77.6846 46.1949V48.971C77.3508 48.9451 77.1258 48.9322 77.0099 48.9322C76.149 48.9322 75.4743 49.1764 74.986 49.6648C74.4976 50.1403 74.2534 50.8599 74.2534 51.8238V56.7201H71.2464V46.349H74.1188V47.7179ZM88.8394 46.349V56.7201H85.9862V55.4862C85.5879 55.9358 85.1124 56.2829 84.5598 56.5271C84.0073 56.7584 83.4097 56.8743 82.7672 56.8743C81.4049 56.8743 80.3257 56.4821 79.5289 55.6983C78.7322 54.9145 78.3338 53.7514 78.3338 52.2092V46.349H81.3408V51.7658C81.3408 53.4364 82.0413 54.2719 83.4418 54.2719C84.1615 54.2719 84.7399 54.0406 85.177 53.5777C85.6137 53.1022 85.832 52.4021 85.832 51.4766V46.349H88.8394ZM93.9578 56.8743C93.0965 56.8743 92.2548 56.7713 91.4326 56.5659C90.61 56.3471 89.9545 56.0775 89.4662 55.7562L90.4687 53.5973C90.9313 53.8927 91.4901 54.1369 92.1456 54.3294C92.8011 54.5094 93.4436 54.5995 94.0733 54.5995C95.3455 54.5995 95.9818 54.2848 95.9818 53.6548C95.9818 53.3593 95.808 53.1472 95.4613 53.0189C95.1142 52.8905 94.5808 52.7809 93.8612 52.6909C93.0132 52.5626 92.3127 52.4146 91.7601 52.248C91.2076 52.0809 90.7259 51.785 90.3146 51.3612C89.9162 50.937 89.717 50.3332 89.717 49.549C89.717 48.8939 89.9033 48.3155 90.2758 47.8142C90.6613 47.3 91.2138 46.9016 91.9335 46.6191C92.666 46.3365 93.527 46.1949 94.5167 46.1949C95.2492 46.1949 95.9751 46.2786 96.6948 46.4457C97.4274 46.5999 98.0316 46.8183 98.507 47.1008L97.5044 49.2406C96.5923 48.7268 95.5963 48.4697 94.5167 48.4697C93.8741 48.4697 93.3924 48.5597 93.0711 48.7393C92.7498 48.9193 92.589 49.1506 92.589 49.4335C92.589 49.7548 92.7627 49.9794 93.1094 50.1082C93.4565 50.2365 94.0091 50.3586 94.7671 50.4745C95.6155 50.6157 96.3093 50.7699 96.849 50.937C97.389 51.0912 97.8578 51.3804 98.2562 51.8046C98.6546 52.2284 98.8537 52.8197 98.8537 53.5777C98.8537 54.2202 98.6612 54.7924 98.2758 55.2933C97.8899 55.7946 97.3244 56.1867 96.5794 56.4692C95.8468 56.7392 94.9729 56.8743 93.9578 56.8743ZM106.242 56.2188C105.946 56.4371 105.58 56.6042 105.143 56.7201C104.719 56.8226 104.269 56.8743 103.793 56.8743C102.56 56.8743 101.602 56.5592 100.921 55.9296C100.253 55.2999 99.9189 54.3744 99.9189 53.1539V48.8939H98.3191V46.5803H99.9189V44.0555H102.926V46.5803H105.509V48.8939H102.926V53.1151C102.926 53.5523 103.035 53.8927 103.254 54.1369C103.485 54.3682 103.806 54.484 104.218 54.484C104.693 54.484 105.098 54.3553 105.432 54.0982L106.242 56.2188ZM131.682 43.2262L127.268 56.7201H123.914L120.945 47.5829L117.88 56.7201H114.545L110.112 43.2262H113.35L116.396 52.7105L119.577 43.2262H122.468L125.552 52.7876L128.694 43.2262H131.682ZM135.468 46.1949C137.074 46.1949 138.308 46.5803 139.169 47.3516C140.03 48.1096 140.46 49.2598 140.46 50.802V56.7201H137.646V55.4283C137.081 56.3921 136.027 56.8743 134.485 56.8743C133.688 56.8743 132.994 56.7392 132.403 56.4692C131.825 56.1996 131.381 55.8267 131.073 55.3512C130.764 54.8757 130.61 54.3361 130.61 53.7319C130.61 52.7684 130.97 52.01 131.69 51.4575C132.422 50.9049 133.547 50.6286 135.063 50.6286H137.453C137.453 49.9732 137.254 49.4719 136.856 49.1252C136.457 48.7651 135.86 48.5851 135.063 48.5851C134.511 48.5851 133.964 48.6751 133.425 48.8551C132.898 49.0222 132.448 49.2535 132.075 49.549L130.996 47.4479C131.561 47.0495 132.236 46.7412 133.02 46.5228C133.816 46.304 134.633 46.1949 135.468 46.1949ZM135.237 54.8499C135.751 54.8499 136.207 54.7345 136.605 54.5032C137.004 54.259 137.286 53.9056 137.453 53.4431V52.3826H135.391C134.157 52.3826 133.54 52.7876 133.54 53.5973C133.54 53.9827 133.688 54.2911 133.983 54.5224C134.292 54.7407 134.71 54.8499 135.237 54.8499ZM142.026 42.417H145.032V56.7201H142.026V42.417ZM146.667 42.417H149.674V56.7201H146.667V42.417ZM161.467 51.5729C161.467 51.6117 161.448 51.8817 161.409 52.3826H153.564C153.705 53.0251 154.039 53.5327 154.566 53.9056C155.093 54.2782 155.748 54.4644 156.532 54.4644C157.072 54.4644 157.547 54.3873 157.959 54.2332C158.383 54.0661 158.775 53.8094 159.134 53.4623L160.734 55.197C159.758 56.315 158.331 56.8743 156.455 56.8743C155.286 56.8743 154.251 56.6492 153.352 56.1996C152.452 55.7366 151.758 55.1007 151.27 54.2911C150.781 53.4814 150.537 52.5626 150.537 51.5346C150.537 50.5195 150.775 49.6069 151.251 48.7972C151.739 47.975 152.401 47.3387 153.236 46.8891C154.084 46.4261 155.028 46.1949 156.069 46.1949C157.085 46.1949 158.004 46.4136 158.826 46.8503C159.649 47.2875 160.291 47.9171 160.754 48.7393C161.229 49.5489 161.467 50.4936 161.467 51.5729ZM156.089 48.4697C155.408 48.4697 154.836 48.6622 154.373 49.0481C153.91 49.4335 153.628 49.9602 153.525 50.6286H158.633C158.53 49.9732 158.248 49.4527 157.785 49.0672C157.322 48.6689 156.757 48.4697 156.089 48.4697ZM169.001 56.2188C168.706 56.4371 168.339 56.6042 167.903 56.7201C167.478 56.8226 167.029 56.8743 166.553 56.8743C165.319 56.8743 164.362 56.5592 163.681 55.9296C163.013 55.2999 162.679 54.3744 162.679 53.1539V48.8939H161.079V46.5803H162.679V44.0555H165.686V46.5803H168.269V48.8939H165.686V53.1151C165.686 53.5523 165.795 53.8927 166.013 54.1369C166.245 54.3682 166.566 54.484 166.977 54.484C167.453 54.484 167.858 54.3553 168.192 54.0982L169.001 56.2188Z" fill="white"/>
<path d="M37.4201 30H24.3549C16.9792 30 11 35.9792 11 43.3549V56.4201C11 63.7958 16.9792 69.775 24.3549 69.775H37.4201C44.7958 69.775 50.775 63.7958 50.775 56.4201V43.3549C50.775 35.9792 44.7958 30 37.4201 30Z" fill="white" stroke="#DFE5EC" stroke-width="0.416708"/>
<path d="M12.5195 50.1744C12.5195 39.9672 20.7941 31.6927 31.0011 31.6927C41.2083 31.6927 49.4829 39.9672 49.4829 50.1744C49.4829 60.3817 41.2083 68.6562 31.0011 68.6562C20.7941 68.6562 12.5195 60.3817 12.5195 50.1744Z" fill="white"/>
<path d="M31.0123 39.4539C34.7419 42.5683 39.019 42.3762 40.2407 42.3762C39.9736 60.0905 37.9368 56.5781 31.0123 61.5452C24.0881 56.5781 22.0642 60.0905 21.7969 42.3762C23.0061 42.3762 27.283 42.5683 31.0123 39.4539Z" stroke="#3375BB" stroke-width="2.52652" stroke-miterlimit="10" stroke-linecap="round" stroke-linejoin="round"/>
</svg>
