<svg width="180" height="100" viewBox="0 0 180 100" fill="none" xmlns="http://www.w3.org/2000/svg">
<path d="M73.9141 41.6582H79.8818V45.0009C81.837 41.9967 84.087 41.6582 87.3807 41.6582V47.5655H85.8807C81.9339 47.5655 80.0443 49.4228 80.0443 53.102V59.3811H73.9141V41.6582Z" fill="white"/>
<path d="M107.296 59.3811H101.167V57.6915C99.8286 59.2447 98.0047 59.9197 95.7557 59.9197C91.4849 59.9197 89.0703 57.3874 89.0703 52.7301V41.6582H95.1995V51.3478C95.1995 53.5405 96.2755 54.8228 98.1005 54.8228C99.9255 54.8228 101.166 53.5728 101.166 51.4478V41.6582H107.295V59.3811H107.296Z" fill="white"/>
<path d="M108.793 53.9098H114.534C114.795 55.1921 115.675 55.7317 117.793 55.7317C119.522 55.7317 120.533 55.3275 120.533 54.5848C120.533 54.0098 120.043 53.638 118.643 53.3348L114.013 52.288C110.915 51.5807 109.349 49.7911 109.349 46.9202C109.349 43.138 112.12 41.1807 117.5 41.1807C122.88 41.1807 125.521 43.088 125.979 47.1744H120.274C120.177 46.0952 119.067 45.4348 117.242 45.4348C115.775 45.4348 114.832 45.9067 114.832 46.6171C114.832 47.2244 115.449 47.6963 116.691 48.0025L121.548 49.1848C124.743 49.9598 126.277 51.5817 126.277 54.214C126.277 57.8609 123.114 60.0213 117.737 60.0213C112.36 60.0213 108.802 57.6921 108.802 53.9098H108.796H108.793Z" fill="white"/>
<path d="M142.598 47.1707V41.6582H127.469V47.1738H131.983V59.3811H138.081V47.1707H142.598Z" fill="white"/>
<path d="M72.2121 47.1707V41.6582H57.084V47.1738H61.5986V59.3811H67.6975V47.1707H72.2121Z" fill="white"/>
</svg>
