<svg width="300" height="150" viewBox="0 0 300 150" fill="none" xmlns="http://www.w3.org/2000/svg">
<path d="M88.2168 53.1544H102.473V61.2224C107.144 53.9715 112.519 53.1544 120.388 53.1544V67.4123H116.805C107.376 67.4123 102.862 71.8951 102.862 80.7752V95.9306H88.2168V53.1544Z" fill="#868490"/>
<path d="M167.955 95.9281H153.313V91.8501C150.115 95.5987 145.758 97.2279 140.385 97.2279C130.182 97.2279 124.414 91.1159 124.414 79.8751V53.1519H139.056V76.5387C139.056 81.8311 141.627 84.926 145.987 84.926C150.347 84.926 153.31 81.909 153.31 76.7801V53.1519H167.953V95.9281H167.955Z" fill="#868490"/>
<path d="M171.532 82.7233H185.246C185.871 85.8182 187.974 87.1206 193.033 87.1206C197.164 87.1206 199.578 86.1451 199.578 84.3525C199.578 82.9646 198.408 82.0671 195.063 81.3354L184.002 78.8087C176.601 77.1016 172.861 72.7822 172.861 65.8531C172.861 56.7241 179.48 52 192.334 52C205.187 52 211.495 56.6035 212.59 66.4666H198.96C198.729 63.8619 196.076 62.2679 191.716 62.2679C188.213 62.2679 185.958 63.4068 185.958 65.1215C185.958 66.5873 187.434 67.7262 190.4 68.4654L202.004 71.3189C209.636 73.1895 213.302 77.1041 213.302 83.4574C213.302 92.2595 205.744 97.4739 192.898 97.4739C180.053 97.4739 171.555 91.8522 171.555 82.7233H171.54H171.532Z" fill="#868490"/>
<path d="M252.292 66.4569V53.1519H216.149V66.4644H226.935V95.9281H241.502V66.4569H252.292Z" fill="#868490"/>
<path d="M84.1404 66.4569V53.1519H48V66.4644H58.7851V95.9281H73.3552V66.4569H84.1404Z" fill="#868490"/>
</svg>
