<svg width="24" height="24" viewBox="0 0 24 24" fill="none" xmlns="http://www.w3.org/2000/svg">
<path d="M6.40121 18.0141C5.90784 17.7562 5.50807 17.4776 5.19385 17.2183C4.90568 16.9805 4.68945 16.759 4.53824 16.5845C4.46285 16.4975 4.40179 16.4201 4.35482 16.3557C4.33172 16.3241 4.30915 16.2916 4.28864 16.2598C4.27876 16.2445 4.26557 16.2235 4.25165 16.1992C4.2448 16.1872 4.2345 16.1687 4.22311 16.1459C4.21576 16.1313 4.1901 16.08 4.16717 16.0112L3.39447 13.6932L5.57063 14.8044L5.97178 15.0092L5.972 15.0093C6.18314 15.1172 6.39851 15.2144 6.61711 15.2997L6.40121 18.0141ZM6.40121 18.0141C5.39944 17.9183 4.42924 17.5817 3.59413 17.0313C3.00384 16.6153 2.67075 15.9047 2.73305 15.1987L2.73324 15.1964C2.89845 13.2738 3.34957 11.3759 4.04433 9.56347L4.04497 9.56181C4.28198 8.9402 4.62355 8.37511 5.04674 7.88555L5.25415 8.17807C9.44228 6.13583 14.3553 6.16582 18.5122 8.26649L19.6086 8.82052C19.7471 9.06587 19.8684 9.32361 19.9705 9.59238L19.9705 9.5924L19.9741 9.60155C20.6515 11.3328 21.0875 13.1377 21.2679 14.9869C21.3413 15.7425 20.9871 16.4783 20.3396 16.9124C19.4871 17.4648 18.5274 17.8022 17.5318 17.9099C18.9524 17.1762 19.5757 16.2949 19.669 16.155L18.3039 14.7542C16.2878 16.0241 14.4355 16.5553 12.5872 16.5882C10.7205 16.6214 8.7897 16.1476 6.61716 15.2997L6.40121 18.0141ZM18.0083 15.0405C18.0084 15.0405 18.0075 15.0417 18.0059 15.0441C18.0075 15.0417 18.0083 15.0405 18.0083 15.0405ZM8.70088 15.8577L8.73237 15.8587L8.76386 15.8577C10.2837 15.8087 11.4589 14.5857 11.5305 13.1065L11.5309 13.0975L11.5312 13.0885C11.5791 11.5084 10.3544 10.1655 8.76242 10.1165L8.7309 10.1156L8.69939 10.1166C7.19348 10.1652 5.98077 11.3779 5.93217 12.8838L5.93211 12.8858C5.8842 14.4658 7.10893 15.8087 8.70088 15.8577ZM15.143 15.8577L15.1744 15.8587L15.2059 15.8577C16.7119 15.8091 17.9247 14.5964 17.9732 13.0904L17.9733 13.0885C18.0212 11.5084 16.7964 10.1655 15.2045 10.1165L15.173 10.1156L15.1415 10.1166C13.6356 10.1652 12.4228 11.3779 12.3742 12.8838L12.3742 12.8858C12.3263 14.4658 13.551 15.8087 15.143 15.8577Z" fill="white" stroke="white" stroke-width="2"/>
</svg>
