<svg width="24" height="24" viewBox="0 0 24 24" fill="none" xmlns="http://www.w3.org/2000/svg">
<path d="M14.001 11.0005H8.00098M10.001 15.0005H8.00098M16.001 7.00049H8.00098M20.001 6.80049V17.2005C20.001 18.8806 20.001 19.7207 19.674 20.3625C19.3864 20.9269 18.9274 21.3859 18.3629 21.6735C17.7212 22.0005 16.8811 22.0005 15.201 22.0005H8.80098C7.12082 22.0005 6.28074 22.0005 5.639 21.6735C5.07452 21.3859 4.61558 20.9269 4.32796 20.3625C4.00098 19.7207 4.00098 18.8806 4.00098 17.2005V6.80049C4.00098 5.12033 4.00098 4.28025 4.32796 3.63852C4.61558 3.07403 5.07452 2.61509 5.639 2.32747C6.28074 2.00049 7.12082 2.00049 8.80098 2.00049H15.201C16.8811 2.00049 17.7212 2.00049 18.3629 2.32747C18.9274 2.61509 19.3864 3.07403 19.674 3.63852C20.001 4.28025 20.001 5.12033 20.001 6.80049Z" stroke="white" stroke-width="2" stroke-linecap="round" stroke-linejoin="round"/>
</svg>
