<svg width="78" height="90" viewBox="0 0 78 90" fill="none" xmlns="http://www.w3.org/2000/svg">
<path fill-rule="evenodd" clip-rule="evenodd" d="M28.7049 4.38071C34.8989 -0.943529 44.0867 -0.827819 50.1447 4.65069L56.1036 10.0396C62.8605 16.1501 63.2565 26.6272 56.9803 33.2305L49.8546 40.7274L53.129 44.0369C53.5571 44.4696 54.2578 44.4636 54.6784 44.0237L64.8271 33.4082C67.7143 30.3883 72.5028 30.2807 75.5227 33.1678C78.5426 36.0549 78.6503 40.8435 75.7632 43.8634L65.6144 54.4788C59.3057 61.0777 48.7946 61.1677 42.3738 54.678L39.4264 51.699L36.869 54.3896C30.542 61.0463 19.9539 61.1226 13.5316 54.5576L3.13088 43.9258C0.209264 40.9393 0.261883 36.1498 3.24841 33.2282C6.23494 30.3066 11.0244 30.3592 13.9461 33.3457L24.3468 43.9775C24.7749 44.4152 25.4808 44.4101 25.9026 43.9663L28.7803 40.9387L21.4281 33.5075C14.8173 26.8258 15.2568 15.9404 22.3847 9.81334L28.7049 4.38071ZM39.2085 29.9671L46.0139 22.8072C46.4323 22.3669 46.4059 21.6685 45.9554 21.2611L39.9966 15.8722C39.5927 15.507 38.9802 15.4993 38.5672 15.8542L32.2471 21.2869C31.7719 21.6953 31.7426 22.421 32.1833 22.8665L39.2085 29.9671Z" fill="#6F5CE6"/>
<path d="M18.1655 69.9679C18.2378 69.8594 18.3553 69.8052 18.518 69.8052H20.7416C20.9223 69.8052 21.0127 69.8956 21.0127 70.0764V88.8681C21.0127 89.0489 20.9223 89.1393 20.7416 89.1393H16.6741C16.4933 89.1393 16.4029 89.0489 16.4029 88.8681V80.8688C16.4029 80.7422 16.3668 80.6699 16.2945 80.6518C16.2221 80.6157 16.1498 80.6428 16.0775 80.7332L11.1694 87.8919C11.1152 87.9642 11.0519 88.0004 10.9796 88.0004C10.9073 88.0004 10.844 87.9642 10.7898 87.8919L5.90884 80.7603C5.85461 80.688 5.80037 80.6518 5.74614 80.6518C5.63767 80.6518 5.58344 80.7241 5.58344 80.8688V88.8681C5.58344 89.0489 5.49305 89.1393 5.31227 89.1393H1.2448C1.06402 89.1393 0.973633 89.0489 0.973633 88.8681V70.0764C0.973633 69.8956 1.06402 69.8052 1.2448 69.8052H3.46835C3.63105 69.8052 3.74856 69.8594 3.82087 69.9679L10.7898 80.6789C10.844 80.7513 10.9073 80.7874 10.9796 80.7874C11.0519 80.7874 11.1152 80.7513 11.1694 80.6789L18.1655 69.9679Z" fill="white"/>
<path d="M26.3166 73.0592C25.6478 73.0592 25.0693 72.8242 24.5812 72.3542C24.1112 71.8661 23.8762 71.2876 23.8762 70.6187C23.8762 69.9498 24.1112 69.3804 24.5812 68.9104C25.0693 68.4223 25.6478 68.1782 26.3166 68.1782C27.0036 68.1782 27.5821 68.4132 28.0521 68.8833C28.5221 69.3533 28.7571 69.9318 28.7571 70.6187C28.7571 71.2876 28.5131 71.8661 28.025 72.3542C27.555 72.8242 26.9855 73.0592 26.3166 73.0592ZM24.1473 75.0658C24.1473 74.9212 24.2196 74.8489 24.3643 74.8489H28.269C28.4137 74.8489 28.486 74.9212 28.486 75.0658V88.9224C28.486 89.067 28.4137 89.1393 28.269 89.1393H24.3643C24.2196 89.1393 24.1473 89.067 24.1473 88.9224V75.0658Z" fill="white"/>
<path d="M49.3365 74.7675C51.1443 74.7675 52.482 75.346 53.3498 76.503C54.2356 77.66 54.7146 79.2327 54.787 81.2213V88.9224C54.787 89.067 54.7146 89.1393 54.57 89.1393H50.6652C50.5206 89.1393 50.4483 89.067 50.4483 88.9224V81.2213C50.4483 80.1908 50.2404 79.4225 49.8246 78.9164C49.4269 78.4102 48.8032 78.1571 47.9536 78.1571C47.122 78.1571 46.4622 78.4735 45.9741 79.1062C45.486 79.7208 45.2419 80.462 45.2419 81.3297V88.9224C45.2419 89.067 45.1696 89.1393 45.025 89.1393H41.1202C40.9756 89.1393 40.9033 89.067 40.9033 88.9224V81.2213C40.9033 80.1908 40.6954 79.4225 40.2796 78.9164C39.8819 78.4102 39.2582 78.1571 38.4086 78.1571C37.577 78.1571 36.9172 78.4735 36.4291 79.1062C35.941 79.7208 35.6969 80.462 35.6969 81.3297V88.9224C35.6969 89.067 35.6246 89.1393 35.48 89.1393H31.5752C31.4306 89.1393 31.3583 89.067 31.3583 88.9224V75.0658C31.3583 74.9212 31.4306 74.8489 31.5752 74.8489H35.48C35.6246 74.8489 35.6969 74.9212 35.6969 75.0658V76.6386C35.6969 76.729 35.724 76.7922 35.7783 76.8284C35.8325 76.8465 35.8867 76.8194 35.941 76.747C36.3929 76.1505 36.9443 75.6714 37.5951 75.3099C38.264 74.9483 38.9961 74.7675 39.7915 74.7675C42.0151 74.7675 43.5698 75.6895 44.4556 77.5334C44.4917 77.6057 44.5279 77.6509 44.564 77.669C44.6183 77.6871 44.6635 77.669 44.6996 77.6148C45.1154 76.8194 45.7391 76.1505 46.5707 75.6082C47.4022 75.0477 48.3242 74.7675 49.3365 74.7675Z" fill="white"/>
<path d="M59.8186 73.0592C59.1498 73.0592 58.5713 72.8242 58.0832 72.3542C57.6132 71.8661 57.3782 71.2876 57.3782 70.6187C57.3782 69.9498 57.6132 69.3804 58.0832 68.9104C58.5713 68.4223 59.1498 68.1782 59.8186 68.1782C60.5056 68.1782 61.0841 68.4132 61.5541 68.8833C62.0241 69.3533 62.2591 69.9318 62.2591 70.6187C62.2591 71.2876 62.0151 71.8661 61.527 72.3542C61.057 72.8242 60.4875 73.0592 59.8186 73.0592ZM57.6493 75.0658C57.6493 74.9212 57.7216 74.8489 57.8663 74.8489H61.771C61.9157 74.8489 61.988 74.9212 61.988 75.0658V88.9224C61.988 89.067 61.9157 89.1393 61.771 89.1393H57.8663C57.7216 89.1393 57.6493 89.067 57.6493 88.9224V75.0658Z" fill="white"/>
<path d="M77.7406 84.3397C77.7949 84.3578 77.831 84.4029 77.8491 84.4753C77.8672 84.5295 77.8672 84.5837 77.8491 84.638C77.7406 85.3249 77.4333 86.0209 76.9271 86.7259C76.421 87.431 75.6979 88.0275 74.7578 88.5156C73.8178 88.9856 72.706 89.2206 71.4225 89.2206C70.0305 89.2206 68.7922 88.9043 67.7075 88.2716C66.6409 87.6208 65.8094 86.744 65.2128 85.6413C64.6162 84.5385 64.318 83.3183 64.318 81.9805C64.318 80.6428 64.6162 79.4316 65.2128 78.3469C65.8094 77.2442 66.6409 76.3765 67.7075 75.7437C68.7922 75.0929 70.0305 74.7675 71.4225 74.7675C72.7241 74.7675 73.8359 75.0116 74.7578 75.4997C75.6979 75.9697 76.421 76.5572 76.9271 77.2623C77.4514 77.9673 77.7587 78.6633 77.8491 79.3502V79.4316C77.8491 79.5762 77.8129 79.6576 77.7406 79.6756L74.107 80.1637H74.0528C73.9262 80.1637 73.8449 80.1095 73.8087 80.001C73.6641 79.4768 73.3929 79.0429 72.9952 78.6994C72.6156 78.3379 72.1185 78.1571 71.5038 78.1571C70.6 78.1571 69.8949 78.5096 69.3887 79.2146C68.9006 79.9197 68.6566 80.8416 68.6566 81.9805C68.6566 83.1375 68.9006 84.0685 69.3887 84.7735C69.8949 85.4786 70.6 85.8311 71.5038 85.8311C72.1185 85.8311 72.6156 85.6593 72.9952 85.3159C73.3749 84.9543 73.646 84.5204 73.8087 84.0143C73.8449 83.8877 73.9443 83.8335 74.107 83.8516L77.7406 84.3397Z" fill="white"/>
</svg>
