<svg width="24" height="24" viewBox="0 0 24 24" fill="none" xmlns="http://www.w3.org/2000/svg">
<g clip-path="url(#clip0_1859_32322)">
<path d="M12 24C18.6274 24 24 18.6274 24 12C24 5.37258 18.6274 0 12 0C5.37258 0 0 5.37258 0 12C0 18.6274 5.37258 24 12 24Z" fill="white"/>
<path d="M13.168 12.0001C13.168 14.8598 10.8656 17.178 8.02537 17.178C5.18522 17.178 2.88281 14.8598 2.88281 12.0001C2.88281 9.14047 5.18522 6.82227 8.02542 6.82227C10.8656 6.82227 13.168 9.14047 13.168 12.0001Z" fill="black"/>
<path d="M18.8096 12C18.8096 14.6919 17.6584 16.8741 16.2383 16.8741C14.8182 16.8741 13.667 14.6919 13.667 12C13.667 9.30815 14.8182 7.12598 16.2383 7.12598C17.6584 7.12598 18.8096 9.30815 18.8096 12Z" fill="black"/>
<path d="M21.1173 12.0003C21.1173 14.4121 20.7124 16.3672 20.2129 16.3672C19.7135 16.3672 19.3086 14.4121 19.3086 12.0003C19.3086 9.58846 19.7134 7.6333 20.2129 7.6333C20.7124 7.6333 21.1173 9.58846 21.1173 12.0003Z" fill="black"/>
</g>
<defs>
<clipPath id="clip0_1859_32322">
<rect width="24" height="24" fill="white"/>
</clipPath>
</defs>
</svg>
