<svg width="94" height="15" viewBox="0 0 94 15" fill="none" xmlns="http://www.w3.org/2000/svg">
<g clip-path="url(#clip0_1859_31668)">
<path d="M14.0931 7.55623C14.0931 11.4846 10.9382 14.6694 7.04641 14.6694C3.1546 14.6694 0 11.4856 0 7.55623C0 3.62687 3.15484 0.443319 7.04641 0.443319C10.938 0.443319 14.0931 3.62783 14.0931 7.55623ZM21.8233 7.55623C21.8233 11.2543 20.2458 14.252 18.3 14.252C16.3542 14.252 14.7767 11.2534 14.7767 7.55623C14.7767 3.85908 16.3542 0.860484 18.3 0.860484C20.2458 0.860484 21.8233 3.85908 21.8233 7.55623ZM24.9851 7.55623C24.9851 10.8696 24.4302 13.5553 23.7459 13.5553C23.0616 13.5553 22.5067 10.8686 22.5067 7.55623C22.5067 4.24386 23.0616 1.55712 23.7461 1.55712C24.4307 1.55712 24.9851 4.24314 24.9851 7.55623ZM44.4327 1.06007L44.4523 1.05575V0.903424H40.4449L36.7239 9.67132L33.003 0.903424H28.6845V1.05575L28.7039 1.06007C29.4354 1.22559 29.8067 1.47244 29.8067 2.36266V12.7846C29.8067 13.6748 29.4339 13.9217 28.7025 14.0872L28.6831 14.0915V14.2443H31.613V14.092L31.5936 14.0877C30.8622 13.9221 30.4908 13.6753 30.4908 12.7851V2.96718L35.2708 14.2443H35.5419L40.4612 2.65269V13.0425C40.3985 13.7456 40.0305 13.9627 39.3682 14.1126L39.3485 14.1172V14.2683H44.4523V14.1172L44.4327 14.1126C43.7696 13.9627 43.3928 13.7456 43.3301 13.0425L43.3267 2.36266H43.3301C43.3301 1.47244 43.7014 1.22559 44.4327 1.06007ZM46.7639 7.96404C46.8474 6.09148 47.5181 4.73995 48.6437 4.71668C48.9908 4.72244 49.282 4.83662 49.5084 5.05636C49.9893 5.52438 50.2155 6.5024 50.1805 7.96404H46.7639ZM46.7134 8.49179H52.6953V8.46661C52.6783 7.03472 52.2646 5.92092 51.4669 5.15615C50.7773 4.49526 49.7563 4.13159 48.6839 4.13159H48.6599C48.1034 4.13159 47.4207 4.26689 46.935 4.51206C46.382 4.76874 45.8944 5.15256 45.4886 5.65632C44.8354 6.46786 44.4396 7.56463 44.3434 8.79717C44.3403 8.83411 44.3377 8.87106 44.335 8.908C44.3324 8.94494 44.3307 8.97805 44.3291 9.01331C44.3206 9.18661 44.3177 9.36014 44.3205 9.53363C44.3853 12.3252 45.8894 14.5562 48.5609 14.5562C50.9058 14.5562 52.2713 12.8376 52.6118 10.5308L52.4398 10.4701C51.8416 11.7099 50.7672 12.4612 49.5445 12.3696C47.8754 12.2444 46.5967 10.5476 46.7127 8.49227M59.4586 12.2748C59.2624 12.7414 58.853 12.9981 58.3044 12.9981C57.7557 12.9981 57.2542 12.6205 56.8979 11.9344C56.5151 11.198 56.3136 10.1569 56.3136 8.92359C56.3136 6.35679 57.1099 4.69653 58.3424 4.69653C58.8586 4.69653 59.2648 4.95321 59.4586 5.40108V12.2748ZM63.4268 14.1047C62.6953 13.9312 62.324 13.6729 62.324 12.7373V0.289551L57.8799 1.60222V1.76294L57.9072 1.76078C58.5202 1.71113 58.9361 1.79605 59.1775 2.01962C59.3665 2.19474 59.4586 2.46341 59.4586 2.84148V4.54804C59.0205 4.26761 58.4994 4.13111 57.867 4.13111C56.5845 4.13111 55.4123 4.67254 54.5669 5.65584C53.6857 6.68064 53.2198 8.08111 53.2198 9.70539C53.2194 12.6063 54.644 14.5562 56.7639 14.5562C58.0041 14.5562 59.0019 13.8749 59.4586 12.7258V14.2683H63.4462V14.1085L63.4268 14.1047ZM67.2382 1.98244C67.2382 1.07662 66.557 0.393422 65.6532 0.393422C64.7538 0.393422 64.0501 1.0915 64.0501 1.98244C64.0501 2.87338 64.7545 3.57146 65.6532 3.57146C66.557 3.57146 67.2382 2.88826 67.2382 1.98244ZM68.2872 14.1047C67.5557 13.9312 67.1844 13.6729 67.1844 12.7373H67.1812V4.16062L63.1935 5.30848V5.46441L63.2174 5.46657C64.0803 5.54357 64.3164 5.84151 64.3164 6.8524V14.2683H68.3075V14.1085L68.2872 14.1047ZM78.5054 14.1047C77.774 13.9312 77.4026 13.6729 77.4026 12.7373V4.16062L73.6058 5.27058V5.42699L73.6283 5.42939C74.3337 5.50375 74.5375 5.81872 74.5375 6.83417V12.2556C74.3023 12.7222 73.8611 12.9993 73.3266 13.018C72.4597 13.018 71.9823 12.431 71.9823 11.3652V4.16086L67.9945 5.30872V5.46441L68.0185 5.46657C68.8813 5.54333 69.1177 5.84127 69.1177 6.8524V11.4407C69.1157 11.761 69.1435 12.0808 69.2007 12.396L69.2725 12.709C69.6101 13.9219 70.4947 14.5562 71.8806 14.5562C73.0545 14.5562 74.0834 13.8276 74.5366 12.6877V14.2709H78.5243V14.1112L78.5054 14.1047ZM93.9968 14.2683V14.1083L93.9774 14.1037C93.1838 13.9202 92.8746 13.5743 92.8746 12.87V7.03591C92.8746 5.21685 91.8555 4.13111 90.1486 4.13111C88.9043 4.13111 87.8551 4.85198 87.4512 5.97489C87.1303 4.78505 86.207 4.13111 84.8417 4.13111C83.6424 4.13111 82.7025 4.76562 82.2994 5.83744V4.16134L78.3116 5.26218V5.41907L78.3355 5.42123C79.1881 5.49703 79.4345 5.80361 79.4345 6.78859V14.2683H83.1553V14.1085L83.1356 14.1037C82.5025 13.9545 82.2982 13.6825 82.2982 12.9844V6.2973C82.4657 5.90508 82.8033 5.44042 83.4706 5.44042C84.2995 5.44042 84.7196 6.01615 84.7196 7.15034V14.2683H88.4413V14.1085L88.4217 14.1037C87.7886 13.9545 87.5842 13.6825 87.5842 12.9844V7.0352C87.5859 6.81275 87.5682 6.59058 87.5316 6.37119C87.7091 5.94491 88.0661 5.44042 88.7607 5.44042C89.6013 5.44042 90.0098 5.9996 90.0098 7.15034V14.2683H93.9968Z" fill="white"/>
</g>
<defs>
<clipPath id="clip0_1859_31668">
<rect width="94" height="14.4205" fill="white" transform="translate(0 0.290039)"/>
</clipPath>
</defs>
</svg>
