<svg width="24" height="24" viewBox="0 0 24 24" fill="none" xmlns="http://www.w3.org/2000/svg">
<path d="M14.001 2.26995V6.40049C14.001 6.96054 14.001 7.24057 14.11 7.45448C14.2058 7.64264 14.3588 7.79562 14.547 7.89149C14.7609 8.00049 15.0409 8.00049 15.601 8.00049H19.7315M20.001 9.98871V17.2005C20.001 18.8806 20.001 19.7207 19.674 20.3625C19.3864 20.9269 18.9274 21.3859 18.3629 21.6735C17.7212 22.0005 16.8811 22.0005 15.201 22.0005H8.80098C7.12082 22.0005 6.28074 22.0005 5.639 21.6735C5.07452 21.3859 4.61558 20.9269 4.32796 20.3625C4.00098 19.7207 4.00098 18.8806 4.00098 17.2005V6.80049C4.00098 5.12033 4.00098 4.28025 4.32796 3.63852C4.61558 3.07403 5.07452 2.61509 5.639 2.32747C6.28074 2.00049 7.12082 2.00049 8.80098 2.00049H12.0128C12.7465 2.00049 13.1134 2.00049 13.4587 2.08338C13.7648 2.15687 14.0574 2.27808 14.3258 2.44257C14.6286 2.62809 14.888 2.88752 15.4069 3.40638L18.5951 6.5946C19.1139 7.11346 19.3734 7.37288 19.5589 7.67563C19.7234 7.94405 19.8446 8.23668 19.9181 8.54279C20.001 8.88806 20.001 9.25494 20.001 9.98871Z" stroke="white" stroke-width="2" stroke-linecap="round" stroke-linejoin="round"/>
</svg>
