<svg width="1022" height="839" viewBox="0 0 1022 839" fill="none" xmlns="http://www.w3.org/2000/svg">
<mask id="mask0_1151_12659" style="mask-type:alpha" maskUnits="userSpaceOnUse" x="0" y="0" width="962" height="682">
<rect y="0.595703" width="961.577" height="680.543" fill="#7921B6"/>
</mask>
<g mask="url(#mask0_1151_12659)">
<path d="M934.107 311.586V311.598C933.058 314.186 931.317 316.547 928.92 318.371C925.951 320.613 922.565 323.069 918.999 325.382C910.76 330.76 905.263 339.513 904.452 349.326C902.341 375.058 895.354 397.368 880.926 414.396C882.929 415.445 884.729 416.626 886.315 417.902C896.224 425.807 898.12 437.541 893.362 447.545V447.557C890.036 454.592 883.418 460.769 874.01 464.203C871.684 465.038 869.538 466.242 867.642 467.768C865.126 469.783 863.087 472.359 861.716 475.352C857.662 484.211 854.848 494.502 853.047 505.973C847.932 538.478 821.687 563.65 788.907 566.559C788.609 566.583 788.311 566.607 788.013 566.631C788.8 568.682 789.504 570.697 790.147 572.688C791.042 575.431 791.805 578.126 792.449 580.761C792.449 580.809 792.461 580.856 792.485 580.892C792.544 581.166 792.616 581.429 792.663 581.703C813.054 668.582 702.887 699.859 664.444 661.308C663.454 660.319 662.667 659.257 662.071 658.172C660.604 655.525 660.246 652.663 660.723 649.992C662.083 642.313 670.31 636.101 679.146 640.358C679.301 640.429 679.456 640.513 679.623 640.584C685.49 643.553 692.382 644.006 698.344 641.228C714.084 633.871 714.966 616.021 700.073 600.913C692.394 592.065 683.486 584.756 674.233 577.947C674.233 577.947 674.221 577.947 674.197 577.923C672.612 576.754 671.026 575.61 669.428 574.477C669.392 574.453 669.356 574.417 669.332 574.394C651.196 561.42 632.332 549.639 619.227 531.407C619.18 531.359 619.144 531.312 619.108 531.252C614.696 525.087 610.952 518.207 608.126 510.289C607.983 509.908 607.828 509.526 607.697 509.133C604.847 500.869 602.975 491.497 602.367 480.706V480.694C602.331 480.324 602.319 479.955 602.295 479.585C602.14 481.028 601.985 482.459 601.818 483.866C601.806 483.937 601.794 484.021 601.782 484.092V484.116C590.419 574.596 513.723 626.74 450.06 591.23C444.444 588.094 438.935 584.279 433.569 579.747C427.834 581.441 424.364 584.565 422.79 588.905C421.49 592.494 421.502 596.93 422.635 602.057C424.757 611.692 430.111 620.301 437.48 626.848L444.897 633.442H444.909L458.49 645.509C461.114 647.846 463.344 650.624 464.834 653.808C465.907 656.109 466.503 658.291 466.67 660.342C468.185 678.229 437.122 686.182 403.556 672.553C331.117 634.038 314.829 573.177 334.599 522.452C342.35 502.551 355.657 484.211 373.293 469.402C373.507 469.223 373.722 469.032 373.949 468.853C372.422 468.472 370.92 468.078 369.429 467.661C358.936 464.763 349.254 460.971 340.442 456.238C340.156 456.083 339.869 455.916 339.571 455.749C335.875 453.745 332.345 451.551 328.971 449.19C317.81 441.392 308.378 431.71 300.842 419.988C300.735 419.833 300.639 419.69 300.544 419.535C293.902 409.125 288.715 397.106 285.114 383.393C284.649 381.581 284.172 379.78 283.671 378.004C272.164 336.925 250.677 306.459 213.021 314.126C206.88 315.378 201.955 311.646 200.274 306.757V306.745C198.974 303.013 199.582 298.613 202.957 295.238C213.498 284.709 236.929 281.144 256.496 283.732C317.309 294.761 343.542 388.962 421.049 365.114C404.105 336.746 393.111 307.592 388.15 278.938C373.281 260.015 373.722 237.371 386.302 222.406C395.018 146.211 450.68 80.4137 554.897 52.3682C580.796 45.3926 607.577 42.9839 633.882 45.3091C659.197 47.5389 684.094 54.1449 707.37 65.282C766.764 93.721 808.415 145.937 816.655 210.017C835.042 223.574 837.868 252.383 812.243 281.657C804.337 314.21 788.251 348.372 762.472 383C777.806 387.745 792.973 387.865 807.807 378.588C807.819 378.588 807.831 378.576 807.843 378.564C813.912 374.772 819.922 369.406 825.872 362.133L864.625 310.859C882.047 285.055 914.361 276.577 931.138 294.833C935.466 299.531 936.337 306.077 934.107 311.586V311.586Z" fill="#8366ED"/>
<path d="M664.438 661.309C663.449 660.32 662.662 659.258 662.065 658.173C807.182 677.264 760.928 536.917 760.356 535.176L788.234 565.821L788.902 566.56C788.604 566.584 788.306 566.608 788.008 566.632C788.795 568.683 789.498 570.698 790.142 572.689C791.037 575.432 791.8 578.127 792.444 580.762C792.444 580.81 792.455 580.857 792.479 580.893C792.539 581.168 792.611 581.43 792.658 581.704C813.048 668.583 702.882 699.86 664.438 661.309V661.309Z" fill="#380175"/>
<path d="M436.67 463.248C481.8 457.028 515.44 435.811 527.171 385.994C527.171 385.994 537.676 403.573 533.615 424.621C523.296 501.283 470.367 513.742 436.67 463.248V463.248Z" fill="#380175"/>
<path d="M428.435 374.032C428.435 374.032 451.065 408.263 417.97 427.628L426.978 439.114C426.978 439.114 457.811 418.747 467.548 403.358C453.404 396.893 440.202 387.611 428.433 374.032H428.435Z" fill="#380175"/>
<path d="M376.925 467.66H368.28C368.28 467.66 299.215 453.304 281.425 374.617C297.832 400.015 322.742 425.783 355.342 422.981L367.207 442.548L376.925 467.66V467.66Z" fill="#380175"/>
<path d="M660.721 649.992C662.08 642.313 670.308 636.101 679.143 640.357C679.298 640.429 679.453 640.513 679.62 640.584C685.487 643.553 692.379 644.006 698.341 641.228C714.081 633.871 714.963 616.02 700.07 600.913C665.49 561.062 605.87 552.322 602.293 479.585C593.671 565.796 526.205 618.87 464.927 597.884C464.891 597.872 464.855 597.86 464.808 597.836C464.211 597.622 463.603 597.395 462.983 597.18C462.816 597.121 462.637 597.061 462.471 596.99C458.297 595.427 454.148 593.508 450.058 591.23C444.441 588.094 438.932 584.278 433.567 579.747C433.34 579.819 433.125 579.878 432.911 579.962C417.564 566.786 411.936 552.99 411.936 552.99C411.936 552.99 378.394 462.331 363.811 436.956C358.039 426.916 356.513 420.107 356.799 415.54C356.799 415.338 356.823 415.147 356.847 414.956C357.085 414.718 357.312 414.491 357.527 414.265C360.102 411.665 361.783 409.984 361.783 409.984C361.783 409.984 382.889 412.81 397.198 443.812C411.507 474.815 439.6 572.593 534.361 544.571C595.734 524.896 612.44 483.198 602.293 419.368C613.37 470.499 640.509 508.477 684.175 532.886C697.173 540.147 709.18 549.138 719.244 560.12C783.265 629.9 715.56 683.761 660.721 649.992V649.992Z" fill="white"/>
<path d="M934.104 311.585V311.597C933.055 314.185 931.314 316.546 928.917 318.37C925.948 320.612 922.562 323.068 918.996 325.381C910.757 330.759 905.26 339.511 904.449 349.325C902.338 375.057 895.351 397.367 880.923 414.395C882.926 415.444 884.726 416.625 886.312 417.901C885.752 417.793 885.18 417.686 884.595 417.579C838.091 408.635 824.82 443.812 805.682 460.207C786.77 476.4 757.413 449.07 756.709 448.402L756.697 448.39C745.346 441.653 738.024 420.357 738.024 420.357L754.527 424.34C844.888 454.543 878.132 336.888 897.211 317.023C907.943 304.3 921.465 304.3 934.104 311.585V311.585Z" fill="white"/>
<path d="M373.292 469.401C373.506 469.222 373.721 469.031 373.947 468.853C328.469 457.584 297.514 430.552 285.113 383.392C273.988 339.631 252.31 306.124 213.02 314.125C206.879 315.377 201.954 311.645 200.273 306.756V306.744C216.549 295.953 251.725 291.613 277.064 320.397C309.271 358.769 326.275 409.339 358.625 412.976C358.625 412.976 350.91 418.426 360.843 432.508C370.776 446.59 381.674 470.677 381.674 470.677L373.292 469.401V469.401Z" fill="white"/>
<path d="M893.359 447.544V447.556C890.032 454.591 883.415 460.768 874.006 464.202C868.581 466.17 864.109 470.105 861.713 475.351C857.659 484.211 854.844 494.501 853.044 505.972C847.928 538.478 821.683 563.649 788.904 566.559C788.606 566.583 788.308 566.606 788.01 566.63C788.797 568.681 789.5 570.696 790.144 572.688C779.055 543.986 737.607 510.194 734.804 507.928C758.7 525.719 806.576 531.848 818.917 493.893C838.389 434.678 882.89 426.319 893.359 447.544V447.544Z" fill="white"/>
<path d="M466.666 660.342C389.649 654.034 355.248 579.747 396.815 516.68C396.815 516.68 416.514 569.862 440.314 583.718C444.07 585.9 447.302 588.464 450.056 591.23C444.44 588.094 438.931 584.278 433.565 579.747C423.072 582.847 420.139 590.741 422.631 602.057C424.753 611.692 430.107 620.301 437.476 626.847L458.486 645.508C461.11 647.846 463.34 650.624 464.83 653.808C465.903 656.109 466.499 658.291 466.666 660.342Z" fill="white"/>
<path d="M416.326 366.437C417.84 369.18 419.414 371.923 421.048 374.653C343.541 398.501 317.308 304.301 256.495 293.271C236.928 290.684 213.497 294.249 202.956 304.778C201.99 305.744 201.263 306.781 200.726 307.878C198.89 303.931 199.224 298.959 202.956 295.239C213.497 284.71 236.928 281.144 256.495 283.732C316.056 294.535 342.444 385.123 416.326 366.437Z" fill="white"/>
<path d="M407.573 674.081C406.237 673.615 404.902 673.103 403.554 672.554C303.499 619.361 310.57 523.551 371.8 470.679C376.355 472.265 381.077 473.66 385.978 474.876C324.497 525.912 314.875 619.492 407.573 674.081Z" fill="white"/>
<path d="M716.657 70.0161C669.843 48.4454 616.769 44.9755 566.926 58.3901C417.884 98.504 359.628 248.167 433.078 371.135C428.797 372.447 424.671 373.401 420.689 374.033C419.174 371.505 417.719 368.977 416.324 366.437C417.874 366.044 419.448 365.603 421.046 365.114C404.102 336.746 393.108 307.592 388.148 278.938C373.278 260.015 373.72 237.371 386.299 222.406C395.016 146.211 450.678 80.4139 554.894 52.3684C605.715 38.6915 659.898 42.5668 707.368 65.2822C710.516 66.7847 713.616 68.3587 716.657 70.0161Z" fill="white"/>
<path d="M928.19 292.031C911.198 287.906 889.734 297.517 876.654 316.881L837.9 368.155C817.403 393.207 796.118 395.712 774.5 389.022C775.263 387.997 776.014 386.971 776.765 385.946C793.471 387.472 809.914 381.641 825.869 362.133L864.622 310.86C881.077 286.499 910.804 277.579 928.19 292.031V292.031Z" fill="white"/>
<g opacity="0.6">
<path d="M250.342 321.123C242.865 318.69 234.459 318.225 225.051 320.145C219.506 321.278 214.951 318.333 212.888 314.147C212.936 314.135 212.972 314.135 213.019 314.123C227.841 311.107 240.159 313.992 250.342 321.123Z" fill="white"/>
</g>
<path d="M436.55 684.77C425.702 684.77 413.487 682.378 401.534 677.525C401.362 677.456 401.195 677.377 401.033 677.291C354.374 652.485 326.321 615.816 322.041 574.043C318.263 537.179 333.478 499.455 363.026 471.377C319.405 457.785 291.472 428.688 279.92 384.757C267.28 335.041 245.133 313.067 214.087 319.382C206.806 320.873 199.819 317.582 196.292 311.014C192.745 304.406 193.871 296.724 199.163 291.439C211.74 278.879 238.062 275.876 257.197 278.411C257.283 278.421 257.367 278.435 257.45 278.452C284.003 283.269 304.102 302.729 323.538 321.553C349.483 346.677 374.068 370.48 412.879 361.744C397.969 335.394 387.957 308.324 383.09 281.166C368.394 261.627 367.643 237.5 381.153 220.233C391.365 136.963 454.091 73.939 553.499 47.1861C606.528 32.9178 661.997 37.623 709.684 60.441C772.047 90.3037 812.758 143.683 821.677 207.138C829.798 213.873 834.875 223.412 836.051 234.244C837.782 250.184 831.074 267.88 817.141 284.19C809.162 316.244 793.813 348.353 771.467 379.754C791.075 383.577 806.796 376.933 821.651 358.811L860.257 307.733C871.091 291.761 888.138 281.073 904.776 279.825C916.76 278.931 927.52 282.969 935.085 291.201C939.096 295.56 941.097 301.468 940.573 307.406C940.038 313.427 936.976 318.982 932.164 322.64C932.159 322.645 932.154 322.647 932.147 322.652C928.396 325.483 925.047 327.848 921.911 329.883C914.879 334.474 910.457 341.723 909.792 349.765C907.636 376.041 900.758 396.817 888.812 413.053C897.286 419.461 901.822 428.705 901.154 438.721C900.257 452.186 890.558 463.881 875.841 469.242C871.632 470.768 868.351 473.728 866.593 477.579C862.892 485.664 860.118 495.494 858.344 506.803C853.116 540.019 827.594 565.718 795.294 571.145C801.836 591.319 802.279 610.04 796.601 626.879C791.145 643.06 780.038 656.937 764.485 667.006C730.327 689.12 683.742 688.266 660.64 665.098C654.168 658.609 653.35 648.86 658.653 641.393C663.988 633.883 673.16 631.524 681.469 635.524L681.703 635.636C681.81 635.681 681.936 635.743 682.041 635.796C686.685 638.145 691.8 638.354 696.074 636.363C701.158 633.986 704.287 630.28 705.119 625.641C706.273 619.212 703.04 611.571 696.248 604.678C696.167 604.597 696.09 604.514 696.016 604.428C685.373 592.163 671.825 582.657 658.72 573.466C635.905 557.459 612.478 541.023 602.176 509.612C597.471 526.733 590.245 542.602 580.763 556.453C566.64 577.088 548.224 592.43 527.505 600.82C495.212 613.896 460.766 608.418 432.522 585.838C428.525 587.701 425.773 591.388 427.87 600.906C429.703 609.231 434.258 616.815 441.038 622.839L462.049 641.5C465.399 644.486 467.968 647.86 469.687 651.535C473.689 660.083 472.611 668.544 466.723 674.745C460.415 681.389 449.445 684.77 436.548 684.77H436.55ZM405.827 667.685C429.749 677.318 451.596 675.097 458.941 667.356C461.782 664.363 462.12 660.676 459.972 656.086C458.87 653.734 457.169 651.524 454.918 649.518L433.915 630.861C425.43 623.325 419.716 613.765 417.393 603.214C413.024 583.377 424.698 576.774 432.048 574.603C433.781 574.093 435.654 574.484 437.032 575.65C462.945 597.55 493.645 602.959 523.482 590.873C562.92 574.904 591.759 531.011 596.956 479.053C597.235 476.258 599.584 474.136 602.429 474.222C605.238 474.293 607.516 476.516 607.652 479.323C609.955 526.142 636.637 544.862 664.887 564.68C678.478 574.215 692.527 584.071 704.013 597.269C713.204 606.651 717.456 617.673 715.686 627.537C714.232 635.636 708.88 642.225 700.614 646.088C693.374 649.465 684.894 649.222 677.322 645.433C677.2 645.378 677.081 645.321 676.966 645.263C676.935 645.249 676.85 645.206 676.819 645.192C672.59 643.155 669.185 645.104 667.408 647.608C665.588 650.169 664.852 654.118 668.243 657.519C687.624 676.958 729.029 677.179 758.656 657.998C788.481 638.688 797.355 606.086 783 568.548C782.397 566.967 782.573 565.195 783.477 563.764C784.381 562.334 785.907 561.415 787.596 561.282L788.49 561.21C818.582 558.539 842.971 535.478 847.748 505.138C849.675 492.864 852.733 482.089 856.839 473.117C859.804 466.631 865.25 461.67 872.183 459.157C882.679 455.331 889.855 447.03 890.456 438.008C890.971 430.293 886.59 423.418 878.438 419.149C876.996 418.393 875.973 417.022 875.66 415.424C875.348 413.826 875.779 412.171 876.833 410.928C889.635 395.821 896.921 375.526 899.105 348.887C900.045 337.517 906.226 327.312 916.066 320.89C918.995 318.991 922.133 316.771 925.672 314.1C928.083 312.264 929.619 309.481 929.889 306.461C930.151 303.48 929.195 300.642 927.191 298.468C920.399 291.077 911.692 290.071 905.582 290.531C892.099 291.54 878.109 300.48 869.073 313.864C869.021 313.943 868.966 314.019 868.906 314.095L830.153 365.369C830.11 365.424 830.07 365.479 830.024 365.531C810.698 389.153 788.082 396.543 760.886 388.127C759.221 387.612 757.91 386.322 757.371 384.664C756.829 383.009 757.127 381.192 758.167 379.795C782.509 347.099 798.95 313.654 807.027 280.388C807.23 279.549 807.636 278.771 808.205 278.12C820.723 263.818 826.826 248.649 825.386 235.401C824.437 226.665 820.318 219.382 813.469 214.333C812.291 213.463 811.518 212.151 811.332 210.699C803.524 149.96 764.785 98.7221 705.052 70.1186C659.679 48.4072 606.848 43.9404 556.29 57.5482C460.735 83.2637 400.721 143.573 391.632 223.014C391.513 224.061 391.086 225.051 390.409 225.857C378.926 239.517 379.713 259.516 392.369 275.621C392.918 276.32 393.285 277.145 393.437 278.02C398.355 306.426 409.194 334.8 425.656 362.359C426.501 363.773 426.651 365.498 426.057 367.036C425.466 368.574 424.202 369.755 422.628 370.239C373.887 385.239 344.499 356.779 316.079 329.258C296.986 310.771 278.949 293.304 255.664 289.031C235.725 286.422 215.167 290.621 206.749 299.03C204.491 301.286 204.753 304.074 205.752 305.934C206.229 306.822 208.082 309.657 211.953 308.865C237.868 303.583 272.506 312.001 290.318 382.067C301.772 425.624 329.555 452.322 375.241 463.64C377.206 464.127 378.73 465.677 379.181 467.651C379.632 469.626 378.935 471.684 377.378 472.977C345.698 499.277 329.004 536.649 332.725 572.944C336.622 610.972 362.58 644.608 405.831 667.678L405.827 667.685Z" fill="#380175"/>
<path d="M816.283 285.187C807.416 293.49 797.552 300.135 787.336 305.772C786.465 306.252 785.373 305.937 784.893 305.069C784.474 304.31 784.662 303.38 785.294 302.837L785.301 302.832C793.975 295.374 801.895 287.147 808.2 278.13C809.908 275.688 813.273 275.092 815.717 276.799C818.159 278.507 818.756 281.872 817.048 284.314C816.836 284.617 816.597 284.893 816.337 285.141L816.287 285.187H816.283Z" fill="#380175"/>
<path d="M783.044 568.667C780.361 562.395 775.957 556.397 771.068 550.749C766.15 545.09 760.689 539.708 755.101 534.39C749.499 529.079 743.764 523.808 738.019 518.461C732.288 513.098 726.51 507.689 721.022 501.846L721.366 502.185C714.562 496.089 708.302 489.343 702.797 482.024C697.269 474.726 692.361 466.971 688.229 458.838C684.058 450.728 680.747 442.221 678.081 433.581C677.473 431.401 676.765 429.257 676.242 427.058C675.737 424.857 675.176 422.673 674.719 420.467C674.296 418.254 673.843 416.05 673.45 413.839L672.479 407.178C672.336 406.201 673.016 405.292 673.994 405.149C674.895 405.018 675.739 405.583 675.975 406.439L675.994 406.508L677.759 412.857C678.379 414.958 679.054 417.042 679.698 419.131C680.375 421.211 681.15 423.255 681.868 425.31C682.619 427.356 683.44 429.374 684.22 431.403C687.473 439.469 691.448 447.191 695.896 454.567C700.377 461.929 705.414 468.921 710.982 475.446C716.572 481.954 722.549 488.112 728.861 493.941L728.918 493.993C729.016 494.084 729.116 494.184 729.205 494.282C734.313 499.876 739.772 505.292 745.4 510.611L762.499 526.608C768.201 532.036 773.867 537.607 779.181 543.717C784.449 549.841 789.507 556.492 792.982 564.591C794.15 567.314 792.889 570.469 790.165 571.638C787.442 572.807 784.287 571.545 783.118 568.822V568.817L783.049 568.664L783.044 568.667Z" fill="#380175"/>
<path d="M536.115 406.81C536.737 416.697 536.353 426.706 534.781 436.62C533.122 446.51 530.205 456.295 525.705 465.502C525.19 466.676 524.536 467.782 523.914 468.908C523.275 470.024 522.686 471.169 521.985 472.254C520.549 474.4 519.185 476.606 517.52 478.619C515.989 480.725 514.16 482.613 512.395 484.562C510.473 486.365 508.606 488.246 506.443 489.825C502.231 493.076 497.54 495.928 492.308 497.707C487.116 499.527 481.481 500.445 475.862 500.087C473.046 499.987 470.265 499.438 467.558 498.725L463.566 497.421C462.295 496.858 461.031 496.276 459.774 495.687C454.861 493.128 450.442 489.849 446.588 486.112C445.627 485.175 444.757 484.173 443.839 483.202L442.482 481.733C442.05 481.23 441.661 480.698 441.249 480.183L438.816 477.057C438.058 475.986 437.364 474.882 436.634 473.794C435.122 471.643 433.939 469.342 432.661 467.081C432.027 465.977 431.397 464.758 430.846 463.549C430.288 462.345 429.775 461.148 429.289 459.967L427.899 456.576C427.436 455.491 427.009 454.389 426.52 453.316L425.058 450.101C424.56 449.035 424.021 447.993 423.506 446.937C421.383 442.749 419.056 438.683 416.475 434.817C411.312 427.128 405.126 420.091 397.809 415.118C394.165 412.664 390.268 410.656 386.255 409.645C382.255 408.562 378.182 408.438 374.393 409.38C370.589 410.291 367.095 412.342 364.069 415.13C363.382 415.834 362.457 416.692 362.128 417.148C361.713 417.715 361.357 418.319 361.1 418.97C360.864 419.628 360.709 420.312 360.644 421.013C360.597 421.715 360.661 422.421 360.799 423.107C360.933 423.799 361.221 424.445 361.546 425.063L361.81 425.516L362.123 425.943C362.213 426.096 362.354 426.212 362.466 426.348L362.927 426.871L365.598 429.811C366.485 430.794 367.25 431.855 368.08 432.876C371.266 437.03 374.109 441.394 376.51 445.906C378.948 450.404 381.135 454.992 383.059 459.633C385.029 464.265 386.78 468.944 388.437 473.627C395.05 492.355 400.087 511.253 406.986 529.17C408.715 533.639 410.53 538.056 412.559 542.332C414.536 546.641 416.773 550.776 419.168 554.776C421.562 558.782 424.288 562.51 427.183 566.056C430.143 569.54 433.403 572.693 436.887 575.54L437.018 575.648C439.312 577.522 439.651 580.904 437.777 583.198C435.902 585.492 432.532 585.843 430.238 583.968C426.134 580.632 422.352 576.952 418.975 572.974C415.676 568.949 412.626 564.751 409.996 560.354C407.363 555.963 404.945 551.475 402.841 546.889C400.676 542.322 398.768 537.681 396.967 533.026C389.806 514.391 384.75 495.384 378.316 477.209C376.711 472.669 375.027 468.178 373.167 463.804C371.347 459.407 369.311 455.152 367.088 451.048C364.896 446.92 362.361 443.064 359.6 439.458C358.884 438.582 358.221 437.65 357.465 436.82L355.202 434.326L354.441 433.481C354.158 433.152 353.855 432.84 353.607 432.482L352.841 431.423C352.607 431.056 352.39 430.677 352.171 430.3C351.334 428.771 350.671 427.135 350.313 425.425C349.951 423.72 349.81 421.967 349.934 420.227C350.077 418.488 350.459 416.771 351.072 415.13C351.706 413.499 352.584 411.97 353.635 410.58C354.809 409.097 355.722 408.331 356.745 407.284C360.883 403.44 366.075 400.342 371.815 398.966C377.529 397.537 383.55 397.8 388.981 399.271C394.471 400.678 399.39 403.256 403.843 406.251C408.295 409.273 412.247 412.822 415.798 416.647C419.349 420.477 422.537 424.572 425.385 428.848C428.235 433.124 430.777 437.564 433.078 442.103C433.636 443.245 434.221 444.378 434.76 445.527L436.336 448.992C436.863 450.146 437.323 451.327 437.817 452.491L439.21 455.889C439.656 456.972 440.106 458.024 440.576 459.037C441.039 460.053 441.533 461.009 442.122 462.025C443.257 464.021 444.304 466.084 445.618 467.937C446.252 468.882 446.856 469.852 447.509 470.778L449.589 473.441C449.937 473.883 450.268 474.34 450.633 474.767L451.773 475.988C452.541 476.79 453.261 477.653 454.062 478.411C457.265 481.454 460.819 483.999 464.627 485.883C468.417 487.831 472.521 488.802 476.642 489.229C480.777 489.577 485.005 489.181 489.119 487.994C493.252 486.854 497.173 484.76 500.829 482.244C502.703 481.044 504.368 479.513 506.104 478.073C507.704 476.47 509.386 474.939 510.828 473.15C512.388 471.472 513.7 469.568 515.092 467.725C515.772 466.79 516.352 465.781 517 464.818C517.63 463.84 518.29 462.881 518.825 461.842C523.465 453.736 526.823 444.774 529.013 435.487C531.24 426.193 532.27 416.568 532.53 406.895V406.886C532.556 405.896 533.379 405.116 534.369 405.145C535.301 405.169 536.048 405.91 536.107 406.821L536.115 406.81Z" fill="#380175"/>
<path d="M695.871 665.1C683.086 665.1 669.963 661.284 658.225 654.058C655.98 652.678 655.282 649.739 656.662 647.498C658.043 645.254 660.981 644.555 663.223 645.936C690.56 662.763 718.925 655.358 731.734 639.842C738.831 631.247 741.686 620.308 739.993 608.215C737.999 593.985 729.609 578.467 715.734 563.34C706.553 553.331 695.153 544.485 681.849 537.047C648.728 518.531 624.563 492.048 609.674 458.048C608.956 474.472 605.541 488.585 599.405 500.686C587.977 523.22 567.177 539.06 535.816 549.114C446.77 575.45 413.695 495.69 397.805 457.361C395.94 452.861 394.327 448.976 392.87 445.813C379.978 417.882 361.877 414.823 361.114 414.706C358.527 414.31 356.719 411.901 357.088 409.311C357.461 406.721 359.838 404.921 362.421 405.257C363.389 405.388 386.298 408.813 401.53 441.819C403.068 445.15 404.711 449.119 406.616 453.71C422.578 492.21 452.279 563.874 533.01 540.002C588.762 522.128 608.105 486.267 597.586 420.122C597.18 417.572 598.878 415.161 601.416 414.684C603.96 414.207 606.412 415.839 606.958 418.362C617.74 468.114 644.502 505.246 686.504 528.724C700.696 536.658 712.896 546.136 722.765 556.894C757.621 594.893 754.054 627.794 739.094 645.919C730.547 656.274 717.831 662.932 703.293 664.666C700.841 664.959 698.363 665.102 695.874 665.102L695.871 665.1Z" fill="#380175"/>
<path d="M880.297 419.726C870.913 418.615 861.454 420.175 852.781 424.105C844.095 428.047 836.213 434.076 829.102 441.006C821.873 447.891 816.054 456.183 809.449 463.922C802.952 471.78 796.714 479.974 790.038 487.989L790.031 487.996C789.182 489.017 787.663 489.158 786.64 488.306C785.796 487.605 785.557 486.444 785.977 485.488C790.208 475.865 795.259 466.638 801.004 457.75C806.654 448.768 813.989 440.927 821.613 433.317C829.331 425.81 838.128 418.977 848.371 414.32C853.484 412.009 858.955 410.328 864.569 409.424C870.183 408.517 875.935 408.413 881.546 409.066C884.489 409.407 886.6 412.071 886.259 415.014C885.918 417.957 883.254 420.067 880.311 419.726H880.297V419.726Z" fill="#380175"/>
<path d="M931.725 315.715C929.777 314.646 927.798 313.65 925.763 312.951C923.734 312.271 921.683 311.718 919.646 311.549C917.612 311.377 915.602 311.446 913.658 311.83C911.724 312.262 909.864 312.975 908.082 313.931C906.348 314.992 904.648 316.18 903.129 317.699C902.735 318.033 902.349 318.46 901.965 318.891L900.806 320.163L899.74 321.405C899.38 321.808 899.027 322.23 898.712 322.7C896.072 326.294 893.642 330.572 891.267 334.829C886.535 343.441 881.93 352.322 876.936 361.036C871.964 369.767 866.62 378.355 860.715 386.637C854.791 394.886 848.3 402.925 840.515 409.767C832.774 416.617 823.982 422.481 814.335 426.547C804.703 430.656 794.145 432.471 783.828 432.223C778.658 432.135 773.538 431.457 768.549 430.379L764.828 429.48C763.596 429.165 762.343 428.932 761.151 428.481L753.958 426.029C753.024 425.712 752.525 424.696 752.845 423.764C753.143 422.886 754.056 422.393 754.941 422.603L755.094 422.638L762.215 424.334C763.386 424.67 764.6 424.787 765.797 424.985L769.386 425.538L771.177 425.815L772.982 425.925L776.583 426.146L778.377 426.273C778.975 426.306 779.574 426.254 780.172 426.249L783.754 426.156C793.286 425.717 802.587 423.339 811.061 419.23C819.546 415.105 827.156 409.317 834 402.708C840.814 396.067 847.229 388.86 852.94 381.014C858.662 373.175 863.77 364.83 868.649 356.309C873.538 347.784 878.084 339.017 882.918 330.215C885.391 325.807 887.842 321.4 891.081 316.976C891.462 316.418 891.904 315.882 892.364 315.355L893.723 313.771L895.078 312.29C895.524 311.797 895.972 311.303 896.518 310.821C898.526 308.83 900.892 307.11 903.41 305.613C906 304.201 908.807 303.121 911.733 302.484C914.667 301.895 917.662 301.79 920.574 302.05C923.495 302.307 926.278 303.047 928.947 303.953C931.616 304.878 934.091 306.121 936.49 307.444C938.796 308.718 939.631 311.618 938.36 313.924C937.086 316.228 934.187 317.065 931.88 315.791L931.732 315.71L931.725 315.715Z" fill="#380175"/>
<path d="M743.386 428.43C746.515 433.476 750.407 438.286 754.597 442.572C758.804 446.876 763.459 450.697 768.484 453.766C770.983 455.321 773.604 456.635 776.28 457.741C777.608 458.326 778.982 458.765 780.339 459.237C781.725 459.616 783.086 460.06 784.491 460.317C790.057 461.581 795.778 461.595 801.337 460.749L801.399 460.739C804.006 460.341 806.441 462.134 806.837 464.741C807.233 467.348 805.442 469.782 802.835 470.181C802.713 470.197 802.585 470.214 802.465 470.224C795.721 470.717 788.85 470.109 782.445 468.104C780.828 467.66 779.278 467.028 777.718 466.453C776.194 465.785 774.663 465.146 773.204 464.367C770.263 462.862 767.454 461.147 764.833 459.213C759.562 455.378 754.914 450.868 750.836 445.965C746.754 441.036 743.186 435.854 740.226 430.101C739.776 429.224 740.121 428.146 740.999 427.695C741.831 427.266 742.845 427.557 743.331 428.337L743.386 428.427V428.43Z" fill="#380175"/>
<path d="M777.455 526.74C760.056 526.74 742.761 519.85 731.791 511.625C729.683 510.044 729.256 507.056 730.837 504.948C732.418 502.842 735.408 502.412 737.514 503.994C750.719 513.895 773.692 520.873 792.055 515.059C803.128 511.553 810.638 503.936 814.382 492.42C828.319 450.039 854.28 433.534 872.278 432.272C883.706 431.469 893.186 436.398 897.643 445.451C898.807 447.814 897.834 450.671 895.471 451.838C893.114 453.001 890.25 452.031 889.084 449.665C886.361 444.132 880.484 441.261 872.943 441.79C857.893 442.844 835.9 457.513 823.447 495.387C818.77 509.779 808.909 519.731 794.931 524.155C789.255 525.951 783.348 526.742 777.455 526.742V526.74Z" fill="#380175"/>
<path d="M425.255 361.784C430.592 369.489 436.158 376.882 442.721 383.319C449.251 389.779 456.835 395.219 465.112 399.655C465.985 400.122 466.314 401.207 465.847 402.08C465.415 402.886 464.457 403.227 463.624 402.908C454.607 399.447 445.879 394.749 438.042 388.73C430.172 382.747 423.285 375.633 416.834 368.44L416.829 368.435C414.848 366.225 415.034 362.826 417.242 360.842C419.453 358.86 422.853 359.046 424.835 361.257C424.981 361.417 425.131 361.61 425.253 361.784H425.255Z" fill="#380175"/>
<path d="M404.16 417.888C401.859 417.888 399.832 416.216 399.455 413.869C399.04 411.267 400.81 408.823 403.412 408.406C416.993 406.233 430.377 390.41 434.388 384.495C435.867 382.316 438.833 381.746 441.013 383.224C443.193 384.703 443.763 387.669 442.284 389.849C441.6 390.856 425.311 414.563 404.919 417.826C404.664 417.866 404.411 417.885 404.16 417.885V417.888Z" fill="#380175"/>
<path d="M358.633 417.75C358.454 417.75 358.275 417.74 358.094 417.719C334.372 415.05 319.176 391.219 301.581 363.624C292.967 350.114 284.059 336.148 273.411 323.463C250.624 297.586 218.451 300.417 202.904 310.717C200.705 312.174 197.748 311.57 196.293 309.376C194.838 307.18 195.439 304.22 197.633 302.766C216.059 290.555 253.994 286.973 280.644 317.244C291.767 330.491 300.846 344.726 309.622 358.494C325.903 384.028 339.964 406.081 359.157 408.239C361.776 408.532 363.658 410.893 363.364 413.512C363.09 415.947 361.027 417.747 358.63 417.747L358.633 417.75Z" fill="#380175"/>
<path d="M423.301 434.843C430.813 431.664 437.994 427.598 444.648 422.697C451.306 417.801 457.43 412.078 462.956 405.753C463.605 405.007 464.738 404.925 465.484 405.574C466.178 406.175 466.292 407.201 465.787 407.94C460.903 415.059 455.258 421.75 448.845 427.736C442.437 433.727 435.264 438.995 427.546 443.385L427.527 443.395C425.233 444.7 422.316 443.898 421.012 441.606C419.707 439.312 420.509 436.396 422.803 435.091C422.958 435.003 423.142 434.912 423.301 434.843Z" fill="#380175"/>
<path d="M535.332 431.755C530.259 438.692 524.762 445.365 518.709 451.57C512.657 457.771 506.037 463.504 498.777 468.438C491.525 473.37 483.622 477.481 475.244 480.419C466.873 483.369 458.044 485.127 449.159 485.647L448.76 476.115C456.809 475.924 464.817 474.624 472.52 472.211C480.226 469.807 487.616 466.303 494.53 461.949C508.393 453.223 520.252 441.268 530.569 428.163L535.329 431.752L535.332 431.755Z" fill="#380175"/>
<path d="M466.685 665.107C466.554 665.107 466.423 665.102 466.291 665.09C428.311 661.99 398.045 642.797 383.25 612.429C368.545 582.249 372.129 545.473 392.837 514.053C394.287 511.856 397.246 511.243 399.445 512.696C401.644 514.146 402.252 517.103 400.802 519.304C381.969 547.881 378.614 581.133 391.825 608.253C405.106 635.516 432.532 652.768 467.067 655.587C469.692 655.801 471.645 658.103 471.433 660.729C471.23 663.221 469.144 665.109 466.685 665.109V665.107Z" fill="#380175"/>
<path d="M417.067 560.471C416.419 560.471 415.763 560.321 415.145 559.999C413.101 558.935 412.305 556.417 413.366 554.371C418.555 544.383 419.629 535.349 416.168 530.794C412.822 526.394 405.63 526.843 400.18 527.995C397.932 528.476 395.711 527.031 395.234 524.775C394.757 522.521 396.198 520.303 398.454 519.829C412.593 516.834 419.507 521.393 422.812 525.743C428.414 533.11 427.67 544.948 420.773 558.22C420.029 559.651 418.575 560.469 417.067 560.469V560.471Z" fill="#380175"/>
<path d="M455.15 598.037C454.654 598.037 454.146 597.946 453.655 597.758C451.504 596.93 450.428 594.517 451.258 592.366C454.68 583.463 454.368 576.464 450.376 572.653C445.53 568.031 435.626 568.184 424.524 573.058C422.411 573.986 419.953 573.027 419.025 570.917C418.097 568.806 419.058 566.345 421.167 565.417C435.623 559.067 448.697 559.515 456.138 566.614C459.953 570.254 465.403 578.832 459.047 595.359C458.41 597.019 456.827 598.037 455.15 598.037V598.037Z" fill="#380175"/>
<path d="M480.353 605.783C479.742 605.783 479.122 605.647 478.535 605.363C476.461 604.359 475.595 601.862 476.599 599.787C483.121 586.335 493.655 578.043 504.78 577.606C513.912 577.258 522.034 582.271 527.589 591.753C528.752 593.742 528.085 596.298 526.096 597.465C524.109 598.628 521.55 597.963 520.384 595.972C516.406 589.177 511.124 585.688 505.105 585.948C497.23 586.256 489.184 592.955 484.106 603.429C483.386 604.917 481.898 605.783 480.348 605.783H480.353Z" fill="#380175"/>
<path d="M543.861 585.937C541.85 585.937 540.081 584.482 539.747 582.434C537.863 570.884 541.042 560.541 548.254 554.772C554.724 549.595 563.688 548.736 572.848 552.426C574.985 553.287 576.022 555.717 575.162 557.856C574.301 559.995 571.871 561.028 569.731 560.169C563.352 557.603 557.578 558.001 553.467 561.29C548.642 565.154 546.591 572.556 547.982 581.091C548.354 583.366 546.808 585.513 544.536 585.882C544.309 585.92 544.083 585.937 543.858 585.937H543.861Z" fill="#380175"/>
<path d="M628.528 546.645C627.381 546.645 626.239 546.175 625.413 545.252C623.878 543.533 624.026 540.895 625.745 539.359C632.055 533.724 638.291 525.535 632.189 518.506C626.697 512.184 615.276 510.696 611.074 514.245C609.311 515.733 606.678 515.509 605.193 513.749C603.704 511.986 603.926 509.354 605.689 507.868C613.783 501.035 630.333 503.642 638.492 513.033C641.49 516.484 649.834 529.033 631.309 545.584C630.512 546.294 629.52 546.645 628.528 546.645V546.645Z" fill="#380175"/>
<path d="M699.135 599.801C698.298 599.801 697.456 599.551 696.721 599.031C694.842 597.695 694.401 595.091 695.734 593.212C699.061 588.528 701.951 581.862 696.852 576.692C691.699 571.472 679.734 569.943 670.803 576.11C668.905 577.419 666.308 576.942 664.996 575.047C663.687 573.151 664.164 570.551 666.06 569.239C677.597 561.279 694.074 561.992 702.791 570.83C709.735 577.868 709.642 588.041 702.538 598.046C701.725 599.19 700.437 599.803 699.132 599.803L699.135 599.801Z" fill="#380175"/>
<path d="M657.537 568.22C656.86 568.22 656.175 568.055 655.539 567.707C653.516 566.603 652.772 564.065 653.879 562.043C657.487 555.439 658.04 549.704 655.281 547.434C652.648 545.259 646.46 545.981 639.734 551.559C637.96 553.031 635.327 552.785 633.858 551.011C632.387 549.237 632.63 546.606 634.404 545.135C643.708 537.417 654.227 535.753 660.587 540.992C666.764 546.081 666.993 555.449 661.2 566.047C660.442 567.435 659.011 568.22 657.535 568.22H657.537Z" fill="#380175"/>
<path d="M811.356 561.067C809.429 561.067 807.698 559.725 807.28 557.765C806.303 553.188 803.951 550.15 800.298 548.736C795.299 546.799 788.588 548.18 782.791 552.337C780.921 553.679 778.312 553.25 776.967 551.376C775.624 549.501 776.053 546.895 777.928 545.552C785.989 539.776 795.716 538.013 803.31 540.952C809.575 543.377 813.884 548.728 815.444 556.021C815.925 558.275 814.49 560.493 812.234 560.974C811.94 561.036 811.647 561.067 811.356 561.067V561.067Z" fill="#380175"/>
<path d="M830.046 547.888C828.658 547.888 827.303 547.196 826.511 545.937C817.194 531.13 823.418 522.632 826.526 519.663C832.931 513.553 844.328 512.559 851.418 517.496C853.31 518.812 853.775 521.414 852.458 523.305C851.142 525.196 848.54 525.664 846.649 524.345C842.802 521.667 835.824 522.325 832.29 525.699C827.589 530.188 831.078 537.518 833.575 541.489C834.803 543.44 834.217 546.016 832.266 547.244C831.574 547.678 830.806 547.885 830.046 547.885V547.888Z" fill="#380175"/>
<path d="M853.041 510.146C852.406 510.146 851.762 510 851.159 509.695C837.246 502.652 834.241 490.778 837.339 482.723C840.234 475.189 849.039 469.182 862.17 472.754C864.395 473.357 865.706 475.652 865.101 477.874C864.497 480.099 862.201 481.416 859.98 480.805C852.852 478.871 847.021 480.796 845.13 485.715C843.337 490.38 845.638 497.542 854.927 502.245C856.983 503.287 857.808 505.796 856.766 507.854C856.031 509.306 854.562 510.143 853.038 510.143L853.041 510.146Z" fill="#380175"/>
<path d="M778.623 464.381C778.249 464.381 777.867 464.331 777.49 464.224C775.27 463.599 773.98 461.293 774.605 459.075C777.402 449.142 785.041 442.111 793.617 441.58C800.754 441.15 806.871 445.381 810.043 452.924C810.937 455.049 809.938 457.496 807.813 458.39C805.686 459.28 803.242 458.285 802.347 456.16C800.561 451.913 797.647 449.683 794.132 449.91C790.073 450.16 784.745 453.842 782.637 461.335C782.119 463.177 780.445 464.379 778.621 464.379L778.623 464.381Z" fill="#380175"/>
<path d="M856.277 419.368C855.948 419.368 855.617 419.327 855.283 419.246C853.043 418.698 851.672 416.442 852.221 414.202C854.56 404.627 861.727 396.903 869.649 395.417C873.627 394.673 881.296 394.854 888.014 404.453C889.336 406.342 888.875 408.944 886.987 410.267C885.095 411.586 882.496 411.128 881.172 409.24C879.059 406.218 875.623 402.796 871.185 403.621C866.456 404.508 861.889 409.79 860.327 416.184C859.862 418.09 858.154 419.368 856.277 419.368V419.368Z" fill="#380175"/>
<path d="M893.361 392.837C892.884 392.837 892.4 392.754 891.928 392.582C880.85 388.53 877.163 380.398 878.425 374.136C879.706 367.768 886.805 360.595 902.569 361.327C904.873 361.434 906.652 363.387 906.544 365.691C906.437 367.995 904.479 369.788 902.18 369.666C892.359 369.22 887.287 372.407 886.61 375.783C886.071 378.459 888.403 382.404 894.797 384.743C896.962 385.535 898.076 387.932 897.282 390.097C896.662 391.788 895.064 392.837 893.361 392.837V392.837Z" fill="#380175"/>
<path d="M419.561 601.806C419.399 601.806 419.234 601.797 419.067 601.778C405.762 600.211 400.015 589.167 400.306 579.57C400.64 568.571 408.164 560.475 418.605 559.881C420.954 559.745 422.878 561.51 423.009 563.809C423.141 566.11 421.381 568.083 419.082 568.214C411.629 568.638 408.805 574.731 408.65 579.823C408.467 585.935 411.918 592.532 420.045 593.488C422.334 593.758 423.97 595.832 423.701 598.119C423.453 600.244 421.648 601.804 419.561 601.804V601.806Z" fill="#380175"/>
<path d="M425.626 630.621C416.873 630.621 410.988 626.18 408.796 620.781C406.008 613.915 408.603 603.939 420.887 598.268C422.976 597.302 425.459 598.216 426.425 600.307C427.39 602.399 426.477 604.879 424.385 605.845C417.071 609.222 415.187 614.327 416.532 617.64C418.097 621.499 424.166 624.105 433.784 620.719C435.961 619.948 438.341 621.093 439.107 623.268C439.873 625.443 438.733 627.826 436.558 628.591C432.544 630.005 428.886 630.621 425.628 630.621H425.626Z" fill="#380175"/>
<path d="M312.537 434.135C311.45 434.135 310.362 433.713 309.544 432.868C307.939 431.216 307.977 428.573 309.63 426.966C314.56 422.177 316.367 417.133 314.235 414.117C312.199 411.231 306.37 410.167 299.185 413.721C297.115 414.739 294.615 413.895 293.592 411.829C292.571 409.764 293.418 407.26 295.483 406.237C307.465 400.313 316.959 403.506 321.053 409.299C324.74 414.52 325.205 423.475 315.444 432.952C314.633 433.739 313.584 434.132 312.537 434.132V434.135Z" fill="#380175"/>
<path d="M344.373 462.426C343.507 462.426 342.632 462.157 341.886 461.601C340.037 460.223 339.653 457.609 341.029 455.761C345.618 449.599 345.785 443.388 341.461 439.554C336.925 435.528 328.466 435.125 321.078 442.141C319.406 443.729 316.766 443.66 315.178 441.989C313.59 440.317 313.659 437.674 315.331 436.089C326.368 425.607 339.62 426.757 347.001 433.308C353.342 438.931 356.025 449.598 347.726 460.743C346.906 461.842 345.649 462.424 344.375 462.424L344.373 462.426Z" fill="#380175"/>
<path d="M603.747 429.957L601.78 484.093V484.117C590.416 574.597 513.72 626.741 450.057 591.231C444.441 588.095 438.932 584.279 433.566 579.748C427.831 581.441 424.361 584.565 422.787 588.906C421.487 592.495 421.499 596.931 422.632 602.058C424.754 611.693 430.108 620.302 437.477 626.848L444.894 633.442C354.867 604.252 390.962 498.497 390.962 498.497C476.123 657.255 592.562 521.916 578.194 434.667C574.617 412.942 598.322 407.254 598.322 407.254L603.747 429.957V429.957Z" fill="#380175"/>
<path d="M603.561 424.863C603.561 424.863 639.853 417.072 643.43 491.552C647.008 566.035 674.235 577.942 674.235 577.942C637.897 557.051 607.393 531.186 601.784 484.097C605.268 464.89 606.268 445.22 603.563 424.863H603.561Z" fill="#380175"/>
<path d="M867.64 467.768C865.124 469.784 863.085 472.359 861.714 475.352C857.66 484.212 854.845 494.502 853.045 505.973C847.929 538.478 821.685 563.65 788.905 566.56L788.237 565.82L787.617 565.129C783.921 561.027 772.808 548.685 760.836 535.688L760.359 535.175C750.462 524.42 740.04 513.271 732.79 505.973C714.678 487.741 688.588 457.394 682.781 436.957L674.231 406.848L668.436 377.062C668.436 377.062 709.491 475.412 771.854 494.49C771.854 494.49 813.946 521.868 867.008 465.849L867.64 467.768V467.768Z" fill="#380175"/>
<path d="M566.25 101.774C574.561 115.348 554.596 131.975 527.22 148.735C499.847 165.496 475.431 176.044 467.118 162.47C458.807 148.895 474.26 124.303 501.633 107.542C529.006 90.7819 557.937 88.1992 566.248 101.774H566.25Z" fill="white"/>
<path d="M607.384 116.696C619.416 116.696 629.17 108.51 629.17 98.412C629.17 88.3138 619.416 80.1276 607.384 80.1276C595.353 80.1276 585.599 88.3138 585.599 98.412C585.599 108.51 595.353 116.696 607.384 116.696Z" fill="white"/>
<g opacity="0.3">
<path d="M635.045 45.422C634.656 45.3862 634.27 45.3409 633.881 45.3075C634.451 45.639 635.011 45.9729 635.576 46.3067C635.395 46.0086 635.216 45.7129 635.045 45.4243V45.422Z" fill="#380175"/>
</g>
<g opacity="0.3">
<path d="M816.756 209.91C815.937 203.503 812.408 204.917 806.299 204.472C776.488 74.9406 652.606 56.7396 652.606 56.7396C723.714 103.687 817.989 340.062 712.098 380.508C712.098 380.508 737.341 412.13 795.96 385.885C800.134 384.013 804.116 381.521 807.908 378.481C793.075 387.757 777.907 387.638 762.573 382.892C788.353 348.265 804.438 314.102 812.344 281.55C837.969 252.276 835.143 223.467 816.756 209.91Z" fill="#380175"/>
</g>
<path d="M648.156 316.782C647.663 327.686 643.473 343.297 634.002 356.039C624.797 368.471 610.574 378.192 589.902 378.17C574.222 378.137 561.251 371.225 551.058 361.641C538.042 349.371 529.583 332.749 525.863 320.548C524.267 315.292 529.605 310.584 534.598 312.869C553.412 321.466 572.741 326.276 589.487 325.737C603.25 325.301 622.868 320.021 638.696 310.942C643.034 308.452 648.371 311.791 648.154 316.785L648.156 316.782Z" fill="#181558"/>
<path d="M634.007 356.04C624.802 368.472 610.579 378.193 589.907 378.171C574.227 378.138 561.256 371.227 551.063 361.642C561.795 354.836 576.705 349.556 591.135 358.325C591.135 358.325 606.253 341.004 634.007 356.04V356.04Z" fill="#FF7196"/>
<path d="M595.012 355.082C595.012 355.082 590.431 357.91 585.845 366.422C585.845 366.422 586.148 356.649 589.846 352.952C595.417 347.381 595.014 355.082 595.014 355.082H595.012Z" fill="#181558"/>
<path d="M640.279 310.29L635.622 331.711C635.305 333.173 633.909 334.139 632.428 333.924L618.389 331.885C617.132 331.704 615.871 332.178 615.048 333.146L608.451 340.9C606.82 342.817 604.121 343.435 601.817 342.412L587.811 336.199C586.819 335.758 585.681 335.777 584.703 336.252L572.214 342.311C569.97 343.401 567.28 342.936 565.532 341.155L558.962 334.468C557.838 333.325 556.109 333.037 554.676 333.755L549.289 336.449C546.389 337.902 542.859 336.814 541.278 333.981L529.449 312.794C530.997 312.122 532.822 312.05 534.598 312.866C553.405 321.47 572.741 326.273 589.483 325.732C603.248 325.289 622.872 320.006 638.691 310.934C639.206 310.634 639.736 310.431 640.274 310.286L640.279 310.29Z" fill="white"/>
<path d="M589.991 382.54H589.898C550.532 382.487 528.062 342.802 521.683 321.825C520.433 317.713 521.666 313.402 524.902 310.571C528.122 307.754 532.538 307.108 536.428 308.887C555.101 317.427 573.91 321.868 589.354 321.364C601.15 320.988 620.309 316.445 636.526 307.149C639.951 305.186 644.01 305.241 647.382 307.296C650.735 309.343 652.707 313.056 652.531 316.984C651.383 342.341 633.39 382.54 589.996 382.542L589.991 382.54ZM531.94 316.65C531.355 316.65 530.914 316.938 530.664 317.158C530.366 317.418 529.712 318.143 530.058 319.275C535.786 338.108 555.669 373.74 589.91 373.785H589.991C631.79 373.785 643.111 331.433 643.783 316.585C643.833 315.503 643.127 314.952 642.822 314.766C642.462 314.544 641.73 314.248 640.878 314.737C625.47 323.573 605.354 329.606 589.633 330.11C572.613 330.66 552.952 326.067 532.786 316.845C532.479 316.705 532.197 316.65 531.942 316.65H531.94Z" fill="#181558"/>
<path d="M527.753 277.946C540.459 277.946 550.76 264.142 550.76 247.115C550.76 230.087 540.459 216.284 527.753 216.284C515.047 216.284 504.747 230.087 504.747 247.115C504.747 264.142 515.047 277.946 527.753 277.946Z" fill="#181558"/>
<path d="M535.236 252.773C538.709 252.773 541.525 248.626 541.525 243.51C541.525 238.395 538.709 234.248 535.236 234.248C531.763 234.248 528.947 238.395 528.947 243.51C528.947 248.626 531.763 252.773 535.236 252.773Z" fill="white"/>
<path d="M672.857 237.414C669.287 238.47 665.665 239.722 662.305 241.163C658.923 242.615 655.727 244.294 652.753 246.199C651.237 247.115 649.865 248.202 648.451 249.218L646.472 250.909C646.15 251.2 645.794 251.451 645.489 251.756L644.576 252.674C642.029 255.018 640.011 257.837 638.027 260.689L631.738 253.668C632.067 253.525 632.273 253.451 632.497 253.366C632.728 253.277 632.943 253.199 633.155 253.132C633.584 252.991 634.014 252.848 634.433 252.736C635.277 252.483 636.117 252.288 636.956 252.09C638.635 251.713 640.329 251.484 642.022 251.322C645.411 251.012 648.83 251.153 652.162 251.744C655.482 252.347 658.739 253.301 661.704 254.823C664.73 256.187 667.403 258.173 669.822 260.282C670.53 260.899 670.601 261.97 669.986 262.678C669.528 263.203 668.818 263.38 668.193 263.182L668 263.12C666.559 262.662 665.228 262.07 663.833 261.662C662.426 261.281 661.081 260.825 659.677 260.58C656.913 259.969 654.132 259.7 651.387 259.685C648.642 259.633 645.911 259.905 643.248 260.425C642.58 260.544 641.924 260.718 641.266 260.856L639.322 261.383C638.688 261.584 638.049 261.774 637.443 262.008C637.13 262.116 636.842 262.235 636.553 262.354C636.403 262.411 636.262 262.466 636.138 262.523L635.838 262.657L635.721 262.709C633.238 263.806 630.336 262.686 629.239 260.203C628.564 258.677 628.745 256.964 629.549 255.636C631.817 251.954 634.34 248.327 637.6 245.4C639.107 243.812 640.932 242.596 642.639 241.26C644.483 240.12 646.281 238.909 648.248 238.038C652.105 236.157 656.183 234.843 660.318 234.154C664.48 233.488 668.598 233.316 672.836 234.039C673.766 234.196 674.393 235.081 674.233 236.011C674.121 236.674 673.64 237.182 673.036 237.363L672.865 237.414H672.857Z" fill="#181558"/>
</g>
<path d="M418.029 780.494C420.37 791.855 428.722 802.884 441.923 811.74C481.357 838.307 562.893 846.827 648.275 794.864C787.625 710.151 915.95 598.873 959.725 548.579C1014.36 485.923 1032.07 366.79 988.631 333.203C981.111 327.356 971.755 324.179 960.558 324.179C927.808 324.179 902.245 397.196 861.81 431.115C808.843 475.559 626.718 658.856 546.518 684.419C450.776 715.165 408.673 733.377 418.029 780.494V780.494Z" fill="white"/>
<path d="M521.909 839.677C560.818 839.677 606.199 828.595 651.882 800.791C793.157 714.909 922.22 602.238 964.958 553.132C1001.76 510.939 1024.55 440.444 1019.16 385.519C1016.56 358.985 1007.47 338.996 992.872 327.712C983.943 320.767 973.065 317.241 960.555 317.241C937.947 317.241 920.806 342.536 900.962 371.824C887.542 391.628 873.669 412.11 857.347 425.802C844.821 436.313 825.759 453.941 801.626 476.261C727.847 544.495 604.362 658.698 544.406 677.81C452.032 707.471 400.311 726.925 411.215 781.847C411.215 781.864 411.222 781.881 411.225 781.898C413.939 795.076 423.466 807.72 438.048 817.506C458.054 830.986 487.442 839.684 521.902 839.684L521.909 839.677ZM960.559 331.117C969.908 331.117 977.918 333.663 984.369 338.677C995.881 347.577 1003.13 364.237 1005.35 386.872C1010.4 438.342 989.01 504.427 954.49 544.015C912.316 592.468 784.687 703.81 644.669 788.933C563.743 838.183 484.853 832.296 445.799 805.983C434.253 798.236 426.811 788.698 424.83 779.114C417.065 739.942 447.371 723.547 548.641 691.028C611.525 670.986 731.599 559.933 811.056 486.45C834.101 465.138 854.003 446.731 866.274 436.434C884.076 421.5 898.507 400.205 912.457 379.611C929.353 354.676 945.312 331.124 960.559 331.124V331.117Z" fill="#0A0267"/>
<path d="M424.202 802.541C426.223 807.895 429.713 812.415 434.73 815.746C475.178 842.653 555.7 850.841 641.082 798.874C780.274 714.167 908.602 602.873 952.381 552.592C983.452 516.822 1003.99 460.866 1007.19 414.075C1008.02 402.378 1007.68 391.352 1006.17 381.318C1003.83 366.128 998.82 353.262 990.629 344.558C987.952 341.565 984.779 339.225 981.269 337.22C980.517 336.783 979.782 336.407 979.07 336.088C976.413 334.819 973.955 334.164 971.594 334.046C946.353 332.36 933.662 386.671 893.55 426.605C825.383 494.772 762.905 551.084 695.567 610.906C636.085 663.709 592.799 689.265 558.219 704.297C510.433 725.018 479.342 725.693 445.755 750.081C441.769 752.996 438.28 756.15 435.345 759.498C433.182 761.896 431.318 764.374 429.713 766.953C426.381 772.306 424.041 777.817 423.03 783.332C421.542 790.015 422.039 796.695 424.198 802.545L424.202 802.541Z" fill="#9A66E8"/>
<g opacity="0.2">
<path d="M424.202 802.541C426.223 807.894 429.713 812.415 434.73 815.746C475.178 842.653 555.7 850.84 641.082 798.874C780.274 714.167 908.602 602.872 952.381 552.592C983.452 516.822 1003.99 460.866 1007.19 414.075C1008.02 402.378 1007.68 391.352 1006.17 381.318C1003.83 366.128 998.82 353.262 990.629 344.557C987.952 341.565 984.779 339.224 981.269 337.22C980.517 336.783 979.782 336.407 979.07 336.088C983.096 346.042 984.94 356.946 985.118 367.733C985.712 404.255 968.521 438.617 949.328 469.729C854.889 622.821 700.131 737.01 526.674 784.695C507.004 790.089 485.669 794.609 466.614 787.331C453.308 782.237 442.74 771.826 435.345 759.494C433.182 761.892 431.318 764.371 429.713 766.95C426.381 772.303 424.041 777.814 423.03 783.328C421.542 790.011 422.039 796.691 424.198 802.541H424.202Z" fill="#0A0267"/>
</g>
<path d="M522.291 840.007C561.093 840.007 606.155 828.723 652.05 800.788C793.324 714.906 922.388 602.234 965.126 553.129C1004.58 507.886 1029.24 427.511 1020.09 373.963C1016.26 351.502 1006.62 335.315 992.217 327.158C966.643 312.721 951.363 337.824 935.183 364.405C924.779 381.496 912.988 400.863 896.169 417.681C826.76 487.094 763.046 544.334 698.469 601.697C607.737 682.263 555.659 698.474 513.815 711.497C490.585 718.728 470.523 724.971 449.204 740.456C432.245 752.811 422.361 770.674 422.757 788.245C423.04 800.701 428.544 811.095 438.249 817.516C458.967 831.298 488.214 840.003 522.288 840.003L522.291 840.007ZM977.981 336.988C980.319 336.988 982.737 337.75 985.386 339.245C998.836 346.865 1004.25 363.602 1006.42 376.304C1014.95 426.269 991.73 501.505 954.661 544.015C912.487 592.468 784.858 703.81 644.84 788.933C606.975 811.978 566.641 824.773 528.205 825.939C496.422 826.896 466.466 819.618 445.937 805.96C445.933 805.96 445.926 805.953 445.92 805.95C440.113 802.111 436.819 795.714 436.641 787.932C436.349 775.1 444.294 761.207 457.375 751.683C476.836 737.548 495.885 731.62 517.946 724.752C561.063 711.333 614.722 694.632 707.69 612.078C772.429 554.566 836.307 497.179 905.989 427.501C923.979 409.507 936.768 388.504 947.044 371.625C961.408 348.03 969.088 336.988 977.988 336.988H977.981Z" fill="#0A0267"/>
<path d="M663.814 823.101L652.117 807.894C644.934 798.538 647.771 784.168 658.632 775.812L684.696 755.763C695.557 747.408 710.092 748.244 717.446 757.6L729.644 773.475C741.505 788.846 736.827 812.405 719.283 826.274C701.239 840.813 676.008 838.972 663.811 823.101H663.814Z" fill="#7D7D7D"/>
<path d="M691.833 842.116C702.888 842.116 714.011 838.166 723.018 830.909C743.024 815.098 748.128 787.687 734.352 769.841L722.162 753.977C712.661 741.883 694.63 740.617 681.069 751.048L655.002 771.101C641.606 781.404 638.194 799.535 647.395 811.518L659.093 826.724C665.534 835.11 675.239 840.463 686.416 841.797C688.212 842.012 690.019 842.116 691.829 842.116H691.833ZM701.041 755.982C705.696 755.982 710.005 757.761 712.772 761.278L724.929 777.099C734.745 789.82 730.558 809.782 715.6 821.606C707.55 828.091 697.451 831.131 687.83 829.982C679.86 829.032 673.006 825.301 668.529 819.477L656.832 804.271C651.627 797.49 654.062 786.841 662.263 780.534L688.33 760.482C692.242 757.473 696.79 755.985 701.045 755.985L701.041 755.982Z" fill="#0A0267"/>
<path d="M650.344 805.528C638.367 789.942 643.25 766.093 661.252 752.26C679.253 738.427 703.555 739.849 715.532 755.435C727.509 771.022 722.625 794.87 704.624 808.703C686.623 822.536 662.321 821.114 650.344 805.528Z" fill="white"/>
<path d="M677.583 824.226C688.011 824.226 698.915 820.703 708.272 813.513C718.112 805.953 724.821 795.475 727.166 784.013C729.577 772.236 727.125 760.834 720.264 751.904C706.307 733.746 678.215 731.832 657.645 747.643C647.805 755.202 641.095 765.68 638.751 777.142C636.34 788.92 638.791 800.321 645.653 809.251C653.262 819.155 665.08 824.226 677.587 824.226H677.583ZM710.831 759.155C715.556 765.304 717.215 773.287 715.509 781.629C713.736 790.29 708.591 798.263 701.021 804.083C685.647 815.897 665.04 814.964 655.083 802.004C650.357 795.855 648.699 787.875 650.405 779.533C652.178 770.872 657.323 762.9 664.892 757.08C680.263 745.268 700.87 746.199 710.831 759.158V759.155Z" fill="#0A0267"/>
<path d="M611.015 769.966L599.318 754.759C592.134 745.403 594.972 731.033 605.833 722.677L631.897 702.628C642.758 694.272 657.292 695.109 664.647 704.465L676.844 720.34C688.706 735.711 684.028 759.269 666.484 773.139C648.44 787.509 623.209 785.669 611.011 769.966H611.015Z" fill="#7D7D7D"/>
<path d="M639.06 788.856C650.099 788.856 661.195 784.957 670.192 777.794C690.221 761.963 695.325 734.552 681.556 716.709L669.366 700.845C659.865 688.748 641.834 687.485 628.273 697.916L602.209 717.965C588.813 728.269 585.401 746.4 594.603 758.383L606.3 773.593C606.3 773.593 606.31 773.606 606.317 773.613C612.751 781.901 622.44 787.197 633.589 788.53C635.406 788.745 637.233 788.853 639.064 788.853L639.06 788.856ZM648.242 702.846C652.896 702.846 657.205 704.626 659.972 708.142L672.133 723.963C681.949 736.685 677.758 756.647 662.8 768.471C654.767 774.869 644.648 777.874 635 776.719C627.037 775.765 620.19 772.075 615.72 766.325L604.036 751.136C598.831 744.355 601.262 733.706 609.467 727.396L635.531 707.346C639.443 704.337 643.987 702.85 648.245 702.85L648.242 702.846Z" fill="#0A0267"/>
<path d="M597.719 752.613C609.695 768.199 634.006 769.606 652.01 755.767C665.829 745.137 671.918 728.601 668.566 714.426C667.555 710.164 665.692 706.117 662.914 702.51C650.918 686.924 626.628 685.497 608.624 699.337C600.99 705.187 595.714 712.861 593.098 720.931C589.508 731.916 590.818 743.633 597.719 752.616V752.613Z" fill="white"/>
<path d="M614.705 734.761C609.87 728.468 611.881 718.809 619.197 713.186C626.514 707.564 636.365 708.108 641.201 714.401C646.037 720.694 644.026 730.353 636.709 735.975C629.393 741.598 619.541 741.054 614.705 734.761Z" fill="#0A0267"/>
<path d="M665.858 785.689C661.022 779.396 663.033 769.737 670.35 764.114C677.666 758.492 687.518 759.036 692.354 765.329C697.189 771.622 695.178 781.281 687.862 786.903C680.545 792.526 670.694 791.982 665.858 785.689Z" fill="#0A0267"/>
<path d="M624.945 771.242C635.742 771.242 646.539 767.474 655.623 760.492C665.463 752.932 672.173 742.454 674.517 730.992C676.928 719.215 674.477 707.813 667.616 698.883C653.659 680.725 625.566 678.811 604.997 694.622C595.157 702.181 588.447 712.659 586.103 724.121C583.691 735.899 586.143 747.3 593.004 756.23C599.865 765.16 610.252 770.459 622.255 771.161C623.152 771.215 624.048 771.238 624.945 771.238V771.242ZM658.186 706.134C662.911 712.283 664.57 720.266 662.864 728.608C661.091 737.269 655.946 745.242 648.376 751.062C640.806 756.882 631.772 759.8 622.95 759.286C614.447 758.789 607.163 755.132 602.438 748.983C597.712 742.834 596.053 734.854 597.759 726.512C599.533 717.851 604.678 709.879 612.247 704.059C627.618 692.244 648.225 693.178 658.186 706.137V706.134Z" fill="#0A0267"/>
<path d="M925.807 620.091L914.11 604.884C906.926 595.528 909.764 581.158 920.625 572.802L946.689 552.753C957.55 544.397 972.084 545.234 979.439 554.59L991.636 570.465C1003.5 585.836 998.82 609.394 981.276 623.264C963.232 637.799 938.001 635.962 925.803 620.091H925.807Z" fill="#7D7D7D"/>
<path d="M953.825 639.105C964.884 639.105 976.003 635.156 985.01 627.899C1005.01 612.088 1010.12 584.677 996.348 566.831L984.157 550.97C974.657 538.873 956.623 537.607 943.065 548.041L917.001 568.09C903.605 578.394 900.193 596.529 909.395 608.508L921.092 623.714C927.536 632.1 937.242 637.453 948.418 638.786C950.215 639.001 952.022 639.105 953.828 639.105H953.825ZM963.037 552.971C967.692 552.971 972 554.748 974.768 558.267L986.925 574.088C996.741 586.813 992.55 606.771 977.592 618.596C969.545 625.078 959.437 628.117 949.825 626.972C941.856 626.021 934.998 622.29 930.522 616.467L918.828 601.264C913.623 594.483 916.057 583.834 924.258 577.524L950.322 557.475C954.235 554.466 958.782 552.978 963.04 552.978L963.037 552.971Z" fill="#0A0267"/>
<path d="M912.537 602.599C900.56 587.013 905.443 563.164 923.444 549.332C941.446 535.499 965.748 536.92 977.725 552.507C989.702 568.093 984.818 591.942 966.817 605.775C948.816 619.607 924.514 618.186 912.537 602.599Z" fill="white"/>
<path d="M939.787 621.269C950.211 621.269 961.119 617.746 970.472 610.556C980.312 602.997 987.022 592.519 989.366 581.057C991.777 569.279 989.326 557.874 982.465 548.948C968.504 530.79 940.412 528.879 919.845 544.686C899.276 560.497 893.892 588.136 907.85 606.295C915.463 616.198 927.277 621.269 939.784 621.269H939.787ZM950.571 545.835C959.474 545.835 967.752 549.324 973.035 556.199C977.76 562.348 979.422 570.327 977.713 578.669C975.939 587.33 970.795 595.303 963.225 601.123C947.854 612.934 927.251 612.004 917.286 599.041C907.329 586.084 911.728 565.928 927.099 554.116C934.316 548.569 942.689 545.835 950.574 545.835H950.571Z" fill="#0A0267"/>
<path d="M873.172 566.955L861.475 551.749C854.291 542.393 857.129 528.022 867.99 519.667L894.054 499.618C904.914 491.262 919.449 492.098 926.804 501.455L939.001 517.329C950.863 532.7 946.185 556.259 928.641 570.129C910.429 584.499 885.198 582.659 873.168 566.955H873.172Z" fill="#7D7D7D"/>
<path d="M901.103 585.849C912.138 585.849 923.258 581.96 932.332 574.8C952.381 558.949 957.486 531.539 943.717 513.696L931.526 497.831C922.025 485.741 903.994 484.475 890.434 494.899L864.366 514.952C850.97 525.255 847.558 543.387 856.76 555.369L868.453 570.572C874.76 578.807 884.321 584.106 895.37 585.49C897.271 585.728 899.185 585.846 901.103 585.846V585.849ZM910.402 499.839C915.057 499.839 919.365 501.616 922.133 505.135L934.29 520.956C944.106 533.678 939.918 553.64 924.957 565.464C916.796 571.902 906.564 574.901 896.848 573.689C888.983 572.705 882.253 569.027 877.894 563.338C877.894 563.338 877.89 563.332 877.887 563.328L866.19 548.122C860.984 541.341 863.419 530.692 871.62 524.385L897.684 504.333C901.597 501.327 906.144 499.836 910.402 499.836V499.839Z" fill="#0A0267"/>
<path d="M859.783 549.384C847.806 533.798 852.69 509.949 870.691 496.116C888.692 482.283 912.994 483.705 924.971 499.291C936.948 514.877 932.065 538.726 914.064 552.559C896.063 566.392 871.76 564.97 859.783 549.384Z" fill="white"/>
<path d="M887.031 568.09C897.825 568.09 908.625 564.322 917.71 557.341C938.279 541.53 943.659 513.894 929.702 495.732C915.745 477.574 887.653 475.659 867.083 491.47C857.243 499.03 850.533 509.508 848.189 520.97C845.778 532.748 848.229 544.152 855.09 553.079C861.951 562.005 872.339 567.308 884.341 568.01C885.238 568.064 886.135 568.087 887.031 568.087V568.09ZM897.808 492.619C906.711 492.619 914.986 496.108 920.269 502.979C930.229 515.939 925.827 536.092 910.459 547.907C902.889 553.724 893.872 556.649 885.033 556.131C876.53 555.634 869.246 551.977 864.521 545.828C859.795 539.679 858.133 531.696 859.839 523.354C861.612 514.693 866.757 506.721 874.33 500.901C881.547 495.353 889.923 492.616 897.805 492.616L897.808 492.619Z" fill="#0A0267"/>
<path d="M876.926 530.813C872.091 524.52 874.102 514.86 881.418 509.238C888.735 503.616 898.586 504.159 903.422 510.452C908.258 516.745 906.247 526.405 898.93 532.027C891.614 537.65 881.762 537.106 876.926 530.813Z" fill="#0A0267"/>
<path d="M927.882 582.735C923.046 576.443 925.055 566.783 932.371 561.16C939.686 555.536 949.538 556.078 954.375 562.37C959.212 568.662 957.202 578.322 949.887 583.946C942.571 589.569 932.719 589.027 927.882 582.735Z" fill="#0A0267"/>
<g opacity="0.2">
<path d="M597.719 752.613C609.695 768.199 634.006 769.606 652.01 755.767C665.829 745.138 671.918 728.601 668.566 714.426C630.634 734.888 606.404 728.94 593.102 720.931C589.511 731.916 590.821 743.633 597.723 752.617L597.719 752.613Z" fill="#0A0267"/>
</g>
<g opacity="0.2">
<path d="M650.814 805.842C662.79 821.428 687.101 822.835 705.105 808.996C718.924 798.367 725.013 781.83 721.661 767.655C683.729 788.117 659.499 782.17 646.197 774.16C642.606 785.145 643.916 796.862 650.818 805.846L650.814 805.842Z" fill="#0A0267"/>
</g>
<g opacity="0.2">
<path d="M916.709 600.518C928.685 616.104 952.996 617.511 970.999 603.672C984.819 593.043 990.908 576.506 987.556 562.331C949.624 582.793 925.394 576.846 912.091 568.836C908.501 579.821 909.811 591.538 916.712 600.522L916.709 600.518Z" fill="#0A0267"/>
</g>
</svg>
