<svg width="26" height="25" viewBox="0 0 26 25" fill="none" xmlns="http://www.w3.org/2000/svg">
<path d="M22.0079 12.0485L9.95945 12.0485M22.0079 6.0243L9.95945 6.0243M22.0079 18.0728L9.95945 18.0728M5.94329 12.0485C5.94329 12.6031 5.49377 13.0526 4.93925 13.0526C4.38473 13.0526 3.93521 12.6031 3.93521 12.0485C3.93521 11.494 4.38473 11.0445 4.93925 11.0445C5.49377 11.0445 5.94329 11.494 5.94329 12.0485ZM5.94329 6.0243C5.94329 6.57882 5.49377 7.02834 4.93925 7.02834C4.38473 7.02834 3.93521 6.57882 3.93521 6.0243C3.93521 5.46979 4.38473 5.02026 4.93925 5.02026C5.49377 5.02026 5.94329 5.46979 5.94329 6.0243ZM5.94329 18.0728C5.94329 18.6273 5.49377 19.0768 4.93925 19.0768C4.38473 19.0768 3.93521 18.6273 3.93521 18.0728C3.93521 17.5183 4.38473 17.0687 4.93925 17.0687C5.49377 17.0687 5.94329 17.5183 5.94329 18.0728Z" stroke="#FCFCFC" stroke-width="2" stroke-linecap="round" stroke-linejoin="round"/>
</svg>
