<svg width="55" height="55" viewBox="0 0 55 55" fill="none" xmlns="http://www.w3.org/2000/svg">
<path d="M17.1875 27.5L24.0625 34.375L37.8125 20.625M17.875 48.125H37.125C40.9754 48.125 42.9005 48.125 44.3712 47.3757C45.6648 46.7165 46.7165 45.6648 47.3757 44.3712C48.125 42.9005 48.125 40.9754 48.125 37.125V17.875C48.125 14.0246 48.125 12.0995 47.3757 10.6288C46.7165 9.3352 45.6648 8.28346 44.3712 7.62433C42.9005 6.875 40.9754 6.875 37.125 6.875H17.875C14.0246 6.875 12.0995 6.875 10.6288 7.62433C9.3352 8.28346 8.28346 9.3352 7.62433 10.6288C6.875 12.0995 6.875 14.0246 6.875 17.875V37.125C6.875 40.9754 6.875 42.9005 7.62433 44.3712C8.28346 45.6648 9.3352 46.7165 10.6288 47.3757C12.0995 48.125 14.0246 48.125 17.875 48.125Z" stroke="white" stroke-width="2" stroke-linecap="round" stroke-linejoin="round"/>
</svg>
