<svg width="60" height="60" viewBox="0 0 60 60" fill="none" xmlns="http://www.w3.org/2000/svg">
<path d="M52.5001 25H7.50006M40.0001 5V15M20.0001 5V15M19.5001 55H40.5001C44.7005 55 46.8007 55 48.405 54.1826C49.8162 53.4635 50.9636 52.3161 51.6826 50.9049C52.5001 49.3006 52.5001 47.2004 52.5001 43V22C52.5001 17.7996 52.5001 15.6994 51.6826 14.0951C50.9636 12.6839 49.8162 11.5365 48.405 10.8175C46.8007 10 44.7005 10 40.5001 10H19.5001C15.2997 10 13.1995 10 11.5951 10.8175C10.1839 11.5365 9.03656 12.6839 8.31751 14.0951C7.50006 15.6994 7.50006 17.7996 7.50006 22V43C7.50006 47.2004 7.50006 49.3006 8.31751 50.9049C9.03656 52.3161 10.1839 53.4635 11.5951 54.1826C13.1995 55 15.2997 55 19.5001 55Z" stroke="white" stroke-width="1.5" stroke-linecap="round" stroke-linejoin="round"/>
</svg>
