<svg width="30" height="28" viewBox="0 0 30 28" fill="none" xmlns="http://www.w3.org/2000/svg">
<g filter="url(#filter0_d_1501_14466)">
<path d="M9.25356 16.231C13.7231 17.9753 17.5267 18.3151 21.8369 15.6001C21.8053 15.6475 20.9527 16.9106 18.7106 17.5579C19.1843 18.2053 19.8316 18.9474 19.8316 18.9474C21.2685 18.9474 22.6738 18.5369 23.8895 17.7474C24.8369 17.1158 25.3737 16.0263 25.2632 14.8895C25.0737 12.9474 24.6158 11.0527 23.9053 9.23692C23.0053 6.86851 20.8422 5.22639 18.3316 4.98953C18.1106 4.97373 17.9527 4.97373 17.858 4.97373L17.6054 5.22634C20.4948 6.0474 21.9317 7.32634 21.9632 7.37373C17.5264 5.13161 12.2843 5.10006 7.81585 7.279C7.81585 7.279 9.23691 5.87373 12.379 5.13161L12.1895 4.94214C11.8579 4.94214 11.5421 4.97373 11.2106 5.02108C8.88952 5.41581 6.94745 7.01055 6.11059 9.20528C5.38426 11.1 4.91059 13.0895 4.73692 15.1105C4.64218 16.1842 5.14745 17.2421 6.03165 17.8579C7.20006 18.6316 8.58952 19.0421 9.99479 19.0421C9.99479 19.0421 10.5632 18.3 11.1316 17.6369C9.00006 17.0053 8.13165 15.7421 8.11585 15.6947L8.51701 15.8996C8.75682 16.0221 9.00268 16.1331 9.25356 16.231ZM11.7316 14.8579C10.7053 14.8263 9.90005 13.9579 9.93165 12.9158C9.96324 11.9369 10.7527 11.1474 11.7316 11.1158C12.758 11.1474 13.5632 12.0158 13.5316 13.0579C13.4843 14.0369 12.7106 14.8264 11.7316 14.8579ZM18.1737 14.8579C17.1474 14.8263 16.3421 13.9579 16.3737 12.9158C16.4053 11.9369 17.1948 11.1474 18.1737 11.1158C19.2001 11.1474 20.0053 12.0158 19.9737 13.0579C19.9422 14.0369 19.1527 14.8264 18.1737 14.8579Z" fill="white"/>
</g>
<defs>
<filter id="filter0_d_1501_14466" x="-1" y="0" width="32" height="32" filterUnits="userSpaceOnUse" color-interpolation-filters="sRGB">
<feFlood flood-opacity="0" result="BackgroundImageFix"/>
<feColorMatrix in="SourceAlpha" type="matrix" values="0 0 0 0 0 0 0 0 0 0 0 0 0 0 0 0 0 0 127 0" result="hardAlpha"/>
<feOffset dy="4"/>
<feGaussianBlur stdDeviation="2"/>
<feComposite in2="hardAlpha" operator="out"/>
<feColorMatrix type="matrix" values="0 0 0 0 0 0 0 0 0 0 0 0 0 0 0 0 0 0 0.25 0"/>
<feBlend mode="normal" in2="BackgroundImageFix" result="effect1_dropShadow_1501_14466"/>
<feBlend mode="normal" in="SourceGraphic" in2="effect1_dropShadow_1501_14466" result="shape"/>
</filter>
</defs>
</svg>
