<svg width="55" height="55" viewBox="0 0 55 55" fill="none" xmlns="http://www.w3.org/2000/svg">
<circle cx="27.5" cy="27.5" r="27.5" fill="#5542A9"/>
<path d="M30.6337 26.5043C33.3303 25.9986 35.0831 24.2796 35.0831 21.0774C35.0831 17.2685 32.2854 14.9764 27.7349 14.9764H19.9823V38.5714H28.072C32.5887 38.5714 35.3864 36.1108 35.3864 32.1333C35.3864 28.83 33.1955 26.8076 30.6337 26.5043ZM27.6338 17.7067C30.3641 17.7067 32.0157 19.055 32.0157 21.4819C32.0157 23.8077 30.3641 25.2571 27.836 25.2571H23.0496V17.7067H27.6338ZM28.0383 35.8411H23.0496V27.9537H28.2742C30.6337 27.9537 32.3191 29.5042 32.3191 31.83C32.3191 34.358 30.6674 35.8411 28.0383 35.8411Z" fill="#FCFCFC"/>
</svg>
