<svg width="281" height="100" viewBox="0 0 281 100" fill="none" xmlns="http://www.w3.org/2000/svg">
<path d="M89.0351 73.5H96.8225V55.8532C96.8225 47.9229 100.038 45.9939 103.967 45.9939C108.039 45.9939 110.04 48.3516 110.04 53.8528V73.5H117.827V55.8532C117.827 47.9229 120.899 45.9939 124.829 45.9939C128.901 45.9939 131.044 48.423 131.044 53.9242V73.5H138.832V52.4239C138.832 46.2083 136.831 39.3496 126.829 39.3496C122.114 39.3496 118.184 41.9216 116.613 45.2795C115.184 41.993 112.183 39.3496 106.11 39.3496C101.752 39.3496 98.2514 41.7787 96.8225 44.8508V40.2069H89.0351V73.5ZM153.525 35.4202C156.954 35.4202 159.312 32.8482 159.312 29.6332C159.312 26.4182 156.954 23.8462 153.525 23.8462C150.095 23.8462 147.738 26.4182 147.738 29.6332C147.738 32.8482 150.095 35.4202 153.525 35.4202ZM149.595 73.5H157.383V40.2069H149.595V73.5ZM168.503 73.5H176.29V55.8532C176.29 47.9229 179.505 45.9939 183.435 45.9939C187.507 45.9939 189.508 48.3516 189.508 53.8528V73.5H197.295V55.8532C197.295 47.9229 200.367 45.9939 204.297 45.9939C208.369 45.9939 210.512 48.423 210.512 53.9242V73.5H218.3V52.4239C218.3 46.2083 216.299 39.3496 206.297 39.3496C201.582 39.3496 197.652 41.9216 196.08 45.2795C194.652 41.993 191.651 39.3496 185.578 39.3496C181.22 39.3496 177.719 41.7787 176.29 44.8508V40.2069H168.503V73.5ZM232.993 35.4202C236.422 35.4202 238.78 32.8482 238.78 29.6332C238.78 26.4182 236.422 23.8462 232.993 23.8462C229.563 23.8462 227.206 26.4182 227.206 29.6332C227.206 32.8482 229.563 35.4202 232.993 35.4202ZM229.063 73.5H236.851V40.2069H229.063V73.5ZM262.045 74.3573C271.333 74.3573 277.12 69.4277 277.835 61.9975H270.047C269.19 65.4982 266.761 67.4272 262.045 67.4272C256.544 67.4272 253.258 63.6407 253.258 56.8535C253.258 50.0662 256.544 46.2797 262.045 46.2797C266.761 46.2797 269.19 48.2801 270.047 52.0667H277.835C277.12 44.4221 271.333 39.3496 262.045 39.3496C251.686 39.3496 245.47 46.494 245.47 56.8535C245.47 67.2129 251.686 74.3573 262.045 74.3573Z" fill="white"/>
<path d="M66.2206 71.3359V77.0682H59.0798C54.0801 77.065 49.2028 75.5162 45.1121 72.633C41.0214 69.7497 37.9161 65.672 36.2189 60.955C34.5218 65.672 31.4164 69.7497 27.3257 72.633C23.235 75.5162 18.3578 77.065 13.358 77.0682H6.21289V71.3359H13.358C18.0379 71.3367 22.5455 69.5653 25.9793 66.376C29.413 63.1868 31.5197 58.8149 31.8778 54.1348H40.5686C40.9267 58.8149 43.0334 63.1868 46.4671 66.376C49.9009 69.5653 54.4085 71.3367 59.0884 71.3359H66.2206Z" fill="white"/>
<path d="M71.9382 52.7002C71.9394 53.5732 71.8525 54.4442 71.6788 55.2997C71.0643 58.2781 69.4204 60.943 67.0374 62.8239C64.6543 64.7048 61.6853 65.6807 58.6545 65.5794C55.6238 65.478 52.7262 64.3059 50.4733 62.27C48.2204 60.2341 46.7571 57.4654 46.3418 54.4525C45.9831 51.8681 46.4184 49.2355 47.5895 46.9055C47.9136 46.2543 48.2937 45.6327 48.7257 45.0478C48.7664 44.994 48.8114 44.9381 48.8564 44.8758C50.859 42.1643 51.937 38.8777 51.9306 35.5033C51.9306 31.3228 50.2748 27.3134 47.3275 24.3574C44.3802 21.4013 40.3829 19.7406 36.2148 19.7406C32.0467 19.7406 28.0493 21.4013 25.102 24.3574C22.1547 27.3134 20.4989 31.3228 20.4989 35.5033C20.4949 38.8826 21.5758 42.1735 23.5816 44.8887C23.6267 44.951 23.6717 45.0069 23.7124 45.0607C24.1451 45.6451 24.5253 46.2667 24.8486 46.9184C25.6746 48.5602 26.1412 50.3601 26.2169 52.1974C26.2927 54.0348 25.976 55.8672 25.2879 57.5718C24.5999 59.2763 23.5565 60.8137 22.2276 62.0807C20.8988 63.3477 19.3153 64.3152 17.5831 64.9182C15.851 65.5212 14.0104 65.7458 12.1847 65.577C10.359 65.4082 8.5903 64.8498 6.9973 63.9394C5.4043 63.0289 4.02378 61.7874 2.94829 60.2981C1.8728 58.8087 1.12719 57.106 0.761455 55.304C0.334737 53.212 0.431529 51.0466 1.04318 49.0013C1.65482 46.956 2.76227 45.0946 4.26648 43.5835L5.93861 45.2628L8.29673 47.6387C7.33017 48.6087 6.66147 49.8365 6.37006 51.1764C6.07865 52.5162 6.17677 53.9118 6.65276 55.1974C7.12876 56.483 7.96263 57.6045 9.05534 58.4288C10.1481 59.2532 11.4537 59.7456 12.8172 59.8477C14.1807 59.9498 15.5447 59.6572 16.7474 59.0048C17.95 58.3523 18.9406 57.3673 19.6016 56.1669C20.2627 54.9664 20.5663 53.6009 20.4764 52.2325C20.3866 50.8641 19.9071 49.5503 19.0948 48.4472C19.0691 48.4171 19.0498 48.3891 19.0283 48.3612C17.2192 45.9337 15.9442 43.1488 15.2875 40.1906C15.2682 40.111 15.2532 40.0272 15.2339 39.9455C14.9302 38.4851 14.7772 36.9972 14.7773 35.5054C14.7773 35.0439 14.7923 34.5852 14.8223 34.1293C14.9411 32.2024 15.3212 30.3006 15.9521 28.4766C17.5704 23.7815 20.7597 19.7933 24.9781 17.1898C29.1964 14.5863 34.1834 13.5282 39.0915 14.1953C43.9996 14.8623 48.526 17.2134 51.9015 20.849C55.2769 24.4845 57.293 29.1802 57.6072 34.1379C57.6344 34.5938 57.6487 35.0525 57.6501 35.514C57.6495 37.0023 57.4965 38.4865 57.1935 39.9433C57.1742 40.025 57.1592 40.1089 57.1399 40.1885C56.7169 42.0954 56.0353 43.9351 55.114 45.6563C54.6098 46.5978 54.0366 47.5005 53.399 48.3569C53.3776 48.3848 53.3583 48.4128 53.3326 48.4429C52.5196 49.5462 52.0394 50.8605 51.9492 52.2295C51.8589 53.5985 52.1624 54.9647 52.8235 56.1658C53.4846 57.3669 54.4756 58.3525 55.6787 59.0053C56.8818 59.6582 58.2465 59.951 59.6106 59.8488C60.9747 59.7467 62.2809 59.254 63.3741 58.4292C64.4672 57.6044 65.3013 56.4822 65.7773 55.196C66.2533 53.9097 66.3511 52.5135 66.0592 51.1731C65.7673 49.8327 65.098 48.6045 64.1306 47.6344L66.4888 45.2585L68.163 43.5792C69.3602 44.7753 70.31 46.1967 70.9578 47.762C71.6057 49.3272 71.9388 51.0054 71.9382 52.7002Z" fill="white"/>
<path d="M23.4385 85.6602C23.7937 82.5098 25.2931 79.6008 27.6506 77.4887C30.008 75.3765 33.0584 74.209 36.2195 74.209C39.3806 74.209 42.431 75.3765 44.7884 77.4887C47.1459 79.6008 48.6453 82.5098 49.0005 85.6602H43.2124C42.8816 84.0427 42.0043 82.5894 40.7286 81.5457C39.4529 80.502 37.8572 79.932 36.2109 79.932C34.5647 79.932 32.9689 80.502 31.6933 81.5457C30.4176 82.5894 29.5402 84.0427 29.2094 85.6602H23.4385Z" fill="white"/>
<path d="M33.3604 45.5339C34.1489 45.5339 34.7881 44.8928 34.7881 44.1019C34.7881 43.3111 34.1489 42.6699 33.3604 42.6699C32.5718 42.6699 31.9326 43.3111 31.9326 44.1019C31.9326 44.8928 32.5718 45.5339 33.3604 45.5339Z" fill="white"/>
<path d="M39.0762 45.5339C39.8647 45.5339 40.5039 44.8928 40.5039 44.1019C40.5039 43.3111 39.8647 42.6699 39.0762 42.6699C38.2877 42.6699 37.6484 43.3111 37.6484 44.1019C37.6484 44.8928 38.2877 45.5339 39.0762 45.5339Z" fill="white"/>
</svg>
