<svg width="281" height="99" viewBox="0 0 281 99" fill="none" xmlns="http://www.w3.org/2000/svg">
<path d="M88.5351 73H96.3225V55.3532C96.3225 47.4229 99.5375 45.4939 103.467 45.4939C107.539 45.4939 109.54 47.8516 109.54 53.3528V73H117.327V55.3532C117.327 47.4229 120.399 45.4939 124.329 45.4939C128.401 45.4939 130.544 47.923 130.544 53.4242V73H138.332V51.9239C138.332 45.7083 136.331 38.8496 126.329 38.8496C121.614 38.8496 117.684 41.4216 116.113 44.7795C114.684 41.493 111.683 38.8496 105.61 38.8496C101.252 38.8496 97.7514 41.2787 96.3225 44.3508V39.7069H88.5351V73ZM153.025 34.9202C156.454 34.9202 158.812 32.3482 158.812 29.1332C158.812 25.9182 156.454 23.3462 153.025 23.3462C149.595 23.3462 147.238 25.9182 147.238 29.1332C147.238 32.3482 149.595 34.9202 153.025 34.9202ZM149.095 73H156.883V39.7069H149.095V73ZM168.003 73H175.79V55.3532C175.79 47.4229 179.005 45.4939 182.935 45.4939C187.007 45.4939 189.008 47.8516 189.008 53.3528V73H196.795V55.3532C196.795 47.4229 199.867 45.4939 203.797 45.4939C207.869 45.4939 210.012 47.923 210.012 53.4242V73H217.8V51.9239C217.8 45.7083 215.799 38.8496 205.797 38.8496C201.082 38.8496 197.152 41.4216 195.58 44.7795C194.152 41.493 191.151 38.8496 185.078 38.8496C180.72 38.8496 177.219 41.2787 175.79 44.3508V39.7069H168.003V73ZM232.493 34.9202C235.922 34.9202 238.28 32.3482 238.28 29.1332C238.28 25.9182 235.922 23.3462 232.493 23.3462C229.063 23.3462 226.706 25.9182 226.706 29.1332C226.706 32.3482 229.063 34.9202 232.493 34.9202ZM228.563 73H236.351V39.7069H228.563V73ZM261.545 73.8573C270.833 73.8573 276.62 68.9277 277.335 61.4975H269.547C268.69 64.9982 266.261 66.9272 261.545 66.9272C256.044 66.9272 252.758 63.1407 252.758 56.3535C252.758 49.5662 256.044 45.7797 261.545 45.7797C266.261 45.7797 268.69 47.7801 269.547 51.5667H277.335C276.62 43.9221 270.833 38.8496 261.545 38.8496C251.186 38.8496 244.97 45.994 244.97 56.3535C244.97 66.7129 251.186 73.8573 261.545 73.8573Z" fill="#A996FF"/>
<path d="M65.7206 70.8359V76.5682H58.5798C53.5801 76.565 48.7028 75.0162 44.6121 72.133C40.5214 69.2497 37.4161 65.172 35.7189 60.455C34.0218 65.172 30.9164 69.2497 26.8257 72.133C22.735 75.0162 17.8578 76.565 12.858 76.5682H5.71289V70.8359H12.858C17.5379 70.8367 22.0455 69.0653 25.4793 65.876C28.913 62.6868 31.0197 58.3149 31.3778 53.6348H40.0686C40.4267 58.3149 42.5334 62.6868 45.9671 65.876C49.4009 69.0653 53.9085 70.8367 58.5884 70.8359H65.7206Z" fill="#A996FF"/>
<path d="M71.4382 52.2002C71.4394 53.0732 71.3525 53.9442 71.1788 54.7997C70.5643 57.7781 68.9204 60.443 66.5374 62.3239C64.1543 64.2048 61.1853 65.1807 58.1545 65.0794C55.1238 64.978 52.2262 63.8059 49.9733 61.77C47.7204 59.7341 46.2571 56.9654 45.8418 53.9525C45.4831 51.3681 45.9184 48.7355 47.0895 46.4055C47.4136 45.7543 47.7937 45.1327 48.2257 44.5478C48.2664 44.494 48.3114 44.4381 48.3564 44.3758C50.359 41.6643 51.437 38.3777 51.4306 35.0033C51.4306 30.8228 49.7748 26.8134 46.8275 23.8574C43.8802 20.9013 39.8829 19.2406 35.7148 19.2406C31.5467 19.2406 27.5493 20.9013 24.602 23.8574C21.6547 26.8134 19.9989 30.8228 19.9989 35.0033C19.9949 38.3826 21.0758 41.6735 23.0816 44.3887C23.1267 44.451 23.1717 44.5069 23.2124 44.5607C23.6451 45.1451 24.0253 45.7667 24.3486 46.4184C25.1746 48.0602 25.6412 49.8601 25.7169 51.6974C25.7927 53.5348 25.476 55.3672 24.7879 57.0718C24.0999 58.7763 23.0565 60.3137 21.7276 61.5807C20.3988 62.8477 18.8153 63.8152 17.0831 64.4182C15.351 65.0212 13.5104 65.2458 11.6847 65.077C9.85895 64.9082 8.0903 64.3498 6.4973 63.4394C4.9043 62.5289 3.52378 61.2874 2.44829 59.7981C1.3728 58.3087 0.627188 56.606 0.261455 54.804C-0.165263 52.712 -0.0684706 50.5466 0.543177 48.5013C1.15482 46.456 2.26227 44.5946 3.76648 43.0835L5.43861 44.7628L7.79673 47.1387C6.83017 48.1087 6.16147 49.3365 5.87006 50.6764C5.57865 52.0162 5.67677 53.4118 6.15276 54.6974C6.62876 55.983 7.46263 57.1045 8.55534 57.9288C9.64806 58.7532 10.9537 59.2456 12.3172 59.3477C13.6807 59.4498 15.0447 59.1572 16.2474 58.5048C17.45 57.8523 18.4406 56.8673 19.1016 55.6669C19.7627 54.4664 20.0663 53.1009 19.9764 51.7325C19.8866 50.3641 19.4071 49.0503 18.5948 47.9472C18.5691 47.9171 18.5498 47.8891 18.5283 47.8612C16.7192 45.4337 15.4442 42.6488 14.7875 39.6906C14.7682 39.611 14.7532 39.5272 14.7339 39.4455C14.4302 37.9851 14.2772 36.4972 14.2773 35.0054C14.2773 34.5439 14.2923 34.0852 14.3223 33.6293C14.4411 31.7024 14.8212 29.8006 15.4521 27.9766C17.0704 23.2815 20.2597 19.2933 24.4781 16.6898C28.6964 14.0863 33.6834 13.0282 38.5915 13.6953C43.4996 14.3623 48.026 16.7134 51.4015 20.349C54.7769 23.9845 56.793 28.6802 57.1072 33.6379C57.1344 34.0938 57.1487 34.5525 57.1501 35.014C57.1495 36.5023 56.9965 37.9865 56.6935 39.4433C56.6742 39.525 56.6592 39.6089 56.6399 39.6885C56.2169 41.5954 55.5353 43.4351 54.614 45.1563C54.1098 46.0978 53.5366 47.0005 52.899 47.8569C52.8776 47.8848 52.8583 47.9128 52.8326 47.9429C52.0196 49.0462 51.5394 50.3605 51.4492 51.7295C51.3589 53.0985 51.6624 54.4647 52.3235 55.6658C52.9846 56.8669 53.9756 57.8525 55.1787 58.5053C56.3818 59.1582 57.7465 59.451 59.1106 59.3488C60.4747 59.2467 61.7809 58.754 62.8741 57.9292C63.9672 57.1044 64.8013 55.9822 65.2773 54.696C65.7533 53.4097 65.8511 52.0135 65.5592 50.6731C65.2673 49.3327 64.598 48.1045 63.6306 47.1344L65.9888 44.7585L67.663 43.0792C68.8602 44.2753 69.81 45.6967 70.4578 47.262C71.1057 48.8272 71.4388 50.5054 71.4382 52.2002Z" fill="#A996FF"/>
<path d="M22.9385 85.1599C23.2937 82.0095 24.7931 79.1006 27.1506 76.9884C29.508 74.8762 32.5584 73.7087 35.7195 73.7087C38.8806 73.7087 41.931 74.8762 44.2884 76.9884C46.6459 79.1006 48.1453 82.0095 48.5005 85.1599H42.7124C42.3816 83.5425 41.5043 82.0891 40.2286 81.0455C38.9529 80.0018 37.3572 79.4318 35.7109 79.4318C34.0647 79.4318 32.4689 80.0018 31.1933 81.0455C29.9176 82.0891 29.0402 83.5425 28.7094 85.1599H22.9385Z" fill="#A996FF"/>
<path d="M32.8604 45.0339C33.6489 45.0339 34.2881 44.3928 34.2881 43.6019C34.2881 42.8111 33.6489 42.1699 32.8604 42.1699C32.0718 42.1699 31.4326 42.8111 31.4326 43.6019C31.4326 44.3928 32.0718 45.0339 32.8604 45.0339Z" fill="#A996FF"/>
<path d="M38.5762 45.0339C39.3647 45.0339 40.0039 44.3928 40.0039 43.6019C40.0039 42.8111 39.3647 42.1699 38.5762 42.1699C37.7877 42.1699 37.1484 42.8111 37.1484 43.6019C37.1484 44.3928 37.7877 45.0339 38.5762 45.0339Z" fill="#A996FF"/>
</svg>
