<svg width="55" height="55" viewBox="0 0 55 55" fill="none" xmlns="http://www.w3.org/2000/svg">
<path d="M48.125 27.5L20.625 27.5M48.125 13.75L20.625 13.75M48.125 41.25L20.625 41.25M11.4583 27.5C11.4583 28.7656 10.4323 29.7916 9.16667 29.7916C7.90101 29.7916 6.875 28.7656 6.875 27.5C6.875 26.2343 7.90101 25.2083 9.16667 25.2083C10.4323 25.2083 11.4583 26.2343 11.4583 27.5ZM11.4583 13.75C11.4583 15.0156 10.4323 16.0416 9.16667 16.0416C7.90101 16.0416 6.875 15.0156 6.875 13.75C6.875 12.4843 7.90101 11.4583 9.16667 11.4583C10.4323 11.4583 11.4583 12.4843 11.4583 13.75ZM11.4583 41.25C11.4583 42.5156 10.4323 43.5416 9.16667 43.5416C7.90101 43.5416 6.875 42.5156 6.875 41.25C6.875 39.9843 7.90101 38.9583 9.16667 38.9583C10.4323 38.9583 11.4583 39.9843 11.4583 41.25Z" stroke="white" stroke-width="2" stroke-linecap="round" stroke-linejoin="round"/>
</svg>
