<svg width="55" height="55" viewBox="0 0 55 55" fill="none" xmlns="http://www.w3.org/2000/svg">
<path d="M37.125 48.125C40.9754 48.125 42.9005 48.125 44.3712 47.3757C45.6648 46.7165 46.7165 45.6648 47.3757 44.3712C48.125 42.9005 48.125 40.9754 48.125 37.125V17.875C48.125 14.0246 48.125 12.0995 47.3757 10.6288C46.7165 9.3352 45.6648 8.28346 44.3712 7.62433C42.9005 6.875 40.9754 6.875 37.125 6.875L17.875 6.875C14.0246 6.875 12.0995 6.875 10.6288 7.62433C9.3352 8.28346 8.28346 9.3352 7.62433 10.6288C6.875 12.0995 6.875 14.0246 6.875 17.875L6.875 37.125C6.875 40.9754 6.875 42.9005 7.62433 44.3712C8.28346 45.6648 9.3352 46.7165 10.6288 47.3757C12.0995 48.125 14.0246 48.125 17.875 48.125H37.125Z" stroke="white" stroke-width="2" stroke-linecap="round" stroke-linejoin="round"/>
<path d="M31.4682 30.2378C31.3065 29.7528 31.2257 29.5103 31.2299 29.3119C31.2343 29.1033 31.2622 28.9939 31.3583 28.8087C31.4496 28.6326 31.6938 28.4053 32.1823 27.9507C33.5312 26.6955 34.375 24.9046 34.375 22.9167C34.375 19.1197 31.297 16.0417 27.5 16.0417C23.703 16.0417 20.625 19.1197 20.625 22.9167C20.625 24.9046 21.4688 26.6955 22.8177 27.9507C23.3062 28.4053 23.5504 28.6326 23.6417 28.8087C23.7378 28.9939 23.7657 29.1033 23.7701 29.3119C23.7743 29.5103 23.6935 29.7528 23.5318 30.2378L21.4294 36.5452C21.1578 37.36 21.022 37.7673 21.1034 38.0916C21.1747 38.3754 21.3519 38.6212 21.5986 38.7786C21.8804 38.9583 22.3098 38.9583 23.1686 38.9583H31.8314C32.6902 38.9583 33.1196 38.9583 33.4014 38.7786C33.6481 38.6212 33.8253 38.3754 33.8966 38.0916C33.978 37.7673 33.8422 37.36 33.5706 36.5452L31.4682 30.2378Z" stroke="white" stroke-width="2" stroke-linecap="round" stroke-linejoin="round"/>
</svg>
