<svg width="34" height="35" viewBox="0 0 34 35" fill="none" xmlns="http://www.w3.org/2000/svg">
<path d="M30.9606 27.3704V30.0709H27.5966C25.2413 30.0693 22.9436 29.3397 21.0165 27.9815C19.0894 26.6232 17.6265 24.7022 16.827 22.4801C16.0275 24.7022 14.5646 26.6232 12.6375 27.9815C10.7104 29.3397 8.41276 30.0693 6.05741 30.0709H2.69141V27.3704H6.05741C8.26207 27.3708 10.3856 26.5363 12.0032 25.0339C13.6208 23.5314 14.6132 21.4718 14.782 19.2671H18.8761C19.0448 21.4718 20.0373 23.5314 21.6549 25.0339C23.2725 26.5363 25.396 27.3708 27.6007 27.3704H30.9606Z" fill="white"/>
<path d="M33.654 18.5912C33.6545 19.0025 33.6136 19.4128 33.5318 19.8158C33.2423 21.2189 32.4679 22.4744 31.3452 23.3604C30.2226 24.2465 28.8239 24.7063 27.3962 24.6585C25.9684 24.6108 24.6033 24.0586 23.542 23.0995C22.4807 22.1404 21.7914 20.8361 21.5957 19.4167C21.4267 18.1993 21.6318 16.959 22.1835 15.8614C22.3362 15.5546 22.5153 15.2618 22.7187 14.9862C22.7379 14.9609 22.7591 14.9346 22.7803 14.9052C23.7237 13.6278 24.2316 12.0795 24.2285 10.4899C24.2285 8.52049 23.4485 6.63174 22.0601 5.23915C20.6716 3.84656 18.7885 3.06421 16.8249 3.06421C14.8614 3.06421 12.9783 3.84656 11.5898 5.23915C10.2014 6.63174 9.42135 8.52049 9.42135 10.4899C9.41942 12.0819 9.92863 13.6322 10.8736 14.9113C10.8948 14.9407 10.916 14.967 10.9352 14.9923C11.139 15.2676 11.3181 15.5605 11.4704 15.8675C11.8596 16.6409 12.0794 17.4888 12.1151 18.3544C12.1507 19.22 12.0015 20.0832 11.6774 20.8862C11.3533 21.6892 10.8617 22.4134 10.2357 23.0103C9.60972 23.6072 8.86372 24.063 8.04774 24.347C7.23176 24.6311 6.36466 24.7369 5.50457 24.6574C4.64448 24.5779 3.81128 24.3148 3.06083 23.8859C2.31038 23.457 1.66003 22.8722 1.15337 22.1705C0.646713 21.4689 0.295463 20.6668 0.12317 19.8179C-0.077854 18.8323 -0.032256 17.8122 0.255886 16.8487C0.544029 15.8852 1.06574 15.0083 1.77436 14.2965L2.56209 15.0875L3.67298 16.2068C3.21764 16.6638 2.90262 17.2422 2.76534 17.8734C2.62806 18.5046 2.67428 19.162 2.89852 19.7677C3.12276 20.3733 3.51559 20.9016 4.03036 21.29C4.54512 21.6783 5.1602 21.9103 5.80253 21.9584C6.44486 22.0065 7.08746 21.8686 7.654 21.5613C8.22055 21.2539 8.68723 20.7899 8.99864 20.2244C9.31004 19.6588 9.45307 19.0156 9.41074 18.3709C9.36842 17.7263 9.14251 17.1074 8.75986 16.5877C8.74774 16.5735 8.73865 16.5603 8.72855 16.5472C7.8763 15.4036 7.27565 14.0917 6.96627 12.6981C6.95718 12.6606 6.95011 12.6211 6.94102 12.5826C6.79795 11.8946 6.72586 11.1937 6.72591 10.4909C6.72591 10.2735 6.73298 10.0574 6.74712 9.84266C6.80309 8.93487 6.98215 8.03898 7.27934 7.17969C8.04173 4.96787 9.5442 3.08905 11.5314 1.86257C13.5186 0.636088 15.868 0.137612 18.1802 0.451859C20.4923 0.766107 22.6247 1.87369 24.2148 3.58637C25.805 5.29905 26.7547 7.51114 26.9028 9.84671C26.9156 10.0614 26.9223 10.2775 26.923 10.495C26.9227 11.1961 26.8506 11.8953 26.7078 12.5816C26.6988 12.6201 26.6917 12.6596 26.6826 12.6971C26.4833 13.5954 26.1622 14.4621 25.7282 15.2729C25.4907 15.7164 25.2207 16.1417 24.9203 16.5451C24.9102 16.5583 24.9011 16.5715 24.889 16.5856C24.506 17.1054 24.2798 17.7246 24.2373 18.3695C24.1948 19.0144 24.3377 19.658 24.6492 20.2239C24.9606 20.7897 25.4275 21.254 25.9942 21.5615C26.561 21.8691 27.2039 22.007 27.8465 21.9589C28.4892 21.9108 29.1045 21.6787 29.6195 21.2901C30.1344 20.9016 30.5274 20.3729 30.7516 19.767C30.9759 19.161 31.022 18.5033 30.8844 17.8718C30.7469 17.2404 30.4316 16.6618 29.9759 16.2048L31.0868 15.0855L31.8755 14.2944C32.4395 14.8579 32.8869 15.5275 33.1921 16.2649C33.4973 17.0022 33.6543 17.7928 33.654 18.5912Z" fill="white"/>
<path d="M10.8057 34.1183C10.973 32.6342 11.6794 31.2638 12.7899 30.2688C13.9005 29.2738 15.3375 28.7238 16.8267 28.7238C18.3159 28.7238 19.7529 29.2738 20.8635 30.2688C21.974 31.2638 22.6804 32.6342 22.8477 34.1183H20.121C19.9652 33.3563 19.5519 32.6717 18.9509 32.18C18.3499 31.6884 17.5982 31.4198 16.8227 31.4198C16.0471 31.4198 15.2954 31.6884 14.6944 32.18C14.0935 32.6717 13.6802 33.3563 13.5243 34.1183H10.8057Z" fill="white"/>
<path d="M15.4802 15.2154C15.8517 15.2154 16.1528 14.9134 16.1528 14.5408C16.1528 14.1682 15.8517 13.8662 15.4802 13.8662C15.1087 13.8662 14.8076 14.1682 14.8076 14.5408C14.8076 14.9134 15.1087 15.2154 15.4802 15.2154Z" fill="white"/>
<path d="M18.1736 15.2154C18.545 15.2154 18.8462 14.9134 18.8462 14.5408C18.8462 14.1682 18.545 13.8662 18.1736 13.8662C17.8021 13.8662 17.501 14.1682 17.501 14.5408C17.501 14.9134 17.8021 15.2154 18.1736 15.2154Z" fill="white"/>
</svg>
