<svg width="35" height="35" viewBox="0 0 35 35" fill="none" xmlns="http://www.w3.org/2000/svg">
<path d="M31.4572 27.4438V30.1875H28.0392C25.646 30.186 23.3115 29.4447 21.3534 28.0646C19.3954 26.6845 17.909 24.7327 17.0967 22.4749C16.2843 24.7327 14.7979 26.6845 12.8399 28.0646C10.8819 29.4447 8.54734 30.186 6.15417 30.1875H2.73413V27.4438H6.15417C8.39423 27.4441 10.5518 26.5962 12.1954 25.0697C13.839 23.5431 14.8473 21.4505 15.0188 19.2103H19.1787C19.3501 21.4505 20.3585 23.5431 22.002 25.0697C23.6456 26.5962 25.8032 27.4441 28.0433 27.4438H31.4572Z" fill="#A996FF"/>
<path d="M34.1942 18.5238C34.1948 18.9417 34.1532 19.3586 34.0701 19.7681C33.776 21.1937 32.9891 22.4693 31.8485 23.3696C30.7078 24.2699 29.2867 24.737 27.836 24.6885C26.3853 24.64 24.9983 24.079 23.92 23.1045C22.8416 22.13 22.1412 20.8047 21.9424 19.3626C21.7707 18.1255 21.9791 16.8654 22.5396 15.7502C22.6947 15.4384 22.8767 15.1409 23.0835 14.8609C23.103 14.8352 23.1245 14.8085 23.1461 14.7786C24.1046 13.4807 24.6206 11.9076 24.6175 10.2924C24.6175 8.29139 23.825 6.37231 22.4142 4.95737C21.0035 3.54242 19.0901 2.74752 17.0951 2.74752C15.1 2.74752 13.1866 3.54242 11.7759 4.95737C10.3651 6.37231 9.5726 8.29139 9.5726 10.2924C9.57064 11.91 10.088 13.4851 11.0481 14.7848C11.0697 14.8146 11.0912 14.8414 11.1107 14.8671C11.3179 15.1468 11.4998 15.4444 11.6546 15.7563C12.05 16.5422 12.2733 17.4037 12.3095 18.2832C12.3458 19.1626 12.1942 20.0397 11.8649 20.8556C11.5355 21.6715 11.0361 22.4074 10.4001 23.0138C9.76399 23.6203 9.00602 24.0834 8.17694 24.372C7.34786 24.6606 6.46683 24.7682 5.59294 24.6874C4.71904 24.6066 3.87246 24.3393 3.10997 23.9035C2.34747 23.4677 1.68668 22.8735 1.17189 22.1606C0.657096 21.4477 0.300207 20.6327 0.125147 19.7701C-0.0791039 18.7688 -0.0327738 17.7323 0.259994 16.7533C0.552763 15.7743 1.08284 14.8834 1.80285 14.1601L2.60322 14.9639L3.73195 16.1011C3.2693 16.5654 2.94922 17.1531 2.80973 17.7944C2.67025 18.4358 2.71721 19.1038 2.94505 19.7191C3.17289 20.3345 3.57203 20.8713 4.09506 21.2659C4.61809 21.6604 5.24304 21.8961 5.89568 21.945C6.54833 21.9939 7.20124 21.8538 7.77688 21.5415C8.35252 21.2292 8.8267 20.7578 9.1431 20.1832C9.4595 19.6086 9.60483 18.9549 9.56182 18.3C9.51882 17.645 9.28929 17.0161 8.90049 16.4881C8.88818 16.4737 8.87894 16.4603 8.86868 16.4469C8.00274 15.285 7.39245 13.952 7.07811 12.536C7.06887 12.498 7.06169 12.4578 7.05246 12.4187C6.90708 11.7197 6.83384 11.0075 6.83389 10.2935C6.83389 10.0725 6.84107 9.85297 6.85544 9.63478C6.91231 8.71243 7.09424 7.80215 7.3962 6.92907C8.17083 4.68173 9.69743 2.77276 11.7165 1.52658C13.7357 0.280411 16.1227 -0.226068 18.472 0.0932247C20.8213 0.412517 22.9879 1.53788 24.6036 3.27805C26.2192 5.01823 27.1843 7.26584 27.3347 9.6389C27.3477 9.85708 27.3545 10.0766 27.3552 10.2976C27.3549 11.0099 27.2816 11.7203 27.1366 12.4177C27.1274 12.4568 27.1202 12.4969 27.111 12.535C26.9085 13.4478 26.5822 14.3284 26.1413 15.1522C25.8999 15.6029 25.6255 16.0349 25.3204 16.4449C25.3101 16.4582 25.3009 16.4716 25.2886 16.486C24.8994 17.0142 24.6696 17.6432 24.6264 18.2985C24.5832 18.9538 24.7285 19.6077 25.0449 20.1827C25.3613 20.7576 25.8357 21.2293 26.4116 21.5418C26.9874 21.8543 27.6406 21.9944 28.2936 21.9455C28.9465 21.8967 29.5718 21.6608 30.095 21.266C30.6182 20.8712 31.0175 20.3341 31.2453 19.7184C31.4731 19.1028 31.52 18.4344 31.3803 17.7928C31.2406 17.1513 30.9202 16.5634 30.4571 16.0991L31.5859 14.9618L32.3873 14.158C32.9603 14.7305 33.4149 15.4109 33.725 16.1601C34.0351 16.9093 34.1946 17.7126 34.1942 18.5238Z" fill="#A996FF"/>
<path d="M10.9792 34.3C11.1493 32.7921 11.867 31.3997 12.9954 30.3887C14.1238 29.3777 15.5839 28.8188 17.0969 28.8188C18.61 28.8188 20.0701 29.3777 21.1985 30.3887C22.3269 31.3997 23.0446 32.7921 23.2147 34.3H20.4441C20.2858 33.5258 19.8659 32.8302 19.2553 32.3306C18.6446 31.8311 17.8808 31.5582 17.0928 31.5582C16.3049 31.5582 15.541 31.8311 14.9304 32.3306C14.3198 32.8302 13.8999 33.5258 13.7416 34.3H10.9792Z" fill="#A996FF"/>
<path d="M15.7288 15.0935C16.1062 15.0935 16.4122 14.7866 16.4122 14.4081C16.4122 14.0295 16.1062 13.7227 15.7288 13.7227C15.3514 13.7227 15.0454 14.0295 15.0454 14.4081C15.0454 14.7866 15.3514 15.0935 15.7288 15.0935Z" fill="#A996FF"/>
<path d="M18.4644 15.0935C18.8418 15.0935 19.1478 14.7866 19.1478 14.4081C19.1478 14.0295 18.8418 13.7227 18.4644 13.7227C18.087 13.7227 17.781 14.0295 17.781 14.4081C17.781 14.7866 18.087 15.0935 18.4644 15.0935Z" fill="#A996FF"/>
</svg>
