<svg width="131" height="42" viewBox="0 0 131 42" fill="none" xmlns="http://www.w3.org/2000/svg">
<path d="M3 24.5479L7.7808 29.22C9.03969 30.4503 11.055 30.4358 12.296 29.1875L21.3389 20.0917C22.6494 18.7736 22.5682 16.6209 21.1621 15.4052L18.1117 12.7679C16.9304 11.7465 15.1851 11.7247 13.9786 12.7162L10.7493 15.3699C9.26879 16.5866 9.17892 18.8216 10.557 20.1532L19.9729 29.2518C21.231 30.4675 23.2314 30.4503 24.4685 29.2132L29.1338 24.5479" stroke="white" stroke-width="5.61156" stroke-linecap="round" stroke-linejoin="round"/>
<path d="M63.0876 11.7227C63.1679 11.6023 63.2983 11.5421 63.4789 11.5421H65.9467C66.1473 11.5421 66.2476 11.6424 66.2476 11.843V32.699C66.2476 32.8997 66.1473 33 65.9467 33H61.4324C61.2317 33 61.1314 32.8997 61.1314 32.699V23.8209C61.1314 23.6805 61.0913 23.6003 61.011 23.5802C60.9308 23.5401 60.8505 23.5702 60.7703 23.6705L55.323 31.6156C55.2629 31.6959 55.1926 31.736 55.1124 31.736C55.0321 31.736 54.9619 31.6959 54.9017 31.6156L49.4846 23.7006C49.4244 23.6203 49.3642 23.5802 49.304 23.5802C49.1836 23.5802 49.1234 23.6604 49.1234 23.8209V32.699C49.1234 32.8997 49.0231 33 48.8225 33H44.3082C44.1076 33 44.0072 32.8997 44.0072 32.699V11.843C44.0072 11.6424 44.1076 11.5421 44.3082 11.5421H46.776C46.9566 11.5421 47.087 11.6023 47.1672 11.7227L54.9017 23.6103C54.9619 23.6905 55.0321 23.7307 55.1124 23.7307C55.1926 23.7307 55.2629 23.6905 55.323 23.6103L63.0876 11.7227ZM72.1342 15.1535C71.3918 15.1535 70.7498 14.8927 70.2081 14.371C69.6864 13.8293 69.4256 13.1873 69.4256 12.4449C69.4256 11.7026 69.6864 11.0706 70.2081 10.5489C70.7498 10.0072 71.3918 9.73637 72.1342 9.73637C72.8966 9.73637 73.5386 9.9972 74.0603 10.5188C74.5819 11.0405 74.8427 11.6825 74.8427 12.4449C74.8427 13.1873 74.5719 13.8293 74.0302 14.371C73.5085 14.8927 72.8765 15.1535 72.1342 15.1535ZM69.7265 17.3806C69.7265 17.2201 69.8068 17.1398 69.9673 17.1398H74.301C74.4615 17.1398 74.5418 17.2201 74.5418 17.3806V32.7592C74.5418 32.9197 74.4615 33 74.301 33H69.9673C69.8068 33 69.7265 32.9197 69.7265 32.7592V17.3806ZM97.6828 17.0495C99.6891 17.0495 101.174 17.6916 102.137 18.9756C103.12 20.2597 103.652 22.0052 103.732 24.2122V32.7592C103.732 32.9197 103.652 33 103.491 33H99.1574C98.9969 33 98.9167 32.9197 98.9167 32.7592V24.2122C98.9167 23.0686 98.686 22.2159 98.2245 21.6541C97.7831 21.0923 97.0909 20.8114 96.1479 20.8114C95.225 20.8114 94.4927 21.1625 93.951 21.8648C93.4093 22.5469 93.1384 23.3695 93.1384 24.3326V32.7592C93.1384 32.9197 93.0581 33 92.8976 33H88.5639C88.4034 33 88.3232 32.9197 88.3232 32.7592V24.2122C88.3232 23.0686 88.0924 22.2159 87.631 21.6541C87.1896 21.0923 86.4974 20.8114 85.5544 20.8114C84.6315 20.8114 83.8992 21.1625 83.3574 21.8648C82.8157 22.5469 82.5449 23.3695 82.5449 24.3326V32.7592C82.5449 32.9197 82.4646 33 82.3041 33H77.9704C77.8099 33 77.7296 32.9197 77.7296 32.7592V17.3806C77.7296 17.2201 77.8099 17.1398 77.9704 17.1398H82.3041C82.4646 17.1398 82.5449 17.2201 82.5449 17.3806V19.1261C82.5449 19.2264 82.575 19.2966 82.6352 19.3368C82.6953 19.3568 82.7555 19.3267 82.8157 19.2465C83.3173 18.5844 83.9293 18.0527 84.6515 17.6514C85.3939 17.2502 86.2065 17.0495 87.0893 17.0495C89.5571 17.0495 91.2825 18.0728 92.2656 20.1192C92.3058 20.1995 92.3459 20.2496 92.386 20.2697C92.4462 20.2898 92.4964 20.2697 92.5365 20.2095C92.998 19.3267 93.6901 18.5844 94.6131 17.9825C95.536 17.3605 96.5592 17.0495 97.6828 17.0495ZM109.316 15.1535C108.574 15.1535 107.932 14.8927 107.39 14.371C106.869 13.8293 106.608 13.1873 106.608 12.4449C106.608 11.7026 106.869 11.0706 107.39 10.5489C107.932 10.0072 108.574 9.73637 109.316 9.73637C110.079 9.73637 110.721 9.9972 111.242 10.5188C111.764 11.0405 112.025 11.6825 112.025 12.4449C112.025 13.1873 111.754 13.8293 111.212 14.371C110.691 14.8927 110.059 15.1535 109.316 15.1535ZM106.909 17.3806C106.909 17.2201 106.989 17.1398 107.149 17.1398H111.483C111.644 17.1398 111.724 17.2201 111.724 17.3806V32.7592C111.724 32.9197 111.644 33 111.483 33H107.149C106.989 33 106.909 32.9197 106.909 32.7592V17.3806ZM129.207 27.6731C129.267 27.6932 129.307 27.7434 129.327 27.8236C129.347 27.8838 129.347 27.944 129.327 28.0042C129.207 28.7666 128.866 29.539 128.304 30.3215C127.742 31.104 126.94 31.7661 125.897 32.3078C124.853 32.8295 123.619 33.0903 122.195 33.0903C120.65 33.0903 119.276 32.7392 118.072 32.037C116.888 31.3147 115.965 30.3416 115.303 29.1177C114.641 27.8938 114.31 26.5396 114.31 25.0549C114.31 23.5702 114.641 22.2259 115.303 21.0221C115.965 19.7982 116.888 18.8352 118.072 18.1329C119.276 17.4107 120.65 17.0495 122.195 17.0495C123.639 17.0495 124.873 17.3204 125.897 17.8621C126.94 18.3837 127.742 19.0358 128.304 19.8183C128.886 20.6008 129.227 21.3732 129.327 22.1356V22.2259C129.327 22.3864 129.287 22.4767 129.207 22.4968L125.174 23.0385H125.114C124.974 23.0385 124.883 22.9783 124.843 22.8579C124.683 22.2761 124.382 21.7945 123.94 21.4133C123.519 21.0121 122.967 20.8114 122.285 20.8114C121.282 20.8114 120.499 21.2027 119.938 21.9851C119.396 22.7676 119.125 23.7909 119.125 25.0549C119.125 26.3389 119.396 27.3722 119.938 28.1547C120.499 28.9371 121.282 29.3284 122.285 29.3284C122.967 29.3284 123.519 29.1378 123.94 28.7566C124.362 28.3553 124.663 27.8738 124.843 27.312C124.883 27.1716 124.994 27.1114 125.174 27.1314L129.207 27.6731Z" fill="white"/>
<path d="M63.0876 11.7227L62.675 11.4476L62.6725 11.4515L63.0876 11.7227ZM61.011 23.5802L60.7893 24.0237L60.838 24.048L60.8908 24.0612L61.011 23.5802ZM60.7703 23.6705L60.3831 23.3607L60.3717 23.375L60.3613 23.3901L60.7703 23.6705ZM55.323 31.6156L55.7197 31.9131L55.726 31.9047L55.732 31.896L55.323 31.6156ZM54.9017 31.6156L54.4925 31.8957L54.4986 31.9045L54.505 31.9131L54.9017 31.6156ZM49.4846 23.7006L49.8937 23.4205L49.8877 23.4117L49.8812 23.4031L49.4846 23.7006ZM47.1672 11.7227L47.5829 11.4522L47.5798 11.4476L47.1672 11.7227ZM54.9017 23.6103L54.4861 23.8807L54.4951 23.8946L54.505 23.9078L54.9017 23.6103ZM55.323 23.6103L55.7197 23.9078L55.7294 23.8949L55.7382 23.8814L55.323 23.6103ZM63.5002 11.9977C63.4962 12.0037 63.4895 12.0119 63.4799 12.0201C63.4703 12.0283 63.4608 12.034 63.4534 12.0374C63.439 12.0441 63.4424 12.0379 63.4789 12.0379V11.0463C63.1791 11.0463 62.8704 11.1545 62.6751 11.4476L63.5002 11.9977ZM63.4789 12.0379H65.9467V11.0463H63.4789V12.0379ZM65.9467 12.0379C65.9706 12.0379 65.8974 12.0436 65.8218 11.9679C65.7462 11.8923 65.7518 11.8192 65.7518 11.843H66.7435C66.7435 11.6663 66.6989 11.4427 66.523 11.2667C66.347 11.0908 66.1234 11.0463 65.9467 11.0463V12.0379ZM65.7518 11.843V32.699H66.7435V11.843H65.7518ZM65.7518 32.699C65.7518 32.7229 65.7462 32.6498 65.8218 32.5742C65.8974 32.4985 65.9706 32.5042 65.9467 32.5042V33.4958C66.1234 33.4958 66.347 33.4513 66.523 33.2754C66.6989 33.0994 66.7435 32.8758 66.7435 32.699H65.7518ZM65.9467 32.5042H61.4324V33.4958H65.9467V32.5042ZM61.4324 32.5042C61.4085 32.5042 61.4816 32.4985 61.5573 32.5742C61.6329 32.6498 61.6273 32.7229 61.6273 32.699H60.6356C60.6356 32.8758 60.6801 33.0994 60.8561 33.2754C61.032 33.4513 61.2556 33.4958 61.4324 33.4958V32.5042ZM61.6273 32.699V23.8209H60.6356V32.699H61.6273ZM61.6273 23.8209C61.6273 23.7129 61.6134 23.5707 61.5448 23.4337C61.4662 23.2765 61.3248 23.1475 61.1313 23.0992L60.8908 24.0612C60.8426 24.0492 60.7918 24.0253 60.7463 23.9874C60.7017 23.9503 60.674 23.9094 60.6578 23.8772C60.6294 23.8204 60.6356 23.7885 60.6356 23.8209H61.6273ZM61.2328 23.1367C61.0759 23.0582 60.8925 23.0424 60.7166 23.1084C60.5611 23.1667 60.4532 23.2731 60.3831 23.3607L61.1575 23.9802C61.1676 23.9675 61.14 24.0087 61.0648 24.0369C61.0238 24.0523 60.9741 24.0615 60.9199 24.0581C60.8663 24.0548 60.8219 24.0399 60.7893 24.0237L61.2328 23.1367ZM60.3613 23.3901L54.9141 31.3352L55.732 31.896L61.1792 23.9509L60.3613 23.3901ZM54.9264 31.3181C54.9274 31.3167 54.9433 31.296 54.9792 31.2754C55.0184 31.253 55.0655 31.2402 55.1124 31.2402V32.2318C55.3874 32.2318 55.5918 32.0836 55.7197 31.9131L54.9264 31.3181ZM55.1124 31.2402C55.1592 31.2402 55.2063 31.253 55.2455 31.2754C55.2815 31.296 55.2973 31.3167 55.2984 31.3181L54.505 31.9131C54.6329 32.0836 54.8373 32.2318 55.1124 32.2318V31.2402ZM55.3109 31.3356L49.8937 23.4205L49.0754 23.9806L54.4925 31.8957L55.3109 31.3356ZM49.8812 23.4031C49.7893 23.2804 49.6005 23.0844 49.304 23.0844V24.076C49.2179 24.076 49.1539 24.046 49.1192 24.0228C49.0883 24.0022 49.0795 23.9868 49.0879 23.9981L49.8812 23.4031ZM49.304 23.0844C49.1228 23.0844 48.9149 23.1523 48.7719 23.3429C48.6491 23.5067 48.6276 23.693 48.6276 23.8209H49.6193C49.6193 23.7884 49.6279 23.8543 49.5652 23.9379C49.5303 23.9844 49.4823 24.0235 49.4264 24.0483C49.3733 24.0719 49.3285 24.076 49.304 24.076V23.0844ZM48.6276 23.8209V32.699H49.6193V23.8209H48.6276ZM48.6276 32.699C48.6276 32.7229 48.622 32.6498 48.6976 32.5742C48.7732 32.4985 48.8464 32.5042 48.8225 32.5042V33.4958C48.9992 33.4958 49.2229 33.4513 49.3988 33.2754C49.5747 33.0994 49.6193 32.8758 49.6193 32.699H48.6276ZM48.8225 32.5042H44.3082V33.4958H48.8225V32.5042ZM44.3082 32.5042C44.2843 32.5042 44.3575 32.4985 44.4331 32.5742C44.5087 32.6498 44.5031 32.7229 44.5031 32.699H43.5114C43.5114 32.8758 43.5559 33.0994 43.7319 33.2754C43.9078 33.4513 44.1314 33.4958 44.3082 33.4958V32.5042ZM44.5031 32.699V11.843H43.5114V32.699H44.5031ZM44.5031 11.843C44.5031 11.8192 44.5087 11.8923 44.4331 11.9679C44.3575 12.0436 44.2843 12.0379 44.3082 12.0379V11.0463C44.1314 11.0463 43.9078 11.0908 43.7319 11.2667C43.5559 11.4427 43.5114 11.6663 43.5114 11.843H44.5031ZM44.3082 12.0379H46.776V11.0463H44.3082V12.0379ZM46.776 12.0379C46.8124 12.0379 46.8159 12.0441 46.8014 12.0374C46.794 12.034 46.7845 12.0283 46.775 12.0201C46.7654 12.0119 46.7587 12.0037 46.7547 11.9977L47.5798 11.4476C47.3844 11.1545 47.0757 11.0463 46.776 11.0463V12.0379ZM46.7516 11.9931L54.4861 23.8807L55.3173 23.3399L47.5828 11.4523L46.7516 11.9931ZM54.505 23.9078C54.6329 24.0783 54.8373 24.2265 55.1124 24.2265V23.2348C55.1592 23.2348 55.2063 23.2477 55.2455 23.2701C55.2815 23.2906 55.2973 23.3114 55.2984 23.3128L54.505 23.9078ZM55.1124 24.2265C55.3874 24.2265 55.5918 24.0783 55.7197 23.9078L54.9264 23.3128C54.9274 23.3114 54.9433 23.2906 54.9792 23.2701C55.0184 23.2477 55.0655 23.2348 55.1124 23.2348V24.2265ZM55.7382 23.8814L63.5027 11.9938L62.6725 11.4515L54.9079 23.3391L55.7382 23.8814ZM70.2081 14.371L69.8509 14.715L69.8574 14.7217L69.8641 14.7282L70.2081 14.371ZM70.2081 10.5489L69.8575 10.1983L70.2081 10.5489ZM74.0603 10.5188L73.7097 10.8695L74.0603 10.5188ZM74.0302 14.371L74.3808 14.7216L74.0302 14.371ZM72.1342 14.6577C71.5219 14.6577 71.0027 14.4479 70.552 14.0139L69.8641 14.7282C70.4969 15.3375 71.2617 15.6493 72.1342 15.6493V14.6577ZM70.5652 14.0271C70.1312 13.5764 69.9214 13.0572 69.9214 12.4449H68.9298C68.9298 13.3174 69.2416 14.0822 69.8509 14.715L70.5652 14.0271ZM69.9214 12.4449C69.9214 11.8332 70.1307 11.3276 70.5587 10.8996L69.8575 10.1983C69.2422 10.8136 68.9298 11.572 68.9298 12.4449H69.9214ZM70.5587 10.8996C71.0107 10.4475 71.5279 10.2322 72.1342 10.2322V9.24054C71.2557 9.24054 70.4888 9.56696 69.8575 10.1983L70.5587 10.8996ZM72.1342 10.2322C72.77 10.2322 73.2844 10.4442 73.7097 10.8695L74.4109 10.1682C73.7928 9.55018 73.0232 9.24054 72.1342 9.24054V10.2322ZM73.7097 10.8695C74.1349 11.2947 74.3469 11.8091 74.3469 12.4449H75.3386C75.3386 11.5559 75.0289 10.7863 74.4109 10.1682L73.7097 10.8695ZM74.3469 12.4449C74.3469 13.0512 74.1316 13.5684 73.6796 14.0204L74.3808 14.7216C75.0121 14.0903 75.3386 13.3234 75.3386 12.4449H74.3469ZM73.6796 14.0204C73.2515 14.4484 72.7459 14.6577 72.1342 14.6577V15.6493C73.0071 15.6493 73.7655 15.3369 74.3808 14.7216L73.6796 14.0204ZM70.2224 17.3806C70.2224 17.381 70.2224 17.3858 70.2212 17.3943C70.2199 17.4028 70.2174 17.4158 70.212 17.432C70.2006 17.4662 70.1779 17.5101 70.1373 17.5506C70.0968 17.5911 70.053 17.6138 70.0188 17.6252C70.0025 17.6307 69.9895 17.6332 69.981 17.6344C69.9725 17.6356 69.9677 17.6356 69.9673 17.6356V16.644C69.8106 16.644 69.602 16.6835 69.4361 16.8494C69.2702 17.0153 69.2307 17.2239 69.2307 17.3806H70.2224ZM69.9673 17.6356H74.301V16.644H69.9673V17.6356ZM74.301 17.6356C74.3006 17.6356 74.2958 17.6356 74.2873 17.6344C74.2788 17.6332 74.2658 17.6307 74.2496 17.6252C74.2153 17.6138 74.1715 17.5911 74.131 17.5506C74.0905 17.5101 74.0678 17.4662 74.0564 17.432C74.0509 17.4158 74.0484 17.4028 74.0472 17.3943C74.046 17.3858 74.046 17.381 74.046 17.3806H75.0376C75.0376 17.2239 74.9981 17.0153 74.8322 16.8494C74.6663 16.6835 74.4577 16.644 74.301 16.644V17.6356ZM74.046 17.3806V32.7592H75.0376V17.3806H74.046ZM74.046 32.7592C74.046 32.7588 74.046 32.754 74.0472 32.7455C74.0484 32.737 74.0509 32.724 74.0564 32.7078C74.0678 32.6736 74.0905 32.6297 74.131 32.5892C74.1715 32.5487 74.2153 32.526 74.2496 32.5146C74.2658 32.5091 74.2788 32.5066 74.2873 32.5054C74.2958 32.5042 74.3006 32.5042 74.301 32.5042V33.4958C74.4577 33.4958 74.6663 33.4563 74.8322 33.2904C74.9981 33.1245 75.0376 32.9159 75.0376 32.7592H74.046ZM74.301 32.5042H69.9673V33.4958H74.301V32.5042ZM69.9673 32.5042C69.9677 32.5042 69.9725 32.5042 69.981 32.5054C69.9895 32.5066 70.0025 32.5091 70.0188 32.5146C70.053 32.526 70.0968 32.5487 70.1373 32.5892C70.1779 32.6297 70.2006 32.6736 70.212 32.7078C70.2174 32.724 70.2199 32.737 70.2212 32.7455C70.2224 32.754 70.2224 32.7588 70.2224 32.7592H69.2307C69.2307 32.9159 69.2702 33.1245 69.4361 33.2904C69.602 33.4563 69.8106 33.4958 69.9673 33.4958V32.5042ZM70.2224 32.7592V17.3806H69.2307V32.7592H70.2224ZM102.137 18.9756L101.74 19.2731L101.743 19.277L102.137 18.9756ZM103.732 24.2122H104.228V24.2032L104.227 24.1942L103.732 24.2122ZM98.2245 21.6541L97.8345 21.9605L97.8414 21.9688L98.2245 21.6541ZM93.951 21.8648L94.3393 22.1731L94.3436 22.1676L93.951 21.8648ZM87.631 21.6541L87.241 21.9605L87.2478 21.9688L87.631 21.6541ZM83.3574 21.8648L83.7458 22.1731L83.75 22.1676L83.3574 21.8648ZM82.6352 19.3368L82.3601 19.7493L82.4154 19.7861L82.4784 19.8071L82.6352 19.3368ZM82.8157 19.2465L82.4205 18.9471L82.4191 18.949L82.8157 19.2465ZM84.6515 17.6514L84.4157 17.2152L84.4107 17.218L84.6515 17.6514ZM92.2656 20.1192L91.8186 20.334L91.8221 20.341L92.2656 20.1192ZM92.386 20.2697L92.1643 20.7132L92.1958 20.729L92.2292 20.7401L92.386 20.2697ZM92.5365 20.2095L92.9491 20.4846L92.9637 20.4626L92.9759 20.4392L92.5365 20.2095ZM94.6131 17.9825L94.884 18.3978L94.8902 18.3936L94.6131 17.9825ZM97.6828 17.5454C99.5763 17.5454 100.894 18.1449 101.74 19.2731L102.534 18.6781C101.454 17.2382 99.8019 16.5537 97.6828 16.5537V17.5454ZM101.743 19.277C102.645 20.4545 103.159 22.0892 103.236 24.2302L104.227 24.1942C104.145 21.9212 103.595 20.0649 102.531 18.6742L101.743 19.277ZM103.236 24.2122V32.7592H104.228V24.2122H103.236ZM103.236 32.7592C103.236 32.7588 103.236 32.754 103.237 32.7455C103.239 32.737 103.241 32.724 103.246 32.7078C103.258 32.6736 103.281 32.6297 103.321 32.5892C103.362 32.5487 103.405 32.526 103.44 32.5146C103.456 32.5091 103.469 32.5066 103.477 32.5054C103.486 32.5042 103.491 32.5042 103.491 32.5042V33.4958C103.648 33.4958 103.856 33.4563 104.022 33.2904C104.188 33.1245 104.228 32.9159 104.228 32.7592H103.236ZM103.491 32.5042H99.1574V33.4958H103.491V32.5042ZM99.1574 32.5042C99.1579 32.5042 99.1627 32.5042 99.1711 32.5054C99.1796 32.5066 99.1927 32.5091 99.2089 32.5146C99.2431 32.526 99.287 32.5487 99.3275 32.5892C99.368 32.6297 99.3907 32.6736 99.4021 32.7078C99.4075 32.724 99.4101 32.737 99.4113 32.7455C99.4125 32.754 99.4125 32.7588 99.4125 32.7592H98.4209C98.4209 32.9159 98.4604 33.1245 98.6263 33.2904C98.7922 33.4563 99.0008 33.4958 99.1574 33.4958V32.5042ZM99.4125 32.7592V24.2122H98.4209V32.7592H99.4125ZM99.4125 24.2122C99.4125 23.0158 99.1735 22.0282 98.6076 21.3394L97.8414 21.9688C98.1985 22.4036 98.4209 23.1213 98.4209 24.2122H99.4125ZM98.6144 21.3478C98.0507 20.6303 97.1905 20.3156 96.1479 20.3156V21.3073C96.9913 21.3073 97.5155 21.5543 97.8346 21.9604L98.6144 21.3478ZM96.1479 20.3156C95.0786 20.3156 94.1983 20.7323 93.5584 21.5619L94.3436 22.1676C94.787 21.5927 95.3714 21.3073 96.1479 21.3073V20.3156ZM93.5627 21.5564C92.9439 22.3356 92.6426 23.2701 92.6426 24.3326H93.6342C93.6342 23.469 93.8746 22.7582 94.3393 22.1731L93.5627 21.5564ZM92.6426 24.3326V32.7592H93.6342V24.3326H92.6426ZM92.6426 32.7592C92.6426 32.7588 92.6426 32.754 92.6438 32.7455C92.645 32.737 92.6475 32.724 92.653 32.7078C92.6644 32.6736 92.6871 32.6297 92.7276 32.5892C92.7681 32.5487 92.812 32.526 92.8462 32.5146C92.8624 32.5091 92.8754 32.5066 92.8839 32.5054C92.8924 32.5042 92.8972 32.5042 92.8976 32.5042V33.4958C93.0543 33.4958 93.2629 33.4563 93.4288 33.2904C93.5947 33.1245 93.6342 32.9159 93.6342 32.7592H92.6426ZM92.8976 32.5042H88.5639V33.4958H92.8976V32.5042ZM88.5639 32.5042C88.5643 32.5042 88.5692 32.5042 88.5776 32.5054C88.5861 32.5066 88.5991 32.5091 88.6154 32.5146C88.6496 32.526 88.6934 32.5487 88.734 32.5892C88.7745 32.6297 88.7972 32.6736 88.8086 32.7078C88.814 32.724 88.8166 32.737 88.8178 32.7455C88.819 32.754 88.819 32.7588 88.819 32.7592H87.8273C87.8273 32.9159 87.8668 33.1245 88.0327 33.2904C88.1987 33.4563 88.4072 33.4958 88.5639 33.4958V32.5042ZM88.819 32.7592V24.2122H87.8273V32.7592H88.819ZM88.819 24.2122C88.819 23.0158 88.5799 22.0282 88.0141 21.3394L87.2478 21.9688C87.6049 22.4036 87.8273 23.1213 87.8273 24.2122H88.819ZM88.0209 21.3478C87.4572 20.6303 86.597 20.3156 85.5544 20.3156V21.3073C86.3978 21.3073 86.922 21.5543 87.2411 21.9604L88.0209 21.3478ZM85.5544 20.3156C84.4851 20.3156 83.6048 20.7323 82.9649 21.5619L83.75 22.1676C84.1935 21.5927 84.7779 21.3073 85.5544 21.3073V20.3156ZM82.9692 21.5564C82.3504 22.3356 82.049 23.2701 82.049 24.3326H83.0407C83.0407 23.469 83.2811 22.7582 83.7457 22.1731L82.9692 21.5564ZM82.049 24.3326V32.7592H83.0407V24.3326H82.049ZM82.049 32.7592C82.049 32.7588 82.0491 32.754 82.0503 32.7455C82.0515 32.737 82.054 32.724 82.0594 32.7078C82.0708 32.6736 82.0936 32.6297 82.1341 32.5892C82.1746 32.5487 82.2184 32.526 82.2526 32.5146C82.2689 32.5091 82.2819 32.5066 82.2904 32.5054C82.2989 32.5042 82.3037 32.5042 82.3041 32.5042V33.4958C82.4608 33.4958 82.6694 33.4563 82.8353 33.2904C83.0012 33.1245 83.0407 32.9159 83.0407 32.7592H82.049ZM82.3041 32.5042H77.9704V33.4958H82.3041V32.5042ZM77.9704 32.5042C77.9708 32.5042 77.9756 32.5042 77.9841 32.5054C77.9926 32.5066 78.0056 32.5091 78.0219 32.5146C78.0561 32.526 78.0999 32.5487 78.1404 32.5892C78.1809 32.6297 78.2037 32.6736 78.2151 32.7078C78.2205 32.724 78.223 32.737 78.2242 32.7455C78.2254 32.754 78.2255 32.7588 78.2255 32.7592H77.2338C77.2338 32.9159 77.2733 33.1245 77.4392 33.2904C77.6051 33.4563 77.8137 33.4958 77.9704 33.4958V32.5042ZM78.2255 32.7592V17.3806H77.2338V32.7592H78.2255ZM78.2255 17.3806C78.2255 17.381 78.2254 17.3858 78.2242 17.3943C78.223 17.4028 78.2205 17.4158 78.2151 17.432C78.2037 17.4662 78.1809 17.5101 78.1404 17.5506C78.0999 17.5911 78.0561 17.6138 78.0219 17.6252C78.0056 17.6307 77.9926 17.6332 77.9841 17.6344C77.9756 17.6356 77.9708 17.6356 77.9704 17.6356V16.644C77.8137 16.644 77.6051 16.6835 77.4392 16.8494C77.2733 17.0153 77.2338 17.2239 77.2338 17.3806H78.2255ZM77.9704 17.6356H82.3041V16.644H77.9704V17.6356ZM82.3041 17.6356C82.3037 17.6356 82.2989 17.6356 82.2904 17.6344C82.2819 17.6332 82.2689 17.6307 82.2526 17.6252C82.2184 17.6138 82.1746 17.5911 82.1341 17.5506C82.0936 17.5101 82.0708 17.4662 82.0594 17.432C82.054 17.4158 82.0515 17.4028 82.0503 17.3943C82.0491 17.3858 82.049 17.381 82.049 17.3806H83.0407C83.0407 17.2239 83.0012 17.0153 82.8353 16.8494C82.6694 16.6835 82.4608 16.644 82.3041 16.644V17.6356ZM82.049 17.3806V19.1261H83.0407V17.3806H82.049ZM82.049 19.1261C82.049 19.3222 82.1124 19.5842 82.3601 19.7493L82.9102 18.9242C82.9647 18.9606 83.0026 19.0106 83.0232 19.0587C83.0415 19.1013 83.0407 19.1291 83.0407 19.1261H82.049ZM82.4784 19.8071C82.851 19.9314 83.1112 19.6789 83.2124 19.544L82.4191 18.949C82.4144 18.9553 82.4395 18.9178 82.5037 18.8857C82.5386 18.8683 82.5845 18.8528 82.6391 18.8483C82.6943 18.8437 82.7466 18.8512 82.792 18.8664L82.4784 19.8071ZM83.211 19.5459C83.6712 18.9384 84.2306 18.4525 84.8923 18.0849L84.4107 17.218C83.6279 17.6529 82.9635 18.2303 82.4205 18.9471L83.211 19.5459ZM84.8873 18.0876C85.5539 17.7273 86.2849 17.5454 87.0893 17.5454V16.5537C86.1281 16.5537 85.2339 16.773 84.4158 17.2152L84.8873 18.0876ZM87.0893 17.5454C88.2546 17.5454 89.2109 17.7866 89.9813 18.2434C90.7491 18.6988 91.3637 19.3869 91.8187 20.3339L92.7126 19.9045C92.1844 18.8051 91.4448 17.9584 90.4871 17.3905C89.532 16.8241 88.3918 16.5537 87.0893 16.5537V17.5454ZM91.8221 20.341C91.8701 20.4369 91.9708 20.6165 92.1643 20.7132L92.6078 19.8262C92.6734 19.859 92.7062 19.8988 92.713 19.9073C92.7214 19.9178 92.7192 19.9177 92.7091 19.8975L91.8221 20.341ZM92.2292 20.7401C92.3502 20.7804 92.5005 20.791 92.6529 20.7301C92.798 20.6721 92.8919 20.5703 92.9491 20.4846L92.1239 19.9345C92.141 19.9089 92.1898 19.8473 92.2846 19.8093C92.3869 19.7684 92.4821 19.7791 92.5428 19.7993L92.2292 20.7401ZM92.9759 20.4392C93.394 19.6395 94.0244 18.9583 94.8839 18.3978L94.3422 17.5672C93.3559 18.2104 92.602 19.014 92.0971 19.9798L92.9759 20.4392ZM94.8902 18.3936C95.7304 17.8274 96.657 17.5454 97.6828 17.5454V16.5537C96.4615 16.5537 95.3416 16.8936 94.336 17.5713L94.8902 18.3936ZM107.39 14.371L107.033 14.715L107.04 14.7217L107.046 14.7282L107.39 14.371ZM107.39 10.5489L107.04 10.1983L107.39 10.5489ZM111.242 10.5188L110.892 10.8695L111.242 10.5188ZM111.212 14.371L111.563 14.7216L111.212 14.371ZM109.316 14.6577C108.704 14.6577 108.185 14.4479 107.734 14.0139L107.046 14.7282C107.679 15.3375 108.444 15.6493 109.316 15.6493V14.6577ZM107.747 14.0271C107.313 13.5764 107.104 13.0572 107.104 12.4449H106.112C106.112 13.3174 106.424 14.0822 107.033 14.715L107.747 14.0271ZM107.104 12.4449C107.104 11.8332 107.313 11.3276 107.741 10.8996L107.04 10.1983C106.424 10.8136 106.112 11.572 106.112 12.4449H107.104ZM107.741 10.8996C108.193 10.4475 108.71 10.2322 109.316 10.2322V9.24054C108.438 9.24054 107.671 9.56696 107.04 10.1983L107.741 10.8996ZM109.316 10.2322C109.952 10.2322 110.467 10.4442 110.892 10.8695L111.593 10.1682C110.975 9.55018 110.205 9.24054 109.316 9.24054V10.2322ZM110.892 10.8695C111.317 11.2947 111.529 11.8091 111.529 12.4449H112.521C112.521 11.5559 112.211 10.7863 111.593 10.1682L110.892 10.8695ZM111.529 12.4449C111.529 13.0512 111.314 13.5684 110.862 14.0204L111.563 14.7216C112.194 14.0903 112.521 13.3234 112.521 12.4449H111.529ZM110.862 14.0204C110.434 14.4484 109.928 14.6577 109.316 14.6577V15.6493C110.189 15.6493 110.948 15.3369 111.563 14.7216L110.862 14.0204ZM107.405 17.3806C107.405 17.381 107.405 17.3858 107.403 17.3943C107.402 17.4028 107.4 17.4158 107.394 17.432C107.383 17.4662 107.36 17.5101 107.32 17.5506C107.279 17.5911 107.235 17.6138 107.201 17.6252C107.185 17.6307 107.172 17.6332 107.163 17.6344C107.155 17.6356 107.15 17.6356 107.149 17.6356V16.644C106.993 16.644 106.784 16.6835 106.618 16.8494C106.452 17.0153 106.413 17.2239 106.413 17.3806H107.405ZM107.149 17.6356H111.483V16.644H107.149V17.6356ZM111.483 17.6356C111.483 17.6356 111.478 17.6356 111.47 17.6344C111.461 17.6332 111.448 17.6307 111.432 17.6252C111.398 17.6138 111.354 17.5911 111.313 17.5506C111.273 17.5101 111.25 17.4662 111.239 17.432C111.233 17.4158 111.231 17.4028 111.229 17.3943C111.228 17.3858 111.228 17.381 111.228 17.3806H112.22C112.22 17.2239 112.18 17.0153 112.014 16.8494C111.848 16.6835 111.64 16.644 111.483 16.644V17.6356ZM111.228 17.3806V32.7592H112.22V17.3806H111.228ZM111.228 32.7592C111.228 32.7588 111.228 32.754 111.229 32.7455C111.231 32.737 111.233 32.724 111.239 32.7078C111.25 32.6736 111.273 32.6297 111.313 32.5892C111.354 32.5487 111.398 32.526 111.432 32.5146C111.448 32.5091 111.461 32.5066 111.47 32.5054C111.478 32.5042 111.483 32.5042 111.483 32.5042V33.4958C111.64 33.4958 111.848 33.4563 112.014 33.2904C112.18 33.1245 112.22 32.9159 112.22 32.7592H111.228ZM111.483 32.5042H107.149V33.4958H111.483V32.5042ZM107.149 32.5042C107.15 32.5042 107.155 32.5042 107.163 32.5054C107.172 32.5066 107.185 32.5091 107.201 32.5146C107.235 32.526 107.279 32.5487 107.32 32.5892C107.36 32.6297 107.383 32.6736 107.394 32.7078C107.4 32.724 107.402 32.737 107.403 32.7455C107.405 32.754 107.405 32.7588 107.405 32.7592H106.413C106.413 32.9159 106.452 33.1245 106.618 33.2904C106.784 33.4563 106.993 33.4958 107.149 33.4958V32.5042ZM107.405 32.7592V17.3806H106.413V32.7592H107.405ZM129.207 27.6731L129.364 27.2028L129.319 27.188L129.273 27.1817L129.207 27.6731ZM129.327 27.8236L128.846 27.9439L128.851 27.9623L128.857 27.9804L129.327 27.8236ZM129.327 28.0042L128.857 27.8474L128.844 27.8863L128.838 27.9269L129.327 28.0042ZM128.304 30.3215L127.901 30.0323V30.0324L128.304 30.3215ZM125.897 32.3078L126.118 32.7513L126.125 32.7479L125.897 32.3078ZM118.072 32.037L117.813 32.4603L117.822 32.4652L118.072 32.037ZM115.303 29.1177L115.739 28.8818L115.303 29.1177ZM115.303 21.0221L115.738 21.261L115.739 21.258L115.303 21.0221ZM118.072 18.1329L118.325 18.5594L118.327 18.5581L118.072 18.1329ZM125.897 17.8621L125.665 18.3004L125.675 18.3056L125.897 17.8621ZM128.304 19.8183L127.901 20.1075L127.906 20.1141L128.304 19.8183ZM129.327 22.1356H129.823V22.1031L129.819 22.0709L129.327 22.1356ZM129.207 22.4968L129.273 22.9882L129.3 22.9845L129.327 22.9778L129.207 22.4968ZM125.174 23.0385V23.5343H125.207L125.24 23.5299L125.174 23.0385ZM124.843 22.8579L124.365 22.9898L124.369 23.0023L124.373 23.0147L124.843 22.8579ZM123.94 21.4133L123.598 21.7724L123.607 21.7807L123.616 21.7886L123.94 21.4133ZM119.938 21.9851L119.535 21.6959L119.53 21.7029L119.938 21.9851ZM119.938 28.1547L119.53 28.4369L119.535 28.4438L119.938 28.1547ZM123.94 28.7566L124.273 29.1244L124.282 29.1156L123.94 28.7566ZM124.843 27.312L125.315 27.4637L125.318 27.456L125.32 27.4482L124.843 27.312ZM125.174 27.1314L125.24 26.6399L125.229 26.6386L125.174 27.1314ZM129.05 28.1435C128.988 28.1229 128.934 28.0841 128.895 28.0356C128.86 27.9914 128.849 27.9538 128.846 27.9439L129.808 27.7034C129.761 27.515 129.633 27.2925 129.364 27.2028L129.05 28.1435ZM128.857 27.9804C128.851 27.9627 128.847 27.9399 128.847 27.9139C128.847 27.8879 128.851 27.8651 128.857 27.8474L129.798 28.161C129.852 27.999 129.852 27.8288 129.798 27.6668L128.857 27.9804ZM128.838 27.9269C128.732 28.5962 128.429 29.2975 127.901 30.0323L128.707 30.6107C129.303 29.7806 129.682 28.937 129.817 28.0815L128.838 27.9269ZM127.901 30.0324C127.394 30.7391 126.657 31.3541 125.668 31.8678L126.125 32.7479C127.222 32.178 128.091 31.4689 128.707 30.6107L127.901 30.0324ZM125.675 31.8643C124.714 32.3448 123.559 32.5945 122.195 32.5945V33.5861C123.68 33.5861 124.993 33.3142 126.118 32.7513L125.675 31.8643ZM122.195 32.5945C120.728 32.5945 119.442 32.262 118.322 31.6087L117.822 32.4652C119.11 33.2164 120.572 33.5861 122.195 33.5861V32.5945ZM118.33 31.6137C117.221 30.9372 116.36 30.0289 115.739 28.8818L114.867 29.3536C115.571 30.6543 116.555 31.6921 117.814 32.4602L118.33 31.6137ZM115.739 28.8818C115.119 27.7352 114.806 26.4629 114.806 25.0549H113.814C113.814 26.6163 114.163 28.0525 114.867 29.3536L115.739 28.8818ZM114.806 25.0549C114.806 23.6468 115.119 22.3858 115.738 21.261L114.869 20.7831C114.163 22.066 113.814 23.4935 113.814 25.0549H114.806ZM115.739 21.258C116.359 20.1121 117.219 19.2153 118.325 18.5594L117.819 17.7065C116.557 18.455 115.571 19.4843 114.867 20.7862L115.739 21.258ZM118.327 18.5581C119.446 17.8866 120.731 17.5454 122.195 17.5454V16.5537C120.569 16.5537 119.105 16.9347 117.817 17.7078L118.327 18.5581ZM122.195 17.5454C123.578 17.5454 124.728 17.8047 125.665 18.3003L126.129 17.4239C125.018 16.8361 123.701 16.5537 122.195 16.5537V17.5454ZM125.675 18.3056C126.661 18.7988 127.395 19.4028 127.901 20.1075L128.707 19.5291C128.089 18.6688 127.219 17.9687 126.118 17.4186L125.675 18.3056ZM127.906 20.1141C128.451 20.8466 128.749 21.5412 128.836 22.2003L129.819 22.0709C129.705 21.2052 129.321 20.3549 128.702 19.5224L127.906 20.1141ZM128.832 22.1356V22.2259H129.823V22.1356H128.832ZM128.832 22.2259C128.832 22.2749 128.824 22.2583 128.844 22.2126C128.856 22.1857 128.88 22.1439 128.925 22.103C128.971 22.0603 129.028 22.0305 129.087 22.0157L129.327 22.9778C129.545 22.9234 129.682 22.7697 129.75 22.6154C129.811 22.4794 129.823 22.3374 129.823 22.2259H128.832ZM129.141 22.0053L125.108 22.5471L125.24 23.5299L129.273 22.9882L129.141 22.0053ZM125.174 22.5426H125.114V23.5343H125.174V22.5426ZM125.114 22.5426C125.114 22.5426 125.117 22.5426 125.122 22.5432C125.127 22.5438 125.134 22.545 125.143 22.5474C125.163 22.5524 125.188 22.5624 125.216 22.5808C125.278 22.6218 125.305 22.6751 125.314 22.7011L124.373 23.0147C124.422 23.161 124.514 23.3047 124.666 23.4059C124.813 23.5042 124.975 23.5343 125.114 23.5343V22.5426ZM125.321 22.726C125.136 22.0531 124.783 21.4857 124.264 21.0381L123.616 21.7886C123.981 22.1033 124.23 22.499 124.365 22.9898L125.321 22.726ZM124.282 21.0543C123.753 20.5502 123.071 20.3156 122.285 20.3156V21.3073C122.863 21.3073 123.285 21.4739 123.598 21.7724L124.282 21.0543ZM122.285 20.3156C121.13 20.3156 120.194 20.7775 119.535 21.696L120.34 22.2743C120.805 21.6278 121.434 21.3073 122.285 21.3073V20.3156ZM119.53 21.7029C118.915 22.5916 118.629 23.7226 118.629 25.0549H119.621C119.621 23.8591 119.877 22.9436 120.345 22.2674L119.53 21.7029ZM118.629 25.0549C118.629 26.4053 118.914 27.547 119.53 28.4369L120.345 27.8724C119.878 27.1973 119.621 26.2726 119.621 25.0549H118.629ZM119.535 28.4438C120.194 29.3623 121.13 29.8242 122.285 29.8242V28.8325C121.434 28.8325 120.805 28.512 120.34 27.8655L119.535 28.4438ZM122.285 29.8242C123.064 29.8242 123.743 29.6039 124.273 29.1242L123.608 28.3889C123.295 28.6717 122.87 28.8325 122.285 28.8325V29.8242ZM124.282 29.1156C124.765 28.6564 125.11 28.1032 125.315 27.4637L124.371 27.1603C124.216 27.6443 123.959 28.0542 123.598 28.3975L124.282 29.1156ZM125.32 27.4482C125.316 27.4619 125.306 27.4886 125.283 27.5192C125.259 27.5511 125.228 27.5779 125.194 27.5968C125.128 27.6326 125.087 27.6206 125.12 27.6242L125.229 26.6386C125.081 26.6222 124.895 26.6302 124.719 26.7262C124.528 26.8303 124.417 27.0003 124.366 27.1758L125.32 27.4482ZM125.108 27.6228L129.141 28.1646L129.273 27.1817L125.24 26.64L125.108 27.6228Z" fill="#6F5CE6"/>
</svg>
