<svg fill="none" height="25" viewBox="0 0 35 25" width="35" xmlns="http://www.w3.org/2000/svg"><path d="m34.1942 18.5238c.0006.4179-.041.8348-.1241 1.2443-.2941 1.4256-1.081 2.7012-2.2216 3.6015-1.1407.9003-2.5618 1.3674-4.0125 1.3189s-2.8377-.6095-3.916-1.584c-1.0784-.9745-1.7788-2.2998-1.9776-3.7419-.1717-1.2371.0367-2.4972.5972-3.6124.1551-.3118.3371-.6093.5439-.8893.0195-.0257.041-.0524.0626-.0823.9585-1.2979 1.4745-2.871 1.4714-4.4862 0-2.00101-.7925-3.92009-2.2033-5.33503-1.4107-1.41495-3.3241-2.20985-5.3191-2.20985-1.9951 0-3.9085.7949-5.3192 2.20985-1.4108 1.41494-2.2033 3.33402-2.2033 5.33503-.00196 1.6176.5154 3.1927 1.4755 4.4924.0216.0298.0431.0566.0626.0823.2072.2797.3891.5773.5439.8892.3954.7859.6187 1.6474.6549 2.5269.0363.8794-.1153 1.7565-.4446 2.5724-.3294.8159-.8288 1.5518-1.4648 2.1582-.63611.6065-1.39408 1.0696-2.22316 1.3582s-1.71011.3962-2.584.3154c-.8739-.0808-1.72048-.3481-2.48297-.7839-.7625-.4358-1.42329-1.03-1.93808-1.7429-.514794-.7129-.871683-1.5279-1.046743-2.3905-.2042509-1.0013-.1579208-2.0378.134847-3.0168.292769-.979.822846-1.8699 1.542856-2.5932l.80037.8038 1.12873 1.1372c-.46265.4643-.78273 1.052-.92222 1.6933-.13948.6414-.09252 1.3094.13532 1.9247.22784.6154.62698 1.1522 1.15001 1.5468.52303.3945 1.14798.6302 1.80062.6791.65265.0489 1.30556-.0912 1.8812-.4035s1.04982-.7837 1.36622-1.3583.46173-1.2283.41872-1.8832c-.043-.655-.27253-1.2839-.66133-1.8119-.01231-.0144-.02155-.0278-.03181-.0412-.86594-1.1619-1.47623-2.4949-1.79057-3.9109-.00924-.038-.01642-.0782-.02565-.1173-.14538-.699-.21862-1.4112-.21857-2.1252 0-.221.00718-.44053.02155-.65872.05687-.92235.2388-1.83263.54076-2.70571.77463-2.24734 2.30123-4.15631 4.3203-5.40249 2.0192-1.246169 4.4062-1.752648 6.7555-1.4333553 2.3493.3192923 4.5159 1.4446553 6.1316 3.1848253 1.6156 1.74018 2.5807 3.98779 2.7311 6.36085.013.21818.0198.4377.0205.6587-.0003.7123-.0736 1.4227-.2186 2.1201-.0092.0391-.0164.0792-.0256.1173-.2025.9128-.5288 1.7934-.9697 2.6172-.2414.4507-.5158.8827-.8209 1.2927-.0103.0133-.0195.0267-.0318.0411-.3892.5282-.619 1.1572-.6622 1.8125s.1021 1.3092.4185 1.8842c.3164.5749.7908 1.0466 1.3667 1.3591.5758.3125 1.229.4526 1.882.4037.6529-.0488 1.2782-.2847 1.8014-.6795s.9225-.9319 1.1503-1.5476c.2278-.6156.2747-1.284.135-1.9256-.1397-.6415-.4601-1.2294-.9232-1.6937l1.1288-1.1373.8014-.8038c.573.5725 1.0276 1.2529 1.3377 2.0021s.4696 1.5525.4692 2.3637z" fill="#fcfcfc"/></svg>