<svg width="55" height="55" viewBox="0 0 55 55" fill="none" xmlns="http://www.w3.org/2000/svg">
<path d="M48.125 20.625L48.125 6.875M48.125 6.875H34.375M48.125 6.875L29.7917 25.2083M22.9167 11.4583H17.875C14.0246 11.4583 12.0995 11.4583 10.6288 12.2077C9.3352 12.8668 8.28346 13.9185 7.62433 15.2121C6.875 16.6828 6.875 18.608 6.875 22.4583V37.125C6.875 40.9754 6.875 42.9005 7.62433 44.3712C8.28346 45.6648 9.3352 46.7165 10.6288 47.3757C12.0995 48.125 14.0246 48.125 17.875 48.125H32.5417C36.392 48.125 38.3172 48.125 39.7879 47.3757C41.0815 46.7165 42.1332 45.6648 42.7923 44.3712C43.5417 42.9005 43.5417 40.9754 43.5417 37.125V32.0833" stroke="white" stroke-width="2" stroke-linecap="round" stroke-linejoin="round"/>
</svg>
