<svg width="55" height="55" viewBox="0 0 55 55" fill="none" xmlns="http://www.w3.org/2000/svg">
<circle cx="27.5" cy="27.5" r="27.5" fill="#1F2021"/>
<path d="M32.6121 39C34.8537 39 35.9744 39 36.8306 38.564C37.5836 38.1805 38.1959 37.5686 38.5796 36.816C39.0159 35.9603 39.0159 34.8402 39.0159 32.6V21.4C39.0159 19.1598 39.0159 18.0397 38.5796 17.184C38.1959 16.4314 37.5836 15.8195 36.8306 15.436C35.9744 15 34.8537 15 32.6121 15L21.4057 15C19.1642 15 18.0434 15 17.1873 15.436C16.4342 15.8195 15.8219 16.4314 15.4382 17.184C15.002 18.0397 15.002 19.1598 15.002 21.4L15.002 32.6C15.002 34.8402 15.002 35.9603 15.4382 36.816C15.8219 37.5686 16.4342 38.1805 17.1873 38.564C18.0434 39 19.1642 39 21.4057 39H32.6121Z" stroke="white" stroke-width="2" stroke-linecap="round" stroke-linejoin="round"/>
<path d="M29.319 28.5929C29.2249 28.3107 29.1778 28.1696 29.1803 28.0542C29.1828 27.9328 29.1991 27.8692 29.255 27.7614C29.3082 27.6589 29.4504 27.5267 29.7347 27.2623C30.52 26.5319 31.0112 25.49 31.0112 24.3333C31.0112 22.1242 29.2193 20.3333 27.0089 20.3333C24.7985 20.3333 23.0066 22.1242 23.0066 24.3333C23.0066 25.49 23.4978 26.5319 24.2831 27.2623C24.5674 27.5267 24.7096 27.6589 24.7628 27.7614C24.8187 27.8692 24.835 27.9328 24.8375 28.0542C24.84 28.1696 24.7929 28.3107 24.6988 28.5929L23.4749 32.2627C23.3168 32.7367 23.2377 32.9737 23.2851 33.1624C23.3266 33.3275 23.4297 33.4705 23.5734 33.5621C23.7375 33.6667 23.9874 33.6667 24.4874 33.6667H29.5304C30.0304 33.6667 30.2804 33.6667 30.4444 33.5621C30.5881 33.4705 30.6912 33.3275 30.7327 33.1624C30.7801 32.9737 30.7011 32.7367 30.543 32.2627L29.319 28.5929Z" stroke="white" stroke-width="2" stroke-linecap="round" stroke-linejoin="round"/>
</svg>
